<svg width="500" height="464" viewBox="0 0 500 464" fill="none" xmlns="http://www.w3.org/2000/svg">
<g clip-path="url(#clip0_79_3411)">
<path d="M96.4761 289.118L97.7784 289.862L98.1701 289.177L97.8269 288.466L96.4761 289.118ZM12.8134 359.719L13.9342 360.715L13.9827 360.661L14.0257 360.602L12.8134 359.719ZM4.34764 385.089L3.38272 383.94L3.36412 383.956L3.34603 383.972L4.34764 385.089ZM5.22096 395.558L6.31359 396.586L6.32045 396.579L5.22096 395.558ZM8.2345 392.311L7.24694 391.182L7.18814 391.233L7.13501 391.291L8.2345 392.311ZM10.8041 396.183L11.5593 397.479L11.5816 397.466L11.6035 397.452L10.8041 396.183ZM22.4706 397.645L23.5429 398.694L23.6134 398.622L23.6736 398.541L22.4706 397.645ZM1.20731 398.891C0.841102 399.634 1.14664 400.533 1.88973 400.899C2.63282 401.266 3.53208 400.96 3.89829 400.217L1.20731 398.891ZM3.84177 400.331C4.20888 399.589 3.90444 398.689 3.16179 398.322C2.41914 397.955 1.51951 398.259 1.15241 399.002L3.84177 400.331ZM20.035 393.974V392.474H20.03L20.035 393.974ZM34.7093 379.231C35.4358 378.833 35.702 377.921 35.3039 377.195C34.9057 376.468 33.9941 376.202 33.2676 376.6L34.7093 379.231ZM13.3031 400.537L13.0366 399.061L12.9845 399.071L12.9332 399.084L13.3031 400.537ZM41.976 404.138L41.1648 402.876L41.1556 402.882L41.1466 402.888L41.976 404.138ZM46.1505 398.094L46.0671 396.596L45.9872 396.601L45.9082 396.614L46.1505 398.094ZM59.3201 386.65C60.0368 386.234 60.2812 385.317 59.8658 384.6C59.4504 383.883 58.5326 383.639 57.8158 384.054L59.3201 386.65ZM29.601 366.228C30.3608 365.898 30.7093 365.014 30.3792 364.254C30.0492 363.495 29.1657 363.146 28.4058 363.476L29.601 366.228ZM21.1194 352.64L21.801 353.976L21.8049 353.974L21.1194 352.64ZM387.829 386.689L389.166 386.009L389.155 385.988L389.144 385.967L387.829 386.689ZM407.696 398.767L409.05 398.121L409.042 398.104L409.033 398.087L407.696 398.767ZM410.586 395.705L411.539 394.547L411.433 394.46L411.313 394.393L410.586 395.705ZM417.69 403.251L418.965 402.46L418.935 402.413L418.902 402.367L417.69 403.251ZM415.613 405.97C414.971 405.446 414.026 405.542 413.502 406.183C412.979 406.825 413.074 407.77 413.716 408.294L415.613 405.97ZM437.084 400.194L438.242 399.24L438.207 399.197L438.169 399.157L437.084 400.194ZM455.454 401.582L456.829 400.982L456.769 400.843L456.681 400.719L455.454 401.582ZM452.226 405.375C451.44 405.114 450.591 405.54 450.33 406.327C450.069 407.113 450.495 407.962 451.282 408.223L452.226 405.375ZM408.723 382.31C408.263 381.621 407.331 381.436 406.642 381.897C405.954 382.357 405.769 383.289 406.229 383.977L408.723 382.31ZM433.604 375.928C433.055 375.307 432.107 375.248 431.486 375.797C430.865 376.345 430.807 377.293 431.355 377.914L433.604 375.928ZM441.107 362.095C440.512 361.518 439.563 361.532 438.986 362.126C438.409 362.721 438.423 363.67 439.017 364.247L441.107 362.095ZM449.792 375.79L451.153 375.159L451.149 375.152L449.792 375.79ZM451.568 356.154L452.974 355.633L452.968 355.616L452.961 355.598L451.568 356.154ZM413.737 408.307C414.413 408.786 415.349 408.627 415.828 407.951C416.307 407.275 416.148 406.339 415.472 405.86L413.737 408.307ZM386.075 272.697L384.884 271.785L384.404 272.412L384.649 273.162L386.075 272.697ZM367.307 329.138L365.902 329.664L365.903 329.666L367.307 329.138ZM367.297 329.112L368.701 328.586V328.584L367.297 329.112ZM447.007 350.163L446.065 351.331L446.091 351.352L446.118 351.371L447.007 350.163ZM160.978 120.491C161.107 119.673 160.549 118.905 159.731 118.775C158.913 118.645 158.144 119.204 158.015 120.022L160.978 120.491ZM363.308 120.179C363.265 119.352 362.56 118.716 361.732 118.759C360.905 118.802 360.269 119.507 360.312 120.334L363.308 120.179ZM139.217 0.240454C139.143 7.40284 137.389 27.8845 130.935 51.858L133.832 52.6379C140.35 28.4266 142.14 7.69338 142.216 0.271357L139.217 0.240454ZM130.935 51.858C126.905 66.8259 118.45 100.196 109.796 132.506C101.095 164.988 92.1487 196.567 86.9894 208.605L89.7468 209.787C95.0121 197.501 104.02 165.664 112.693 133.282C121.413 100.728 129.753 67.7855 133.832 52.6379L130.935 51.858ZM86.9894 208.605C81.7609 220.805 78.2266 231.224 76.8948 240.028C75.5615 248.843 76.4125 256.202 80.1502 262.12L82.6867 260.518C79.4747 255.432 78.5883 248.892 79.8611 240.477C81.1354 232.052 84.5507 221.911 89.7468 209.787L86.9894 208.605ZM80.1502 262.12C85.6628 270.848 92.4282 284.183 95.1252 289.77L97.8269 288.466C95.1187 282.856 88.2935 269.396 82.6867 260.518L80.1502 262.12ZM95.1737 288.374C92.9012 292.351 86.1287 302.799 77.4103 312.436L79.6349 314.448C88.5225 304.625 95.4178 293.993 97.7784 289.862L95.1737 288.374ZM77.4103 312.436C66.5459 324.444 49.8932 336.512 36.6653 343.989L38.1415 346.601C51.5542 339.02 68.4919 326.764 79.6349 314.448L77.4103 312.436ZM104.694 348.992C108.171 343.487 113.898 334.417 120.526 325.717C127.19 316.967 134.619 308.791 141.458 304.9L139.975 302.293C132.561 306.51 124.819 315.129 118.139 323.899C111.422 332.717 105.631 341.89 102.158 347.39L104.694 348.992ZM141.458 304.9C148.753 300.751 159.712 291.384 168.748 283.166C173.29 279.036 177.383 275.162 180.341 272.32C181.82 270.899 183.016 269.735 183.842 268.927C184.255 268.522 184.576 268.207 184.794 267.992C184.903 267.884 184.986 267.802 185.043 267.747C185.071 267.719 185.092 267.698 185.106 267.684C185.113 267.677 185.119 267.671 185.122 267.667C185.124 267.666 185.127 267.663 185.127 267.663L185.128 267.662C185.128 267.662 185.128 267.662 184.071 266.597C183.015 265.533 183.014 265.533 183.014 265.533V265.534C183.014 265.534 183.011 265.536 183.01 265.538C183.006 265.541 183.001 265.546 182.994 265.553C182.981 265.567 182.96 265.587 182.932 265.614C182.878 265.668 182.796 265.749 182.688 265.856C182.473 266.068 182.154 266.381 181.744 266.782C180.923 267.585 179.734 268.742 178.262 270.157C175.318 272.985 171.245 276.84 166.73 280.947C157.652 289.202 146.933 298.335 139.975 302.293L141.458 304.9ZM11.6926 358.722C10.0869 360.527 8.72641 363.725 7.76118 366.503C6.78155 369.322 6.09261 372.061 5.94658 373.152L8.92008 373.55C9.02693 372.751 9.64121 370.232 10.595 367.488C11.5632 364.701 12.7663 362.028 13.9342 360.715L11.6926 358.722ZM8.49172 374.414C9.31676 373.593 10.0352 373.271 10.5799 373.17C11.1242 373.07 11.5981 373.172 11.9797 373.367C12.3808 373.572 12.6457 373.864 12.7623 374.08C12.9191 374.371 12.6814 374.171 12.942 373.818L15.3552 375.6C16.1149 374.572 15.7867 373.367 15.4022 372.655C14.9774 371.868 14.2502 371.159 13.347 370.697C12.4243 370.224 11.2819 369.991 10.0367 370.22C8.7918 370.449 7.5473 371.121 6.37495 372.288L8.49172 374.414ZM12.942 373.818C12.4945 374.424 11.0671 376.068 9.55361 377.758C8.05099 379.435 6.57461 381.035 6.06352 381.537L8.16625 383.677C8.75789 383.095 10.2993 381.422 11.7883 379.759C13.2664 378.109 14.8045 376.346 15.3552 375.6L12.942 373.818ZM2.99599 386.581C3.05722 385.977 3.29153 384.839 4.03803 382.883L1.23533 381.813C0.434249 383.912 0.108372 385.321 0.0112698 386.279L2.99599 386.581ZM4.03803 382.883C4.75986 380.993 5.60963 379.123 6.43 377.58C7.27503 375.99 8.01536 374.888 8.49172 374.414L6.37495 372.288C5.55468 373.105 4.63903 374.557 3.78104 376.171C2.89842 377.832 1.99817 379.815 1.23533 381.813L4.03803 382.883ZM6.06352 381.537C5.54344 382.048 4.87749 382.646 4.32956 383.126C4.05808 383.363 3.82027 383.568 3.65059 383.713C3.56581 383.785 3.4982 383.843 3.45208 383.882C3.42902 383.901 3.41136 383.916 3.39961 383.926C3.39374 383.931 3.38935 383.935 3.38651 383.937L3.38272 383.94C3.38272 383.94 3.38272 383.94 4.34764 385.089C5.31256 386.237 5.31264 386.237 5.31264 386.237L5.31427 386.236C5.31427 386.236 5.31661 386.234 5.31838 386.232C5.32191 386.229 5.327 386.225 5.33359 386.22C5.34676 386.208 5.36593 386.192 5.39055 386.171C5.43977 386.13 5.51081 386.069 5.59931 385.994C5.77618 385.843 6.02342 385.63 6.30591 385.383C6.86593 384.892 7.5836 384.249 8.16625 383.677L6.06352 381.537ZM3.34603 383.972L1.43989 385.682L3.4431 387.915L5.34924 386.205L3.34603 383.972ZM2.93869 384.574C2.85407 384.806 2.73439 385.032 2.52931 385.444C2.34136 385.822 2.1132 386.298 1.93414 386.869C1.56004 388.062 1.44693 389.509 1.94545 391.44L4.85024 390.69C4.48251 389.266 4.60091 388.391 4.79656 387.767C4.90238 387.43 5.04367 387.125 5.21479 386.782C5.36878 386.472 5.5978 386.038 5.75658 385.604L2.93869 384.574ZM1.94545 391.44C2.39786 393.193 3.43996 395.388 3.89114 396.252L6.55077 394.864C6.12692 394.052 5.21473 392.102 4.85024 390.69L1.94545 391.44ZM6.32045 396.579L9.33399 393.331L7.13501 391.291L4.12146 394.538L6.32045 396.579ZM9.22206 393.44C9.48243 393.212 9.77963 392.919 10.0313 392.677C10.3032 392.415 10.5662 392.17 10.8317 391.954C11.4178 391.478 11.7661 391.36 11.9281 391.36V388.36C10.6682 388.36 9.6201 389.073 8.94018 389.626C8.5726 389.924 8.2351 390.242 7.95217 390.514C7.64901 390.806 7.43702 391.016 7.24694 391.182L9.22206 393.44ZM11.9281 391.36C12.0382 391.36 12.2208 391.386 12.3843 391.463C12.5251 391.529 12.6368 391.622 12.7169 391.788L15.4174 390.481C14.5476 388.684 12.7589 388.36 11.9281 388.36V391.36ZM12.7169 391.788C12.7918 391.943 12.8471 392.33 12.143 393.148C11.5047 393.889 10.5875 394.547 10.0046 394.914L11.6035 397.452C12.2832 397.024 13.4916 396.179 14.4162 395.105C15.2751 394.108 16.3307 392.369 15.4174 390.481L12.7169 391.788ZM6.82188 396.808C5.86939 397.44 5.0211 398.099 4.39932 398.729C4.09029 399.043 3.79817 399.388 3.58013 399.754C3.37857 400.092 3.13609 400.621 3.19035 401.247L6.17913 400.987C6.20393 401.273 6.09126 401.4 6.15755 401.289C6.20737 401.205 6.32117 401.053 6.53486 400.836C6.95852 400.407 7.62295 399.876 8.48061 399.307L6.82188 396.808ZM4.04308 402.473C5.2937 403.065 6.66125 403.184 7.73725 403.159C8.83059 403.134 9.75478 402.957 10.2029 402.853L9.52468 399.931C9.20832 400.004 8.4968 400.141 7.66864 400.16C6.82314 400.179 5.98339 400.072 5.3264 399.761L4.04308 402.473ZM16.7332 401.438C17.5224 401.3 18.7858 401.023 20.0331 400.606C21.2108 400.212 22.649 399.608 23.5429 398.694L21.3982 396.596C21.0472 396.955 20.2233 397.379 19.0819 397.761C18.0103 398.119 16.8978 398.364 16.2146 398.484L16.7332 401.438ZM4.12835 394.531C3.58042 395.113 2.95222 396.006 2.44048 396.795C1.92183 397.595 1.44397 398.411 1.20731 398.891L3.89829 400.217C4.06015 399.889 4.46657 399.185 4.95746 398.428C5.45526 397.66 5.96191 396.96 6.31359 396.586L4.12835 394.531ZM1.15241 399.002C1.00794 399.294 0.795344 399.713 0.68224 400.094C0.578396 400.445 0.377156 401.378 1.12962 402.115C1.44253 402.422 1.80502 402.563 2.07713 402.634C2.35352 402.706 2.63784 402.733 2.89971 402.74C3.42078 402.756 4.07882 402.702 4.86663 402.606L4.50285 399.628C3.74506 399.721 3.27275 399.75 2.98873 399.742C2.84806 399.738 2.81115 399.725 2.83636 399.732C2.8573 399.737 3.03868 399.786 3.22929 399.972C3.4516 400.19 3.5519 400.463 3.57238 400.687C3.58884 400.867 3.55073 400.973 3.5586 400.947C3.56364 400.93 3.58306 400.874 3.63677 400.756C3.68932 400.64 3.75479 400.507 3.84177 400.331L1.15241 399.002ZM20.03 392.474C18.7639 392.479 17.3014 392.666 15.9612 392.9L16.4771 395.855C17.7499 395.633 19.0212 395.478 20.04 395.474L20.03 392.474ZM17.6071 394.946C17.6533 394.834 17.8338 394.524 18.245 393.988C18.6309 393.486 19.1507 392.872 19.7814 392.174C21.0411 390.781 22.6955 389.107 24.4947 387.41C28.1325 383.978 32.1978 380.607 34.7093 379.231L33.2676 376.6C30.3874 378.178 26.0794 381.791 22.4361 385.228C20.5948 386.965 18.8818 388.696 17.5563 390.162C16.8944 390.894 16.3172 391.573 15.8653 392.162C15.4387 392.717 15.0407 393.298 14.8312 393.809L17.6071 394.946ZM10.2029 402.853C12.5308 402.313 11.4381 402.56 13.673 401.991L12.9332 399.084C10.6224 399.672 11.8145 399.399 9.52468 399.931L10.2029 402.853ZM13.5696 402.014C15.1003 401.737 16.0538 401.558 16.7332 401.438L16.2146 398.484C15.5314 398.604 14.5309 398.792 13.0366 399.061L13.5696 402.014ZM11.8118 400.698C11.9845 402.299 12.5367 404.929 14.876 407.62L17.1402 405.652C15.3281 403.567 14.9254 401.59 14.7945 400.377L11.8118 400.698ZM14.876 407.62C16.287 409.243 18.3365 410.954 20.542 412.327C22.7309 413.69 25.2145 414.809 27.5002 415.104L27.884 412.129C26.2011 411.912 24.14 411.033 22.1277 409.78C20.132 408.538 18.3238 407.014 17.1402 405.652L14.876 407.62ZM27.5002 415.104C30.9378 415.548 33.3131 415.182 35.1665 414.564C36.0733 414.262 36.8276 413.908 37.4537 413.611C38.1081 413.301 38.5635 413.085 39.0104 412.948L38.1312 410.079C37.4319 410.294 36.7611 410.62 36.1694 410.9C35.5494 411.194 34.9376 411.478 34.218 411.718C32.8189 412.184 30.901 412.518 27.884 412.129L27.5002 415.104ZM39.1157 398.945C37.6617 399.726 35.8534 400.796 34.2868 401.898C33.5042 402.449 32.7583 403.025 32.1399 403.591C31.5485 404.132 30.9626 404.764 30.6264 405.438L33.3114 406.777C33.3955 406.608 33.6477 406.278 34.1656 405.804C34.6565 405.354 35.291 404.86 36.0135 404.352C37.4568 403.336 39.1566 402.328 40.5352 401.588L39.1157 398.945ZM42.7871 405.4C44.4514 404.33 46.772 402.673 48.1092 401.253C48.4486 400.893 48.7769 400.494 49.014 400.079C49.2248 399.71 49.5162 399.067 49.3621 398.327C49.1757 397.432 48.4846 396.966 47.8943 396.77C47.3461 396.588 46.7087 396.56 46.0671 396.596L46.2339 399.592C46.4703 399.578 46.6466 399.581 46.7729 399.592C46.9027 399.602 46.9521 399.618 46.9475 399.617C46.9223 399.608 46.5305 399.444 46.4251 398.938C46.352 398.587 46.5061 398.421 46.4089 398.591C46.3381 398.715 46.1877 398.918 45.9253 399.197C44.8554 400.332 42.7997 401.825 41.1648 402.876L42.7871 405.4ZM30.6264 405.438C30.4285 405.835 30.368 406.377 30.6375 406.892C30.8551 407.308 31.1913 407.512 31.348 407.595C31.6685 407.765 32.0159 407.825 32.2068 407.854C32.6568 407.922 33.2273 407.94 33.7399 407.942C34.2726 407.945 34.8281 407.931 35.2774 407.919C35.7662 407.905 36.0587 407.895 36.1651 407.898L36.2449 404.899C36.0294 404.893 35.5987 404.908 35.1922 404.92C34.7461 404.932 34.234 404.945 33.7557 404.942C33.2572 404.94 32.8732 404.921 32.6539 404.888C32.5102 404.866 32.5943 404.86 32.7515 404.943C32.8265 404.983 33.106 405.139 33.2954 405.501C33.5368 405.962 33.4768 406.445 33.3114 406.777L30.6264 405.438ZM36.1651 407.898C37.3849 407.93 38.7235 407.489 39.8218 407.012C40.9619 406.517 42.041 405.895 42.8053 405.388L41.1466 402.888C40.5039 403.315 39.5797 403.846 38.6271 404.26C37.6327 404.692 36.7895 404.913 36.2449 404.899L36.1651 407.898ZM34.7409 406.073C34.4296 407.471 34.9402 410.084 37.5268 412.591L39.6148 410.436C38.6156 409.468 38.1125 408.574 37.8701 407.9C37.7478 407.561 37.6915 407.276 37.6705 407.063C37.6601 406.957 37.6588 406.872 37.6614 406.811C37.664 406.747 37.6702 406.72 37.6692 406.724L34.7409 406.073ZM37.5445 412.607C37.9111 412.951 38.471 413.278 39.0002 413.553C39.5738 413.85 40.268 414.164 41.0121 414.464C42.4865 415.057 44.2587 415.632 45.7793 415.889L46.2797 412.931C45.0492 412.723 43.4966 412.229 42.1317 411.68C41.4561 411.409 40.852 411.133 40.3811 410.889C40.1454 410.767 39.9544 410.659 39.8101 410.568C39.6543 410.47 39.5971 410.42 39.5971 410.42L37.5445 412.607ZM45.7793 415.889C47.7518 416.223 50.1243 416.168 52.4032 415.767C54.6752 415.368 56.9829 414.602 58.7723 413.414L57.1136 410.915C55.7773 411.801 53.9007 412.458 51.8836 412.813C49.8734 413.166 47.852 413.197 46.2797 412.931L45.7793 415.889ZM58.7723 413.414C61.9547 411.303 69.0573 405.773 72.8157 401.366L70.533 399.419C67.0296 403.528 60.1823 408.878 57.1136 410.915L58.7723 413.414ZM45.9082 396.614C45.0213 396.759 43.4146 397.134 41.8932 397.757L43.0302 400.533C44.3003 400.013 45.6805 399.691 46.3928 399.574L45.9082 396.614ZM41.8932 397.757C41.2391 398.025 39.8395 398.556 39.1157 398.945L40.5352 401.588C41.0753 401.298 42.1883 400.878 43.0302 400.533L41.8932 397.757ZM43.8372 399.743C44.3495 398.565 46.1228 395.896 49.7027 393.028L47.827 390.686C43.9703 393.776 41.8398 396.814 41.0862 398.546L43.8372 399.743ZM49.7027 393.028C51.494 391.593 53.8868 390.003 55.8616 388.756C56.8429 388.136 57.7098 387.608 58.3308 387.236C58.6412 387.05 58.8899 386.902 59.0603 386.802C59.1455 386.752 59.2111 386.713 59.2551 386.688C59.2771 386.675 59.2937 386.665 59.3046 386.659C59.31 386.656 59.3141 386.653 59.3167 386.652L59.3201 386.65C59.3201 386.65 59.3201 386.65 58.568 385.352C57.8158 384.054 57.8158 384.054 57.8158 384.054L57.8153 384.055H57.8142L57.8104 384.057C57.8071 384.059 57.8024 384.062 57.7962 384.066C57.7838 384.073 57.7658 384.083 57.7423 384.097C57.6954 384.124 57.6266 384.165 57.5382 384.217C57.3613 384.321 57.1055 384.472 56.7874 384.663C56.1513 385.045 55.2646 385.585 54.26 386.219C52.2627 387.48 49.754 389.143 47.827 390.686L49.7027 393.028ZM15.1617 375.815C15.8943 375.144 18.4492 373.202 21.4193 371.158C24.3925 369.113 27.5892 367.102 29.601 366.228L28.4058 363.476C26.0969 364.479 22.6841 366.647 19.7191 368.687C16.7509 370.729 14.0388 372.776 13.1355 373.603L15.1617 375.815ZM15.9612 392.9C15.358 393.005 15.1286 393.04 14.8809 393.105C14.7779 393.132 14.6411 393.173 14.4984 393.214C14.333 393.261 14.085 393.331 13.6822 393.438L14.4522 396.337C14.8723 396.226 15.139 396.151 15.3242 396.098C15.5321 396.038 15.5818 396.023 15.6453 396.006C15.7306 395.983 15.7542 395.981 16.4771 395.855L15.9612 392.9ZM10.0488 394.887C9.31839 395.313 8.24159 395.866 6.82188 396.808L8.48061 399.307C9.80581 398.428 10.6793 397.992 11.5593 397.479L10.0488 394.887ZM36.6653 343.989C33.8854 345.56 31.0919 346.749 28.3483 347.867C25.6328 348.974 22.9142 350.032 20.434 351.306L21.8049 353.974C24.136 352.777 26.6912 351.783 29.4807 350.646C32.2423 349.52 35.1852 348.272 38.1415 346.601L36.6653 343.989ZM14.0257 360.602C15.0353 359.216 18.0669 355.881 21.801 353.976L20.4379 351.304C16.1546 353.488 12.7882 357.206 11.601 358.835L14.0257 360.602ZM11.6035 397.452C11.5986 397.456 11.6284 397.437 11.7125 397.395C11.7893 397.357 11.8888 397.31 12.0089 397.257C12.2488 397.149 12.5457 397.025 12.8596 396.9C13.5076 396.643 14.1385 396.42 14.4522 396.337L13.6822 393.438C13.1871 393.569 12.4184 393.848 11.753 394.112C11.1263 394.361 10.3758 394.68 10.0046 394.914L11.6035 397.452ZM20.035 395.474C21.1968 395.474 21.5809 395.822 21.6298 395.892C21.6334 395.897 21.6521 395.909 21.6405 395.999C21.6253 396.116 21.5504 396.369 21.2675 396.749L23.6736 398.541C24.6545 397.224 25.0692 395.564 24.0817 394.163C23.2045 392.919 21.5939 392.474 20.035 392.474V395.474ZM81.0446 389.84C86.3891 381.554 91.3112 372.905 95.3932 365.547C99.4985 358.146 102.71 352.134 104.694 348.992L102.158 347.39C100.112 350.628 96.8193 356.791 92.7698 364.091C88.6968 371.434 83.8131 380.013 78.5236 388.213L81.0446 389.84ZM72.8157 401.366C77.0161 396.44 77.8684 394.764 81.0446 389.84L78.5236 388.213C75.3168 393.185 74.5773 394.676 70.533 399.419L72.8157 401.366ZM0.0112698 386.279C-0.0677112 387.059 0.259777 388.039 1.26843 388.404C2.13841 388.72 2.95411 388.354 3.4431 387.915L1.43989 385.682C1.47567 385.65 1.79175 385.403 2.29076 385.584C2.55226 385.679 2.76603 385.869 2.88911 386.104C3.00481 386.325 3.00332 386.509 2.99599 386.581L0.0112698 386.279ZM386.492 387.368C389.228 392.755 392.422 397.544 395.555 401.062C397.121 402.819 398.698 404.29 400.222 405.358C401.726 406.412 403.293 407.156 404.822 407.289L405.081 404.3C404.299 404.232 403.243 403.812 401.944 402.901C400.666 402.005 399.26 400.711 397.795 399.066C394.868 395.779 391.811 391.216 389.166 386.009L386.492 387.368ZM404.822 407.289C407.363 407.509 409.1 406.593 410.185 405.535C410.709 405.024 411.061 404.5 411.285 404.101C411.398 403.9 411.48 403.727 411.537 403.597C411.565 403.531 411.588 403.476 411.604 403.433C411.612 403.412 411.619 403.393 411.625 403.378C411.627 403.371 411.63 403.364 411.632 403.358C411.633 403.355 411.634 403.352 411.635 403.35C411.635 403.348 411.636 403.346 411.636 403.346L411.637 403.344C411.637 403.344 411.637 403.343 410.218 402.858C408.798 402.373 408.799 402.372 408.799 402.372V402.37L408.8 402.367L408.802 402.363C408.803 402.36 408.804 402.358 408.804 402.356C408.805 402.354 408.805 402.354 408.804 402.356C408.802 402.362 408.796 402.377 408.785 402.401C408.764 402.449 408.727 402.531 408.669 402.633C408.553 402.841 408.365 403.119 408.09 403.387C407.578 403.886 406.682 404.438 405.081 404.3L404.822 407.289ZM409.033 398.087C409.037 398.095 408.992 397.994 409.028 397.765C409.063 397.547 409.155 397.323 409.279 397.153C409.404 396.984 409.507 396.937 409.542 396.927C409.542 396.927 409.629 396.889 409.859 397.017L411.313 394.393C410.47 393.926 409.568 393.799 408.716 394.043C407.897 394.277 407.279 394.809 406.86 395.379C406.442 395.95 406.17 396.627 406.065 397.3C405.961 397.961 406 398.74 406.359 399.446L409.033 398.087ZM416.416 404.042C416.826 404.704 417.35 405.733 417.717 406.736C417.9 407.236 418.03 407.693 418.094 408.07C418.126 408.257 418.139 408.405 418.139 408.515C418.139 408.63 418.126 408.673 418.128 408.667L421.005 409.517C421.201 408.854 421.151 408.145 421.051 407.562C420.946 406.949 420.755 406.31 420.534 405.706C420.093 404.5 419.478 403.287 418.965 402.46L416.416 404.042ZM418.974 407.714C418.977 407.713 418.872 407.756 418.567 407.689C418.271 407.623 417.908 407.477 417.504 407.262C416.697 406.832 415.954 406.249 415.613 405.97L413.716 408.294C414.095 408.604 415.021 409.338 416.093 409.909C416.629 410.195 417.258 410.471 417.915 410.617C418.565 410.762 419.373 410.808 420.16 410.47L418.974 407.714ZM418.759 410.356C419.952 411.119 421.767 411.855 423.495 412.433C425.242 413.017 427.062 413.492 428.332 413.687L428.787 410.721C427.745 410.562 426.101 410.141 424.446 409.588C422.773 409.029 421.247 408.386 420.375 407.828L418.759 410.356ZM428.332 413.687C433.661 414.503 439.322 411.267 442.762 406.484L440.327 404.733C437.31 408.927 432.651 411.313 428.787 410.721L428.332 413.687ZM442.702 404.655L438.242 399.24L435.927 401.147L440.387 406.562L442.702 404.655ZM438.169 399.157C438.032 399.014 437.937 398.801 437.923 398.52C437.908 398.231 437.985 397.936 438.116 397.716C438.246 397.499 438.375 397.435 438.437 397.419C438.471 397.41 438.664 397.365 439.071 397.632L440.719 395.126C439.758 394.493 438.703 394.253 437.689 394.514C436.703 394.767 435.983 395.438 435.541 396.177C434.704 397.577 434.586 399.75 436 401.23L438.169 399.157ZM446.825 402.585C447.172 402.856 447.651 403.284 448.09 403.744C448.554 404.228 448.865 404.635 448.983 404.869L451.658 403.51C451.332 402.867 450.765 402.2 450.258 401.67C449.727 401.115 449.142 400.588 448.671 400.22L446.825 402.585ZM449.237 401.586C449.26 401.393 449.278 401.192 449.294 401.016C449.311 400.831 449.326 400.663 449.346 400.496C449.386 400.159 449.437 399.895 449.514 399.681C449.586 399.478 449.671 399.35 449.764 399.261C449.852 399.176 450.013 399.063 450.338 398.982L449.613 396.071C448.842 396.263 448.198 396.607 447.688 397.095C447.184 397.578 446.878 398.14 446.688 398.673C446.351 399.617 446.311 400.801 446.259 401.219L449.237 401.586ZM454.079 402.181C454.769 403.762 455.776 406.734 456.474 408.901L459.329 407.981C458.637 405.832 457.588 402.721 456.829 400.982L454.079 402.181ZM457.828 407.779C455.739 406.536 453.388 405.76 452.226 405.375L451.282 408.223C452.464 408.615 454.521 409.302 456.293 410.357L457.828 407.779ZM411.971 398.779C413.68 400.493 415.516 402.816 416.479 404.135L418.902 402.367C417.893 400.983 415.955 398.526 414.095 396.66L411.971 398.779ZM414.52 397.524C414.159 394.771 412.514 387.978 408.723 382.31L406.229 383.977C409.693 389.155 411.225 395.47 411.546 397.915L414.52 397.524ZM439.071 397.632C440.157 398.346 441.456 399.107 442.704 399.86L444.253 397.291C442.952 396.506 441.741 395.797 440.719 395.126L439.071 397.632ZM442.704 399.86C444.197 400.76 445.647 401.665 446.825 402.585L448.671 400.22C447.336 399.178 445.746 398.19 444.253 397.291L442.704 399.86ZM444.897 398.087C444.016 395.526 442.407 391.376 440.428 387.193C438.464 383.042 436.073 378.723 433.604 375.928L431.355 377.914C433.53 380.376 435.774 384.371 437.716 388.476C439.643 392.549 441.211 396.597 442.061 399.064L444.897 398.087ZM439.017 364.247C441.327 366.49 446.363 372.022 448.434 376.428L451.149 375.152C448.833 370.223 443.455 364.375 441.107 362.095L439.017 364.247ZM450.338 398.982C450.519 398.937 450.797 398.949 451.26 399.196C451.735 399.448 452.26 399.873 452.847 400.43L454.913 398.255C454.268 397.642 453.508 396.994 452.671 396.548C451.822 396.096 450.764 395.784 449.613 396.071L450.338 398.982ZM454.47 394.397C454.308 397.207 453.182 398.014 453.201 398.005L454.559 400.68C455.819 400.04 457.266 398.021 457.465 394.569L454.47 394.397ZM449.025 377.703C450.336 380.573 451.762 383.967 452.83 387.078C453.365 388.634 453.803 390.098 454.093 391.377C454.389 392.678 454.51 393.697 454.47 394.397L457.465 394.569C457.529 393.452 457.336 392.111 457.019 390.713C456.697 389.293 456.223 387.72 455.668 386.103C454.556 382.869 453.089 379.379 451.754 376.457L449.025 377.703ZM449.25 378.055C450.109 379.059 451.469 380.611 452.759 382.009C453.403 382.708 454.039 383.377 454.591 383.924C455.11 384.439 455.65 384.941 456.074 385.22L457.721 382.713C457.584 382.622 457.243 382.328 456.702 381.793C456.195 381.291 455.593 380.658 454.964 379.975C453.705 378.611 452.371 377.089 451.529 376.105L449.25 378.055ZM456.074 385.22C456.842 385.725 458.122 386.435 459.222 386.876C459.73 387.08 460.388 387.306 460.981 387.325C461.252 387.334 461.845 387.314 462.353 386.88C462.974 386.347 463.012 385.618 462.932 385.165L459.978 385.69C459.95 385.532 459.929 385.006 460.401 384.602C460.59 384.44 460.778 384.375 460.886 384.35C460.993 384.324 461.064 384.326 461.076 384.327C461.093 384.327 461.036 384.326 460.88 384.282C460.736 384.241 460.554 384.178 460.339 384.092C459.459 383.739 458.356 383.129 457.721 382.713L456.074 385.22ZM462.932 385.165C462.8 384.423 462.441 383.349 462.065 382.392C461.689 381.439 461.217 380.4 460.795 379.766L458.297 381.428C458.533 381.782 458.911 382.57 459.273 383.491C459.634 384.407 459.901 385.254 459.978 385.69L462.932 385.165ZM460.795 379.766C460.447 379.243 459.492 377.874 458.464 376.582C457.951 375.937 457.399 375.284 456.881 374.759C456.623 374.497 456.351 374.244 456.08 374.035C455.835 373.846 455.476 373.601 455.052 373.479L454.226 376.363C454.098 376.327 454.094 376.292 454.246 376.409C454.372 376.506 454.539 376.657 454.745 376.865C455.155 377.281 455.632 377.841 456.116 378.449C457.081 379.662 457.987 380.961 458.297 381.428L460.795 379.766ZM455.052 373.479C454.853 373.422 454.324 373.248 453.835 373.137C453.323 373.02 452.641 372.914 451.934 373.012C451.186 373.115 450.387 373.455 449.785 374.221C449.212 374.951 448.947 375.907 448.891 377.004L451.887 377.156C451.925 376.418 452.089 376.145 452.146 376.073C452.173 376.038 452.203 376.003 452.346 375.983C452.53 375.958 452.802 375.978 453.168 376.062C453.558 376.151 453.833 376.251 454.226 376.363L455.052 373.479ZM456.136 374.832C455.838 369.804 455.725 363.056 452.974 355.633L450.161 356.675C452.726 363.596 452.836 369.857 453.142 375.01L456.136 374.832ZM406.342 399.412C407.052 400.901 407.949 402.381 409.033 403.778L411.403 401.938C410.456 400.718 409.671 399.423 409.05 398.121L406.342 399.412ZM409.033 403.778C410.328 405.447 411.896 407.002 413.737 408.307L415.472 405.86C413.893 404.74 412.534 403.396 411.403 401.938L409.033 403.778ZM456.474 408.901C456.309 408.391 456.582 407.981 456.807 407.815C457.022 407.657 457.427 407.541 457.828 407.779L456.293 410.357C457.115 410.846 458.016 410.65 458.584 410.232C459.162 409.808 459.644 408.958 459.329 407.981L456.474 408.901ZM451.266 410.245C452.956 410.777 454.453 409.012 453.65 407.432L450.975 408.79C450.574 408 451.323 407.117 452.168 407.383L451.266 410.245ZM400.456 33.3445C401.375 48.8887 402.114 83.0526 403.287 116.668C404.456 150.174 406.057 183.253 408.73 196.373L411.67 195.774C409.06 182.962 407.459 150.2 406.285 116.563C405.115 83.0356 404.373 48.7565 403.45 33.1673L400.456 33.3445ZM408.73 196.373C411.363 209.298 412.654 219.92 412.196 228.429C411.739 236.927 409.546 243.152 405.371 247.482L407.53 249.565C412.389 244.526 414.712 237.492 415.192 228.59C415.671 219.698 414.319 208.78 411.67 195.774L408.73 196.373ZM405.371 247.482C398.082 255.04 388.673 266.84 384.884 271.785L387.266 273.609C391.039 268.684 400.364 256.996 407.53 249.565L405.371 247.482ZM384.649 273.162C386.124 277.686 390.724 289.494 397.438 300.913L400.024 299.393C393.438 288.191 388.921 276.587 387.501 272.232L384.649 273.162ZM397.438 300.913C405.856 315.23 419.961 330.662 431.56 340.802L433.535 338.543C422.095 328.543 408.231 313.352 400.024 299.393L397.438 300.913ZM368.711 328.612L368.701 328.586L365.892 329.638L365.902 329.664L368.711 328.612ZM368.701 328.584C366.366 322.371 361.717 313.102 356.223 303.841C350.73 294.582 344.327 285.222 338.455 278.864L336.252 280.899C341.916 287.032 348.194 296.188 353.643 305.372C359.09 314.554 363.644 323.655 365.893 329.639L368.701 328.584ZM431.56 340.802C434.117 343.037 436.746 344.855 439.223 346.517C441.724 348.195 444.025 349.686 446.065 351.331L447.948 348.996C445.777 347.246 443.329 345.66 440.894 344.026C438.434 342.375 435.939 340.645 433.535 338.543L431.56 340.802ZM383.588 373.375C380.069 364.273 377.024 354.883 374.522 346.868C372.035 338.899 370.058 332.196 368.711 328.611L365.903 329.666C367.21 333.145 369.137 339.683 371.658 347.761C374.165 355.794 377.234 365.26 380.79 374.457L383.588 373.375ZM389.144 385.967C386.144 380.503 385.722 378.893 383.588 373.375L380.79 374.457C382.903 379.922 383.398 381.736 386.514 387.411L389.144 385.967ZM448.983 404.869L450.975 408.79L453.65 407.432L451.658 403.51L448.983 404.869ZM452.168 407.383L441.995 404.178L441.094 407.039L451.266 410.245L452.168 407.383ZM409.633 396.863L412.08 398.878L413.986 396.561L411.539 394.547L409.633 396.863ZM452.653 400.205L454.227 402.444L456.681 400.719L455.107 398.48L452.653 400.205ZM448.431 376.42L449.028 377.711L451.75 376.449L451.153 375.159L448.431 376.42ZM446.118 351.371C446.988 352.012 449.117 354.059 450.175 356.71L452.961 355.598C451.64 352.285 449.076 349.824 447.896 348.955L446.118 351.371ZM185.313 265.756C172.945 247.498 148.408 199.792 160.978 120.491L158.015 120.022C145.307 200.193 170.106 248.657 182.83 267.439L185.313 265.756ZM338.455 278.864C330.905 270.689 330.648 270.83 326.13 264.531L323.692 266.279C328.346 272.768 328.767 272.796 336.252 280.899L338.455 278.864ZM325.904 266.529C338.486 255.414 349.342 245.407 356.25 224.746C363.12 204.2 366.058 173.219 363.308 120.179L360.312 120.334C363.058 173.291 360.089 203.805 353.405 223.795C346.76 243.669 336.419 253.237 323.918 264.281L325.904 266.529ZM183.008 267.655C187.084 271.75 191.284 273.782 197.776 274.973C204.143 276.141 212.87 276.524 226.003 277.29L226.178 274.295C212.908 273.521 204.448 273.147 198.317 272.023C192.312 270.921 188.704 269.125 185.135 265.539L183.008 267.655ZM224.66 275.34C217.109 299.212 219.557 315.222 219.925 339.61C220.293 364.022 218.631 397.317 203.009 456.285L205.909 457.053C221.6 397.825 223.297 364.256 222.925 339.565C222.552 314.852 220.158 299.521 227.521 276.245L224.66 275.34ZM226.003 277.29C239.303 278.066 253.264 279.118 272.187 278.178L272.038 275.182C253.305 276.112 239.51 275.073 226.178 274.295L226.003 277.29ZM272.187 278.178C287.842 277.401 296.255 277.396 303.15 276.16C310.181 274.899 315.677 272.363 325.65 266.71L324.171 264.1C314.253 269.722 309.126 272.04 302.62 273.207C295.977 274.398 287.937 274.392 272.038 275.182L272.187 278.178ZM210.63 459.929C234.333 424.683 243.018 388.731 249.306 356.778C252.457 340.768 254.99 325.85 258.499 312.42C262.003 299.007 266.446 287.232 273.335 277.55L270.891 275.81C263.697 285.92 259.141 298.095 255.596 311.662C252.056 325.211 249.491 340.301 246.363 356.199C240.092 388.062 231.496 423.525 208.14 458.255L210.63 459.929ZM399.076 0.286224C399.264 9.59027 399.669 20.0481 400.456 33.3445L403.45 33.1673C402.666 19.9041 402.262 9.48552 402.075 0.225586L399.076 0.286224ZM203.009 456.285C202.394 458.604 203.542 460.594 205.25 461.441C206.983 462.301 209.262 461.963 210.63 459.929L208.14 458.255C207.672 458.952 207.066 458.993 206.584 458.754C206.077 458.502 205.68 457.915 205.909 457.053L203.009 456.285Z" fill="black"/>
</g>
<defs>
<clipPath id="clip0_79_3411">
<rect width="500" height="463" fill="white" transform="translate(0 0.5)"/>
</clipPath>
</defs>
</svg>
