<svg width="500" height="797" viewBox="0 0 500 797" fill="none" xmlns="http://www.w3.org/2000/svg">
<g clip-path="url(#clip0_79_3407)">
<path d="M285.974 151.548C285.371 150.981 284.422 151.01 283.854 151.614C283.287 152.217 283.316 153.167 283.92 153.734L285.974 151.548ZM347.436 152.641L347.584 151.149L347.544 151.145L347.504 151.143L347.436 152.641ZM359.929 208.509L359.711 209.993L359.755 209.999L359.799 210.003L359.929 208.509ZM273.694 263.901C273.036 264.404 272.911 265.345 273.414 266.003C273.917 266.661 274.858 266.787 275.516 266.284L273.694 263.901ZM316.269 293.008C315.459 293.179 314.94 293.975 315.112 294.785C315.283 295.596 316.078 296.114 316.889 295.943L316.269 293.008ZM172.328 265.092L171.328 266.21L171.335 266.216L171.342 266.223L172.328 265.092ZM295.264 43.2929C295.962 42.848 296.168 41.9208 295.723 41.222C295.278 40.5232 294.351 40.3175 293.652 40.7625L295.264 43.2929ZM312.729 78.0761C312.686 77.2488 311.98 76.6137 311.152 76.6575C310.325 76.7012 309.69 77.4073 309.734 78.2346L312.729 78.0761ZM195.563 341.729V340.229H195.523L195.484 340.231L195.563 341.729ZM218.807 337.165C219.636 337.165 220.307 336.494 220.307 335.665C220.307 334.837 219.636 334.165 218.807 334.165V337.165ZM229.327 324.496C230.077 324.142 230.397 323.248 230.043 322.499C229.69 321.75 228.796 321.429 228.047 321.783L229.327 324.496ZM135.337 503.863C135.459 504.682 136.222 505.248 137.042 505.126C137.861 505.004 138.426 504.241 138.304 503.421L135.337 503.863ZM136.282 499.964L134.792 500.133L134.795 500.157L134.798 500.181L136.282 499.964ZM145.489 505.025L146.949 504.683L146.947 504.673L145.489 505.025ZM144.449 500.718L142.962 500.917L142.973 500.994L142.991 501.07L144.449 500.718ZM147.343 509.457L148.64 508.704L148.639 508.703L147.343 509.457ZM148.188 471.426C148.258 470.601 147.646 469.875 146.821 469.805C145.995 469.735 145.269 470.348 145.199 471.173L148.188 471.426ZM154.106 501.044L152.729 500.449L152.708 500.498L152.691 500.548L154.106 501.044ZM172.96 479.143L171.46 479.121L171.46 479.132V479.143H172.96ZM170.232 472.323L168.938 471.564L168.897 471.633L168.864 471.706L170.232 472.323ZM182.85 441.972L184.295 441.571L184.286 441.54L184.276 441.509L182.85 441.972ZM167.978 455.022C168.028 454.195 167.399 453.484 166.572 453.434C165.745 453.383 165.034 454.013 164.983 454.84L167.978 455.022ZM134.53 468.493C134.675 467.678 134.131 466.899 133.315 466.754C132.5 466.609 131.721 467.152 131.576 467.968L134.53 468.493ZM300.156 153.317C299.327 153.317 298.656 153.988 298.656 154.817C298.656 155.645 299.327 156.317 300.156 156.317V153.317ZM348.661 483.003L350.161 483.041V483.003H348.661ZM355.541 491.528L357.035 491.4L357.03 491.344L357.021 491.289L355.541 491.528ZM351.085 493.618L352.457 493.011V493.01L351.085 493.618ZM351.054 493.547L352.425 492.939L352.405 492.893L352.381 492.849L351.054 493.547ZM374.217 497.585L375.681 497.259L375.669 497.205L375.653 497.153L374.217 497.585ZM388.007 514.544L386.739 515.346H386.74L388.007 514.544ZM357.03 468.796C356.931 467.973 356.184 467.387 355.362 467.485C354.539 467.584 353.953 468.331 354.051 469.154L357.03 468.796ZM382.103 474.374C381.895 473.572 381.076 473.091 380.274 473.298C379.472 473.506 378.991 474.325 379.199 475.127L382.103 474.374ZM395.057 465.439C394.788 464.656 393.935 464.238 393.152 464.506C392.368 464.775 391.951 465.628 392.219 466.412L395.057 465.439ZM396.547 378.096L397.986 377.673L397.973 377.629L397.957 377.585L396.547 378.096ZM119.174 371.15L120.203 372.241L120.217 372.228L120.231 372.214L119.174 371.15ZM226.32 171.618C225.499 171.504 224.742 172.077 224.628 172.898C224.514 173.719 225.087 174.476 225.908 174.59L226.32 171.618ZM256.638 163.15C257.072 162.444 256.85 161.521 256.144 161.087C255.438 160.654 254.515 160.875 254.081 161.582L256.638 163.15ZM176.565 165.839C179.652 161.98 187.68 154.095 191.846 150.174L189.79 147.99C185.648 151.887 177.463 159.914 174.222 163.965L176.565 165.839ZM191.846 150.174C199.452 143.017 203.558 139.61 215.216 133.814L213.88 131.128C201.906 137.081 197.563 140.675 189.79 147.99L191.846 150.174ZM215.216 133.814C224.776 129.06 234.016 127.646 248.917 128.038L248.996 125.039C233.839 124.64 224.05 126.071 213.88 131.128L215.216 133.814ZM294.835 153.514C290.946 153.514 288.907 153.145 287.778 152.746C286.75 152.383 286.467 152.011 285.974 151.548L283.92 153.734C284.37 154.158 285.076 154.973 286.778 155.574C288.379 156.14 290.813 156.514 294.835 156.514V153.514ZM346.395 154.141H347.436V151.141H346.395V154.141ZM347.504 151.143C347.149 151.127 346.756 151.126 346.335 151.142L346.455 154.14C346.798 154.126 347.105 154.128 347.368 154.14L347.504 151.143ZM346.335 151.142C344.379 151.22 342.351 152.044 340.383 153.157C338.394 154.282 336.321 155.787 334.256 157.388L336.095 159.759C338.131 158.18 340.065 156.783 341.86 155.769C343.675 154.742 345.206 154.19 346.455 154.14L346.335 151.142ZM334.256 157.388C330.865 160.018 328.639 162.23 327.491 164.72C326.311 167.279 326.37 169.905 326.979 173.093L329.925 172.53C329.363 169.584 329.421 167.699 330.215 165.976C331.041 164.184 332.762 162.343 336.095 159.759L334.256 157.388ZM326.979 173.093C328.004 178.459 332.249 181.969 336.838 183.459L337.765 180.605C333.889 179.347 330.688 176.521 329.925 172.53L326.979 173.093ZM351.402 178.619C351.444 178.155 351.425 177.409 351.416 176.721C351.406 175.971 351.402 175.143 351.45 174.343C351.498 173.529 351.597 172.833 351.758 172.327C351.935 171.771 352.082 171.766 351.978 171.813L350.736 169.082C349.66 169.571 349.156 170.611 348.899 171.418C348.626 172.275 348.509 173.261 348.455 174.164C348.4 175.082 348.407 176.006 348.417 176.761C348.427 177.576 348.438 178.086 348.414 178.347L351.402 178.619ZM351.978 171.813C352.108 171.754 352.547 171.698 353.403 172.34C354.188 172.928 354.954 173.853 355.449 174.737L358.067 173.271C357.401 172.084 356.374 170.818 355.203 169.939C354.102 169.114 352.421 168.316 350.736 169.082L351.978 171.813ZM355.449 174.737C356.177 176.036 356.18 177.262 356.18 177.693H359.18C359.18 177.136 359.183 175.264 358.067 173.271L355.449 174.737ZM356.18 177.693C356.18 177.565 356.252 177.542 356.145 177.65C356.022 177.773 355.785 177.938 355.398 178.122C354.623 178.49 353.634 178.757 352.787 178.982L353.558 181.881C354.351 181.671 355.616 181.339 356.684 180.832C357.219 180.578 357.802 180.237 358.268 179.769C358.75 179.287 359.18 178.591 359.18 177.693H356.18ZM352.787 178.982L352.684 179.009L353.455 181.909L353.558 181.881L352.787 178.982ZM341.631 182.924C340.583 183.996 340.583 183.997 340.583 183.997L340.585 183.999C340.585 183.999 340.587 184.001 340.589 184.002C340.592 184.005 340.596 184.01 340.602 184.015C340.613 184.026 340.628 184.04 340.648 184.059C340.687 184.097 340.745 184.152 340.818 184.22C340.964 184.358 341.176 184.553 341.443 184.79C341.975 185.263 342.731 185.908 343.629 186.597C345.391 187.95 347.83 189.576 350.257 190.323L351.14 187.456C349.24 186.871 347.146 185.515 345.456 184.218C344.627 183.582 343.928 182.985 343.436 182.548C343.191 182.329 342.998 182.152 342.869 182.031C342.804 181.97 342.755 181.923 342.723 181.893C342.707 181.878 342.695 181.866 342.688 181.859C342.684 181.856 342.682 181.853 342.68 181.852L342.679 181.851C342.679 181.851 342.68 181.851 341.631 182.924ZM371.145 180.65C370.49 179.323 369.738 178.319 369.213 177.595C368.937 177.216 368.755 176.956 368.633 176.741C368.51 176.523 368.526 176.481 368.53 176.546L365.536 176.731C365.573 177.325 365.804 177.833 366.022 178.218C366.241 178.605 366.525 178.999 366.785 179.358C367.332 180.111 367.93 180.916 368.454 181.978L371.145 180.65ZM368.533 168.471C368.533 168.247 368.599 168.709 368.073 169.003C367.829 169.138 367.597 169.147 367.456 169.127C367.325 169.11 367.256 169.068 367.251 169.065C367.244 169.061 367.319 169.112 367.397 169.248C367.468 169.373 367.509 169.516 367.509 169.657H370.509C370.509 168.267 369.735 167.056 368.792 166.491C368.346 166.224 367.481 165.898 366.611 166.383C365.714 166.883 365.533 167.84 365.533 168.471H368.533ZM368.53 176.546C368.481 175.751 368.461 175.487 368.45 175.349C368.443 175.258 368.444 175.287 368.435 175.013L365.436 175.109C365.445 175.388 365.446 175.418 365.459 175.582C365.468 175.701 365.488 175.949 365.536 176.731L368.53 176.546ZM368.435 175.013C368.358 172.583 368.533 170.065 368.533 168.471H365.533C365.533 169.664 365.36 172.72 365.436 175.109L368.435 175.013ZM367.509 169.657C367.509 171.688 366.502 172.862 365.648 174.292L368.223 175.83C368.84 174.799 370.509 172.733 370.509 169.657H367.509ZM366.815 176.556C367.441 176.607 368.127 176.408 368.662 176.21C369.258 175.99 369.912 175.675 370.555 175.3L369.045 172.708C368.525 173.011 368.027 173.247 367.621 173.397C367.418 173.472 367.256 173.519 367.139 173.544C367.007 173.573 366.991 173.561 367.056 173.566L366.815 176.556ZM370.555 175.3C371.67 174.651 372.423 173.734 372.866 172.521C373.283 171.378 373.407 170.017 373.407 168.471H370.407C370.407 169.913 370.282 170.85 370.048 171.492C369.839 172.065 369.538 172.42 369.045 172.708L370.555 175.3ZM373.407 168.471C373.407 166.663 372.339 160.094 366.325 155.791L364.58 158.231C369.556 161.791 370.407 167.276 370.407 168.471H373.407ZM366.325 155.791C364.527 154.505 363.415 153.607 360.862 152.938C358.47 152.311 354.737 151.858 347.584 151.149L347.288 154.134C354.525 154.851 357.989 155.287 360.102 155.84C362.054 156.352 362.755 156.926 364.58 158.231L366.325 155.791ZM350.257 190.323C353.529 191.331 358.317 191.803 361.762 191.96L361.899 188.963C358.502 188.808 354.031 188.346 351.14 187.456L350.257 190.323ZM361.762 191.96C363.435 192.036 364.863 191.834 365.903 191.506L365.002 188.645C364.344 188.852 363.273 189.026 361.899 188.963L361.762 191.96ZM360.337 190.604C360.523 192.545 360.668 196.247 360.46 199.809C360.357 201.589 360.167 203.292 359.864 204.704C359.549 206.174 359.155 207.103 358.786 207.537L361.072 209.48C361.948 208.448 362.463 206.892 362.797 205.333C363.144 203.715 363.347 201.845 363.455 199.983C363.672 196.26 363.523 192.404 363.324 190.319L360.337 190.604ZM359.799 210.003C360.614 210.074 361.946 210.232 363.256 210.475C364.625 210.728 365.76 211.037 366.321 211.34L367.746 208.7C366.726 208.149 365.163 207.777 363.802 207.525C362.383 207.262 360.953 207.092 360.058 207.014L359.799 210.003ZM368.109 211.066C369.757 209.371 370.938 207.019 371.259 205.655L368.34 204.966C368.149 205.772 367.249 207.646 365.958 208.974L368.109 211.066ZM365.903 191.506C367.041 191.147 368.086 190.631 368.997 189.834C369.91 189.035 370.621 188.014 371.175 186.74L368.424 185.543C368.015 186.484 367.545 187.118 367.021 187.576C366.496 188.035 365.848 188.378 365.002 188.645L365.903 191.506ZM371.175 186.74C372.054 184.719 371.921 182.224 371.145 180.65L368.454 181.978C368.831 182.741 368.96 184.312 368.424 185.543L371.175 186.74ZM371.259 205.655C372.101 202.09 372.788 198.179 371.288 185.959L368.311 186.324C369.78 198.298 369.079 201.836 368.34 204.966L371.259 205.655ZM360.147 207.024C357.644 206.657 351.647 207.02 346.497 211.156L348.375 213.495C352.744 209.987 357.851 209.72 359.711 209.993L360.147 207.024ZM346.497 211.156C340.273 216.153 333.708 224.718 319.447 230.253L320.532 233.05C335.368 227.292 342.701 218.051 348.375 213.495L346.497 211.156ZM319.447 230.253C304.971 235.87 297.485 237.787 288.508 239.069L288.932 242.039C298.196 240.716 305.909 238.724 320.532 233.05L319.447 230.253ZM288.508 239.069C284.051 239.706 279.576 240.159 276.127 240.789C274.385 241.107 272.793 241.487 271.496 241.999C270.235 242.497 269.024 243.206 268.333 244.328L270.888 245.901C271.066 245.611 271.538 245.208 272.598 244.79C273.622 244.385 274.989 244.046 276.666 243.74C280.058 243.121 284.269 242.706 288.932 242.039L288.508 239.069ZM268.333 244.328C267.882 245.061 267.427 245.866 267.075 246.637C266.744 247.363 266.424 248.231 266.401 249.036C266.39 249.455 266.454 250.002 266.784 250.507C267.141 251.054 267.683 251.357 268.246 251.471C269.207 251.664 270.345 251.333 271.505 250.836L270.323 248.079C269.806 248.3 269.424 248.423 269.154 248.483C268.87 248.546 268.791 248.52 268.838 248.53C268.93 248.548 269.144 248.634 269.295 248.866C269.419 249.055 269.398 249.188 269.4 249.119C269.405 248.947 269.505 248.539 269.805 247.881C270.085 247.267 270.471 246.579 270.888 245.901L268.333 244.328ZM271.505 250.836C275.219 249.244 285.022 244.188 289.417 241.883L288.023 239.226C283.587 241.553 273.904 246.544 270.323 248.079L271.505 250.836ZM365.545 209.83C365.158 212.866 364.332 217.516 362.872 222.255C361.405 227.02 359.338 231.737 356.539 235.021L358.822 236.967C362.011 233.226 364.225 228.054 365.74 223.138C367.262 218.196 368.118 213.371 368.521 210.21L365.545 209.83ZM330.069 251.472C323.223 253.085 314.81 254.434 307.584 255.492C300.444 256.538 294.329 257.315 292.303 257.765L292.954 260.693C294.837 260.275 300.701 259.532 308.019 258.46C315.252 257.401 323.776 256.036 330.757 254.392L330.069 251.472ZM292.303 257.765C290.367 258.195 286.734 258.966 283.128 259.984C281.323 260.494 279.5 261.073 277.879 261.712C276.279 262.343 274.783 263.068 273.694 263.901L275.516 266.284C276.274 265.705 277.464 265.1 278.979 264.503C280.473 263.914 282.192 263.366 283.943 262.871C287.448 261.881 290.982 261.132 292.954 260.693L292.303 257.765ZM328.946 252.618C328.981 252.454 329.017 252.461 328.827 252.766C328.68 253.003 328.458 253.324 328.162 253.72C327.572 254.508 326.731 255.535 325.705 256.682C323.649 258.978 320.905 261.695 318.035 263.903L319.865 266.281C322.922 263.929 325.8 261.072 327.94 258.682C329.011 257.486 329.911 256.39 330.564 255.517C330.89 255.081 331.166 254.686 331.375 254.35C331.541 254.083 331.79 253.663 331.879 253.246L328.946 252.618ZM318.035 263.903C311.336 269.058 305.962 271.075 297.895 274.573L299.088 277.326C307.046 273.875 312.808 271.71 319.865 266.281L318.035 263.903ZM297.895 274.573C290.743 277.675 280.231 280.489 272.524 282.307L273.212 285.227C280.932 283.406 291.671 280.542 299.088 277.326L297.895 274.573ZM272.524 282.307C258.376 285.644 234.28 292.313 225.568 294.698L226.36 297.591C235.104 295.198 259.131 288.549 273.212 285.227L272.524 282.307ZM225.568 294.698C223.065 295.383 216.612 297.239 210.178 299.529C206.962 300.674 203.726 301.936 200.98 303.222C198.286 304.484 195.888 305.849 194.499 307.248L196.627 309.362C197.611 308.371 199.578 307.192 202.253 305.939C204.877 304.709 208.013 303.484 211.184 302.356C217.523 300.1 223.898 298.265 226.36 297.591L225.568 294.698ZM356.539 235.021C352.615 239.624 349.902 242.387 347.033 244.438C344.177 246.481 341.09 247.872 336.327 249.616L337.359 252.433C342.195 250.662 345.587 249.161 348.778 246.879C351.958 244.605 354.865 241.61 358.822 236.967L356.539 235.021ZM336.327 249.616C334.43 250.311 332.357 250.933 330.069 251.472L330.757 254.392C333.153 253.827 335.341 253.172 337.359 252.433L336.327 249.616ZM335.405 251.452C335.781 252.714 336.304 254.693 336.651 256.51C336.825 257.421 336.948 258.256 336.992 258.923C337.014 259.256 337.014 259.519 336.999 259.711C336.982 259.924 336.952 259.957 336.981 259.895L339.698 261.169C339.89 260.759 339.96 260.316 339.989 259.95C340.02 259.564 340.013 259.146 339.986 258.726C339.93 257.885 339.783 256.915 339.598 255.947C339.227 254.005 338.676 251.925 338.281 250.597L335.405 251.452ZM336.981 259.895C336.319 261.309 334.877 263.509 325.948 271.348L327.928 273.602C336.806 265.807 338.732 263.229 339.698 261.169L336.981 259.895ZM325.948 271.348C317.165 279.06 303.049 288.081 289.362 292.323L290.25 295.189C304.427 290.795 318.905 281.525 327.928 273.602L325.948 271.348ZM289.362 292.323C283.031 294.285 274.762 295.983 267.227 297.399C259.767 298.802 252.936 299.943 249.696 300.771L250.439 303.678C253.555 302.881 260.172 301.778 267.781 300.348C275.315 298.931 283.737 297.207 290.25 295.189L289.362 292.323ZM249.696 300.771C244.59 302.076 237.123 303.712 229.468 305.619C221.952 307.491 214.413 309.588 209.711 311.715L210.948 314.449C215.365 312.45 222.646 310.41 230.193 308.53C237.603 306.684 245.445 304.954 250.439 303.678L249.696 300.771ZM209.711 311.715C202.387 315.028 196.768 317.896 194.852 318.927L196.274 321.569C198.122 320.573 203.679 317.737 210.948 314.449L209.711 311.715ZM336.84 260.486C336.723 264.29 335.927 273.229 333.774 278.891L336.578 279.957C338.918 273.806 339.719 264.447 339.839 260.578L336.84 260.486ZM333.774 278.891C332.536 282.143 329.06 285.508 325.234 288.226C323.357 289.559 321.463 290.689 319.841 291.525C318.182 292.38 316.916 292.871 316.269 293.008L316.889 295.943C317.947 295.72 319.507 295.072 321.216 294.192C322.962 293.292 324.977 292.088 326.972 290.671C330.889 287.889 335.006 284.088 336.578 279.957L333.774 278.891ZM333.903 280.219C336.915 285.039 343.511 296.931 345.988 306.091L348.884 305.307C346.287 295.706 339.496 283.508 336.448 278.629L333.903 280.219ZM345.988 306.091C347.551 311.869 347.896 315.064 348.605 319.061C349.317 323.08 350.37 327.718 353.317 336.16L356.149 335.171C353.251 326.866 352.241 322.384 351.559 318.538C350.873 314.67 350.493 311.255 348.884 305.307L345.988 306.091ZM353.317 336.16C354.304 338.988 356.573 343.075 359.003 346.664C360.226 348.471 361.517 350.191 362.743 351.596C363.936 352.965 365.178 354.163 366.31 354.786L367.756 352.157C367.113 351.803 366.16 350.95 365.003 349.624C363.879 348.336 362.663 346.719 361.487 344.982C359.117 341.481 357.012 337.642 356.149 335.171L353.317 336.16ZM174.212 163.978C172.32 166.398 169.406 170.551 166.761 175.207C164.132 179.835 161.691 185.095 160.863 189.693L163.816 190.224C164.551 186.137 166.787 181.235 169.37 176.689C171.936 172.171 174.767 168.139 176.575 165.826L174.212 163.978ZM160.863 189.693C158.875 200.74 159.313 218.511 160.864 226.929L163.814 226.385C162.325 218.299 161.895 200.892 163.816 190.224L160.863 189.693ZM160.864 226.929C161.629 231.083 163.366 239.47 165.296 247.449C166.261 251.438 167.279 255.342 168.252 258.572C169.205 261.74 170.166 264.437 171.05 265.877L173.606 264.307C172.958 263.25 172.093 260.926 171.124 257.707C170.174 254.552 169.171 250.707 168.212 246.743C166.294 238.816 164.569 230.483 163.814 226.385L160.864 226.929ZM174.715 163.564C171.308 165.292 163.251 170.178 158.37 175.963L160.663 177.897C165.163 172.564 172.803 167.897 176.072 166.239L174.715 163.564ZM158.37 175.963C155.249 179.661 152.625 185.529 150.788 191.207C148.948 196.891 147.81 202.653 147.81 206.245H150.81C150.81 203.105 151.844 197.684 153.642 192.131C155.441 186.571 157.92 181.147 160.663 177.897L158.37 175.963ZM147.81 206.245C147.81 209.712 148.418 217.227 149.508 224.992C150.592 232.721 152.186 240.94 154.229 245.705L156.986 244.524C155.12 240.169 153.565 232.319 152.478 224.575C151.397 216.869 150.81 209.51 150.81 206.245H147.81ZM154.229 245.705C158.292 255.186 163.132 258.876 171.328 266.21L173.328 263.974C165.021 256.542 160.741 253.284 156.986 244.524L154.229 245.705ZM171.342 266.223C172.718 267.422 174.949 269.514 177.131 271.858C179.333 274.223 181.395 276.75 182.516 278.832L185.158 277.41C183.847 274.975 181.566 272.219 179.327 269.814C177.068 267.387 174.761 265.223 173.314 263.961L171.342 266.223ZM182.516 278.832C184.019 281.623 186.93 287.391 189.461 293.314C190.726 296.275 191.887 299.254 192.729 301.905C193.582 304.594 194.063 306.811 194.063 308.305H197.063C197.063 306.324 196.458 303.737 195.588 300.997C194.706 298.22 193.505 295.145 192.219 292.135C189.647 286.115 186.695 280.265 185.158 277.41L182.516 278.832ZM194.063 308.305V320.248H197.063V308.305H194.063ZM194.064 320.198C193.995 322.26 193.539 325.679 192.971 328.937C192.397 332.229 191.747 335.131 191.336 336.222L194.144 337.28C194.67 335.883 195.359 332.705 195.926 329.453C196.499 326.167 196.986 322.578 197.062 320.298L194.064 320.198ZM160.078 346.435C155.761 344.692 153.154 343.268 151.064 341.002C148.947 338.707 147.249 335.424 145.066 329.702L142.263 330.771C144.464 336.541 146.327 340.291 148.858 343.036C151.416 345.81 154.542 347.435 158.955 349.217L160.078 346.435ZM145.066 329.702C141.917 321.449 139.725 315.37 137.878 310.78C136.027 306.18 134.457 302.905 132.493 300.247L130.081 302.03C131.808 304.367 133.263 307.347 135.095 311.9C136.931 316.463 139.083 322.436 142.263 330.771L145.066 329.702ZM132.493 300.247C128.823 295.281 124.101 287.806 124.101 279.424H121.101C121.101 288.848 126.368 297.007 130.081 302.03L132.493 300.247ZM124.101 279.424C124.101 270.546 124.983 261.782 128.675 255.422L126.081 253.916C121.956 261.019 121.101 270.496 121.101 279.424H124.101ZM128.675 255.422C130.552 252.191 133.189 249.304 135.735 246.169C138.207 243.127 140.591 239.848 141.436 236.108L138.51 235.447C137.834 238.438 135.876 241.239 133.407 244.277C131.014 247.223 128.114 250.416 126.081 253.916L128.675 255.422ZM141.436 236.108C143.024 229.073 142.727 219.777 150.587 207.032L148.033 205.458C139.824 218.77 139.961 229.018 138.51 235.447L141.436 236.108ZM248.917 128.038C251.883 128.116 254.749 128.209 257.503 128.345L257.651 125.349C254.864 125.211 251.972 125.117 248.996 125.039L248.917 128.038ZM257.503 128.345C268.756 128.9 277.885 130.163 284.203 133.773L285.691 131.168C278.683 127.163 268.883 125.902 257.651 125.349L257.503 128.345ZM259.021 127.251C260.598 121.614 263.892 108.393 264.219 101.198L261.222 101.062C260.913 107.864 257.72 120.767 256.132 126.443L259.021 127.251ZM264.219 101.198C264.619 92.39 265.285 79.0879 268.126 70.1693L265.268 69.2586C262.282 78.6328 261.617 92.372 261.222 101.062L264.219 101.198ZM268.126 70.1693C269.578 65.6111 272.604 56.4709 276.025 47.4978C277.735 43.0106 279.539 38.5813 281.289 34.7947C283.052 30.9793 284.716 27.9173 286.132 26.0952L283.763 24.2544C282.123 26.3643 280.342 29.6924 278.566 33.5362C276.776 37.4088 274.945 41.9079 273.222 46.4291C269.774 55.473 266.73 64.6705 265.268 69.2586L268.126 70.1693ZM286.132 26.0952C289.538 21.7116 293.917 17.2791 298.476 13.627C303.053 9.96028 307.715 7.15767 311.68 5.92869L310.792 3.06319C306.319 4.44974 301.317 7.50681 296.6 11.2857C291.865 15.0793 287.319 19.6785 283.763 24.2544L286.132 26.0952ZM311.68 5.92869C317.074 4.25674 321.435 3.6812 325.445 4.24631C329.439 4.80919 333.227 6.52418 337.442 9.67398L339.237 7.27091C334.739 3.90889 330.487 1.92726 325.863 1.27566C321.255 0.626294 316.421 1.3184 310.792 3.06319L311.68 5.92869ZM337.442 9.67398C345.72 15.8607 348.408 26.0436 348.408 34.7186H351.408C351.408 25.5623 348.581 14.2539 339.237 7.27091L337.442 9.67398ZM348.408 34.7186C348.408 40.0617 346.209 50.0081 342.644 60.817C339.094 71.5836 334.265 82.9771 329.14 91.1888L331.685 92.777C336.984 84.2866 341.902 72.647 345.493 61.7565C349.071 50.9083 351.408 40.5736 351.408 34.7186H348.408ZM329.14 91.1888C323.926 99.5435 318.822 107.877 314.72 115.032C310.642 122.145 307.48 128.218 306.233 132.001L309.082 132.941C310.22 129.491 313.225 123.671 317.322 116.524C321.395 109.419 326.476 101.125 331.685 92.777L329.14 91.1888ZM284.203 133.773C289.31 136.691 299.436 142.612 306.898 146.989L308.416 144.401C300.957 140.026 290.816 134.097 285.691 131.168L284.203 133.773ZM306.898 146.989C308.043 147.66 309.213 148.245 310.147 148.748C311.129 149.276 311.883 149.729 312.437 150.212L314.409 147.952C313.581 147.229 312.566 146.643 311.568 146.106C310.522 145.543 309.5 145.037 308.416 144.401L306.898 146.989ZM306.233 132.001C304.195 138.179 305.362 143.986 306.263 146.25L309.051 145.14C308.362 143.41 307.302 138.335 309.082 132.941L306.233 132.001ZM276.103 91.9084C275.718 84.1499 277.365 70.6014 284.828 55.9332L282.154 54.5728C274.446 69.7223 272.696 83.7931 273.107 92.0574L276.103 91.9084ZM284.828 55.9332C288.047 49.6049 292.281 45.1925 295.264 43.2929L293.652 40.7625C290.128 43.0069 285.564 47.8704 282.154 54.5728L284.828 55.9332ZM286.377 132.016C285.444 129.082 284.257 125.232 283.023 121.052L280.146 121.902C281.386 126.101 282.579 129.971 283.518 132.925L286.377 132.016ZM283.023 121.052C279.649 109.625 276.698 103.865 276.103 91.9084L273.107 92.0574C273.725 104.488 276.88 110.842 280.146 121.902L283.023 121.052ZM280.872 122.797C285.143 125.103 292.59 125.455 299.608 117.641L297.376 115.636C291.252 122.455 285.308 121.783 282.297 120.157L280.872 122.797ZM299.608 117.641C304.231 112.494 307.834 107.786 310.107 101.717C312.378 95.6503 313.273 88.3549 312.729 78.0761L309.734 78.2346C310.265 88.2777 309.373 95.1215 307.297 100.665C305.222 106.206 301.918 110.579 297.376 115.636L299.608 117.641ZM191.336 336.222C190.567 338.264 190.204 339.349 188.753 341.058L191.04 343C192.86 340.856 193.373 339.326 194.144 337.28L191.336 336.222ZM188.884 340.922C187.709 341.998 186.793 342.728 185.605 343.367C184.401 344.015 182.853 344.601 180.39 345.296L181.204 348.184C183.756 347.464 185.543 346.807 187.027 346.009C188.528 345.202 189.653 344.284 190.909 343.136L188.884 340.922ZM189.976 343.527L195.642 343.227L195.484 340.231L189.817 340.531L189.976 343.527ZM195.563 343.229C196.292 343.229 197.033 343.187 197.777 343.113L197.479 340.128C196.82 340.194 196.18 340.229 195.563 340.229V343.229ZM197.777 343.113C202.058 342.685 206.689 341.133 210.546 339.749C212.51 339.044 214.246 338.392 215.724 337.906C217.253 337.403 218.259 337.165 218.807 337.165V334.165C217.709 334.165 216.264 334.57 214.786 335.056C213.258 335.559 211.433 336.243 209.533 336.925C205.661 338.315 201.349 339.741 197.479 340.128L197.777 343.113ZM198.605 342.759C202.003 339.844 210.341 334.154 214.279 331.477L212.593 328.996C208.728 331.623 200.211 337.429 196.652 340.482L198.605 342.759ZM214.279 331.477C216.457 329.997 219.329 328.659 222.14 327.477C224.859 326.333 227.651 325.287 229.327 324.496L228.047 321.783C226.429 322.547 223.905 323.48 220.977 324.712C218.139 325.905 215.033 327.338 212.593 328.996L214.279 331.477ZM180.39 345.296C177.149 346.21 175.555 346.8 171.638 347.581L172.225 350.523C176.294 349.711 178.083 349.064 181.204 348.184L180.39 345.296ZM171.638 347.581C167.37 348.432 164.204 348.101 160.078 346.435L158.955 349.217C163.597 351.091 167.356 351.494 172.225 350.523L171.638 347.581ZM171.306 347.689C169.991 348.292 167.864 349.353 165.713 350.595C163.587 351.822 161.33 353.287 159.832 354.706L161.895 356.884C163.125 355.719 165.125 354.398 167.213 353.193C169.276 352.002 171.319 350.983 172.557 350.415L171.306 347.689ZM159.832 354.706C156.908 357.477 154.907 361.19 154.124 362.697L156.785 364.081C157.557 362.597 159.365 359.281 161.895 356.884L159.832 354.706ZM108.407 389.168C108.407 396.043 110.006 411.501 110.387 415.68L113.374 415.408C112.981 411.092 111.407 395.862 111.407 389.168H108.407ZM110.387 415.68C110.892 421.225 112.348 441.477 114.198 452.573L117.157 452.08C115.332 441.13 113.892 421.092 113.374 415.408L110.387 415.68ZM114.198 452.573C115.568 460.797 116.769 468.54 120.119 481.238L123.02 480.472C119.708 467.921 118.527 460.299 117.157 452.08L114.198 452.573ZM120.119 481.238C120.723 483.525 122.153 485.903 123.537 487.804C124.929 489.716 126.396 491.31 127.22 492.032L129.196 489.774C128.585 489.24 127.265 487.827 125.963 486.038C124.652 484.238 123.481 482.22 123.02 480.472L120.119 481.238ZM129.679 490.609C129.451 489.467 129.58 488.69 129.797 488.181C130.015 487.672 130.361 487.333 130.735 487.123C131.128 486.903 131.518 486.843 131.762 486.866C132.091 486.896 131.793 486.983 131.643 486.571L134.462 485.546C134.025 484.344 132.84 483.951 132.034 483.878C131.144 483.797 130.151 484.011 129.266 484.508C128.362 485.015 127.536 485.838 127.039 487.002C126.541 488.166 126.413 489.575 126.737 491.197L129.679 490.609ZM131.643 486.571C131.9 487.279 132.481 489.377 133.052 491.572C133.619 493.752 134.135 495.867 134.271 496.57L137.217 496.001C137.06 495.187 136.517 492.977 135.955 490.817C135.398 488.673 134.779 486.417 134.462 485.546L131.643 486.571ZM138.304 503.421L138.304 503.418L135.337 503.86L135.337 503.863L138.304 503.421ZM138.274 503.268C138.171 502.868 137.937 502.618 137.794 502.495C137.655 502.375 137.525 502.308 137.47 502.281C137.406 502.249 137.352 502.228 137.326 502.218C137.299 502.207 137.274 502.199 137.263 502.195C137.217 502.179 137.214 502.178 137.198 502.171C137.174 502.16 137.06 502.109 136.848 501.947C136.407 501.611 135.57 500.818 134.273 499.002L131.832 500.746C133.227 502.698 134.263 503.748 135.028 504.332C135.419 504.63 135.741 504.809 136.005 504.923C136.133 504.979 136.237 505.014 136.263 505.023C136.3 505.036 136.225 505.012 136.139 504.969C136.093 504.947 135.971 504.884 135.837 504.769C135.699 504.651 135.468 504.406 135.367 504.01L138.274 503.268ZM134.273 499.002C133.097 497.355 132.009 495.614 131.177 494.077C130.319 492.494 129.811 491.268 129.679 490.609L126.737 491.197C126.964 492.332 127.668 493.898 128.539 495.505C129.434 497.159 130.589 499.006 131.832 500.746L134.273 499.002ZM134.271 496.57C134.41 497.286 134.54 498.172 134.637 498.893C134.685 499.251 134.724 499.562 134.751 499.784C134.764 499.895 134.774 499.983 134.781 500.043C134.785 500.073 134.788 500.096 134.789 500.111C134.79 500.119 134.791 500.124 134.791 500.128C134.792 500.13 134.792 500.133 134.792 500.133C134.792 500.133 134.792 500.133 136.282 499.964C137.773 499.795 137.773 499.795 137.773 499.795L137.773 499.794L137.773 499.793C137.772 499.791 137.772 499.79 137.772 499.787C137.771 499.783 137.771 499.776 137.77 499.768C137.768 499.75 137.765 499.725 137.761 499.693C137.754 499.629 137.743 499.537 137.729 499.421C137.7 499.19 137.66 498.867 137.61 498.495C137.511 497.757 137.372 496.803 137.217 496.001L134.271 496.57ZM134.798 500.181L135.336 503.856L138.304 503.421L137.767 499.747L134.798 500.181ZM135.075 500.853C135.221 501.052 135.343 501.277 135.573 501.676C135.784 502.041 136.055 502.494 136.431 502.959C137.218 503.93 138.361 504.825 140.246 505.477L141.227 502.642C139.837 502.161 139.174 501.579 138.762 501.071C138.54 500.796 138.364 500.51 138.172 500.177C138 499.878 137.765 499.447 137.49 499.074L135.075 500.853ZM140.246 505.477C141.957 506.069 144.362 506.414 145.332 506.517L145.646 503.533C144.735 503.437 142.606 503.119 141.227 502.642L140.246 505.477ZM146.947 504.673L145.907 500.366L142.991 501.07L144.031 505.377L146.947 504.673ZM145.936 500.52C145.862 499.963 145.772 499.081 145.746 498.272C145.733 497.865 145.738 497.508 145.761 497.233C145.79 496.894 145.833 496.881 145.767 497.003L143.132 495.569C142.875 496.04 142.803 496.607 142.772 496.979C142.735 497.416 142.733 497.901 142.748 498.367C142.778 499.302 142.878 500.288 142.962 500.917L145.936 500.52ZM145.767 497.003C145.912 496.736 146.201 496.639 146.398 496.678L146.99 493.737C145.57 493.451 143.937 494.088 143.132 495.569L145.767 497.003ZM146.398 496.678C146.382 496.675 146.652 496.768 147.007 497.449C147.32 498.05 147.524 498.789 147.585 499.324L150.566 498.985C150.466 498.11 150.163 497.013 149.667 496.062C149.213 495.191 148.372 494.016 146.99 493.737L146.398 496.678ZM147.415 504.382C147.415 505.525 147.495 506.596 147.677 507.463C147.767 507.893 147.893 508.328 148.077 508.712C148.248 509.067 148.554 509.561 149.106 509.862L150.542 507.228C150.794 507.366 150.838 507.53 150.782 507.413C150.739 507.325 150.675 507.146 150.613 506.848C150.49 506.258 150.415 505.411 150.415 504.382H147.415ZM150.599 509.829C151.784 509.115 152.639 508.041 153.213 507.131C153.797 506.206 154.16 505.338 154.322 504.907L151.512 503.856C151.398 504.161 151.118 504.829 150.676 505.53C150.225 506.245 149.671 506.885 149.049 507.261L150.599 509.829ZM156.754 498.684C157.054 497.996 157.614 496.696 158.005 495.372C158.2 494.712 158.368 493.994 158.43 493.311C158.488 492.67 158.475 491.841 158.095 491.112L155.435 492.499C155.414 492.46 155.483 492.589 155.442 493.041C155.405 493.45 155.294 493.958 155.127 494.524C154.795 495.651 154.303 496.8 154.005 497.482L156.754 498.684ZM158.095 491.112C157.514 489.997 156.348 489.143 155.008 488.983C153.555 488.809 152.104 489.468 151.107 490.98L153.613 492.631C153.847 492.275 154.065 492.113 154.217 492.038C154.367 491.964 154.511 491.945 154.652 491.962C154.977 492 155.297 492.235 155.435 492.499L158.095 491.112ZM144.028 505.367C144.211 506.146 144.608 507.163 144.982 508.026C145.362 508.9 145.777 509.749 146.046 510.212L148.639 508.703C148.455 508.386 148.093 507.658 147.734 506.831C147.37 505.992 147.066 505.182 146.949 504.683L144.028 505.367ZM146.046 510.211L146.109 510.32L148.703 508.813L148.64 508.704L146.046 510.211ZM146.109 510.319C146.272 510.601 146.503 511.009 146.759 511.315C146.993 511.595 147.66 512.279 148.69 512.059C149.119 511.968 149.437 511.744 149.646 511.557C149.859 511.366 150.039 511.144 150.19 510.93C150.491 510.504 150.81 509.926 151.165 509.217L148.483 507.873C148.141 508.556 147.904 508.966 147.74 509.198C147.659 509.313 147.628 509.337 147.648 509.319C147.664 509.305 147.805 509.181 148.066 509.125C148.37 509.06 148.652 509.127 148.85 509.234C149.01 509.32 149.077 509.411 149.06 509.389C149.048 509.376 149.012 509.329 148.944 509.219C148.876 509.111 148.802 508.983 148.703 508.813L146.109 510.319ZM151.107 490.98C150.411 492.038 149.758 493.36 149.212 494.606L151.96 495.81C152.478 494.627 153.052 493.482 153.613 492.631L151.107 490.98ZM151.827 494.366C151.759 494.265 151.601 493.943 151.382 493.305C151.176 492.705 150.952 491.933 150.72 491.021C150.255 489.202 149.775 486.897 149.356 484.46C148.508 479.531 147.947 474.28 148.188 471.426L145.199 471.173C144.922 474.446 145.55 480.033 146.399 484.969C146.829 487.463 147.324 489.848 147.813 491.763C148.057 492.719 148.303 493.575 148.544 494.278C148.771 494.94 149.034 495.593 149.345 496.05L151.827 494.366ZM154.322 504.907C155.159 502.669 154.76 503.716 155.522 501.539L152.691 500.548C151.903 502.798 152.335 501.655 151.512 503.856L154.322 504.907ZM155.484 501.638C156.1 500.209 156.477 499.316 156.754 498.684L154.005 497.482C153.727 498.118 153.33 499.055 152.729 500.449L155.484 501.638ZM153.416 502.375C154.845 503.116 157.342 504.11 160.877 503.649L160.489 500.674C157.751 501.031 155.881 500.274 154.797 499.712L153.416 502.375ZM160.877 503.649C163.01 503.371 165.568 502.609 167.932 501.53C170.278 500.46 172.584 499.01 174.094 497.268L171.827 495.303C170.715 496.585 168.844 497.817 166.687 498.801C164.548 499.777 162.278 500.441 160.489 500.674L160.877 503.649ZM174.094 497.268C176.364 494.649 177.372 492.467 177.882 490.581C178.132 489.659 178.254 488.835 178.353 488.149C178.457 487.432 178.528 486.933 178.661 486.485L175.785 485.632C175.577 486.333 175.477 487.072 175.384 487.72C175.286 488.399 175.184 489.066 174.986 489.798C174.601 491.222 173.819 493.005 171.827 495.303L174.094 497.268ZM167.051 478.655C166.898 480.298 166.79 482.397 166.842 484.312C166.869 485.268 166.936 486.208 167.066 487.036C167.19 487.828 167.392 488.666 167.768 489.319L170.368 487.822C170.274 487.658 170.138 487.266 170.029 486.572C169.926 485.914 169.866 485.112 169.841 484.229C169.793 482.465 169.893 480.492 170.038 478.933L167.051 478.655ZM174.46 479.165C174.489 477.186 174.391 474.337 173.948 472.438C173.835 471.956 173.684 471.461 173.469 471.034C173.278 470.655 172.903 470.056 172.202 469.775C171.353 469.436 170.583 469.754 170.093 470.138C169.638 470.494 169.263 471.01 168.938 471.564L171.526 473.081C171.646 472.877 171.746 472.732 171.824 472.632C171.904 472.53 171.945 472.498 171.941 472.501C171.921 472.517 171.567 472.753 171.087 472.561C170.754 472.428 170.701 472.207 170.789 472.382C170.853 472.51 170.939 472.747 171.026 473.12C171.381 474.64 171.488 477.178 171.46 479.121L174.46 479.165ZM167.768 489.319C167.99 489.703 168.408 490.053 168.986 490.113C169.452 490.162 169.808 489.995 169.964 489.91C170.283 489.737 170.525 489.481 170.655 489.338C170.96 489 171.29 488.535 171.576 488.109C171.873 487.667 172.169 487.196 172.406 486.815C172.665 486.4 172.819 486.151 172.88 486.064L170.425 484.339C170.301 484.516 170.076 484.883 169.861 485.228C169.624 485.606 169.352 486.04 169.085 486.437C168.807 486.851 168.579 487.161 168.43 487.325C168.333 487.433 168.375 487.36 168.531 487.275C168.605 487.234 168.89 487.087 169.296 487.13C169.814 487.183 170.183 487.5 170.368 487.822L167.768 489.319ZM172.88 486.064C173.581 485.065 173.954 483.706 174.164 482.527C174.382 481.303 174.46 480.06 174.46 479.143H171.46C171.46 479.914 171.392 480.978 171.21 482.001C171.02 483.068 170.738 483.893 170.425 484.339L172.88 486.064ZM170.572 486.241C171.564 487.274 174.024 488.293 177.543 487.524L176.903 484.593C175.543 484.89 174.52 484.815 173.825 484.644C173.474 484.558 173.206 484.448 173.017 484.348C172.922 484.298 172.851 484.252 172.801 484.216C172.75 484.179 172.731 484.158 172.734 484.162L170.572 486.241ZM177.567 487.518C178.056 487.403 178.638 487.117 179.159 486.828C179.724 486.514 180.37 486.11 181.031 485.655C182.34 484.755 183.799 483.596 184.854 482.471L182.666 480.419C181.813 481.329 180.543 482.35 179.331 483.183C178.731 483.596 178.167 483.947 177.704 484.205C177.471 484.334 177.275 484.433 177.12 484.503C176.952 484.578 176.879 484.598 176.879 484.598L177.567 487.518ZM184.854 482.471C186.223 481.012 187.489 479.005 188.415 476.885C189.339 474.771 189.976 472.424 189.976 470.277H186.976C186.976 471.88 186.486 473.807 185.666 475.684C184.849 477.554 183.757 479.256 182.666 480.419L184.854 482.471ZM189.976 470.277C189.976 466.457 189.296 457.482 187.702 451.913L184.818 452.739C186.304 457.93 186.976 466.594 186.976 470.277H189.976ZM187.702 451.913C187.188 450.119 186.464 448.005 185.81 446.114C185.142 444.186 184.563 442.535 184.295 441.571L181.404 442.374C181.705 443.455 182.33 445.233 182.975 447.096C183.633 448.997 184.33 451.036 184.818 452.739L187.702 451.913ZM168.864 471.706C168.495 472.525 167.919 474.071 167.597 475.684L170.539 476.271C170.808 474.925 171.303 473.597 171.599 472.939L168.864 471.706ZM167.597 475.684C167.459 476.377 167.128 477.837 167.051 478.655L170.038 478.933C170.095 478.323 170.361 477.163 170.539 476.271L167.597 475.684ZM170.327 475.162C169.629 474.084 168.385 471.13 167.975 466.562L164.987 466.83C165.429 471.752 166.782 475.207 167.809 476.793L170.327 475.162ZM167.975 466.562C167.769 464.276 167.768 461.403 167.821 459.068C167.847 457.908 167.886 456.894 167.919 456.17C167.936 455.808 167.95 455.52 167.961 455.322C167.966 455.224 167.971 455.148 167.974 455.097C167.975 455.071 167.976 455.052 167.977 455.04C167.977 455.033 167.978 455.029 167.978 455.026C167.978 455.024 167.978 455.023 167.978 455.023V455.022C167.978 455.022 167.978 455.022 166.481 454.931C164.983 454.84 164.983 454.84 164.983 454.84V454.841L164.983 454.842C164.983 454.842 164.983 454.844 164.983 454.846C164.983 454.85 164.983 454.856 164.982 454.863C164.981 454.877 164.98 454.898 164.979 454.925C164.975 454.979 164.971 455.059 164.965 455.161C164.954 455.366 164.939 455.663 164.922 456.034C164.889 456.775 164.848 457.812 164.821 459C164.768 461.361 164.766 464.371 164.987 466.83L167.975 466.562ZM134.535 485.826C134.381 484.844 134.174 481.641 134.114 478.037C134.054 474.429 134.145 470.653 134.53 468.493L131.576 467.968C131.135 470.446 131.054 474.489 131.115 478.087C131.175 481.689 131.381 485.081 131.571 486.291L134.535 485.826ZM184.276 441.509C183.37 438.717 182.239 435.514 181.054 432.137C179.866 428.753 178.62 425.183 177.47 421.623C175.158 414.463 173.29 407.501 173.035 402.285L170.039 402.431C170.315 408.085 172.304 415.387 174.616 422.545C175.778 426.145 177.036 429.747 178.223 433.131C179.414 436.523 180.53 439.685 181.423 442.435L184.276 441.509ZM173.035 402.285C172.802 397.506 172.002 392.122 170.989 387.404C169.985 382.727 168.737 378.547 167.553 376.257L164.888 377.634C165.877 379.548 167.06 383.395 168.056 388.034C169.043 392.631 169.815 397.851 170.039 402.431L173.035 402.285ZM167.553 376.257C165.739 372.748 163.554 368.709 156.462 362.278L154.447 364.5C161.215 370.638 163.198 374.365 164.888 377.634L167.553 376.257ZM316.293 151.17C313.943 151.64 309.426 152.401 304.491 152.928L304.81 155.911C309.84 155.374 314.447 154.599 316.881 154.112L316.293 151.17ZM304.491 152.928C303.214 153.064 301.911 153.185 300.612 153.281L300.833 156.273C302.168 156.174 303.505 156.05 304.81 155.911L304.491 152.928ZM300.612 153.281C298.635 153.426 296.675 153.514 294.835 153.514V156.514C296.766 156.514 298.802 156.422 300.833 156.273L300.612 153.281ZM312.437 150.212C313.068 150.763 313.389 151.134 313.536 151.329C313.61 151.426 313.638 151.477 313.641 151.481C313.642 151.483 313.637 151.474 313.627 151.453C313.622 151.442 313.617 151.429 313.61 151.412C313.607 151.404 313.603 151.395 313.6 151.386C313.598 151.381 313.596 151.376 313.594 151.371C313.593 151.368 313.592 151.366 313.591 151.363L313.59 151.359L313.589 151.357C313.589 151.357 313.588 151.355 315.005 150.862C316.422 150.368 316.421 150.366 316.421 150.366L316.42 150.364L316.419 150.36C316.418 150.357 316.417 150.354 316.416 150.351C316.414 150.346 316.411 150.34 316.409 150.334C316.405 150.322 316.4 150.31 316.395 150.297C316.385 150.272 316.373 150.245 316.36 150.216C316.335 150.159 316.303 150.095 316.264 150.025C316.186 149.884 316.078 149.716 315.928 149.518C315.631 149.125 315.16 148.606 314.409 147.952L312.437 150.212ZM313.884 151.858L315.466 153.638L317.708 151.645L316.126 149.865L313.884 151.858ZM300.156 156.317C300.392 156.317 300.646 156.296 300.899 156.266L300.546 153.287C300.356 153.31 300.229 153.317 300.156 153.317V156.317ZM300.899 156.266C302.637 156.06 305.959 155.193 308.919 154.344C311.893 153.491 314.743 152.586 315.569 152.252L314.442 149.471C313.788 149.736 311.092 150.6 308.092 151.46C305.079 152.324 301.998 153.115 300.546 153.287L300.899 156.266ZM366.908 351.977C364.866 352.148 362.467 352.969 360.037 354.115C357.581 355.273 354.987 356.814 352.526 358.522C347.668 361.894 343.076 366.095 341.185 369.5L343.807 370.956C345.351 368.177 349.465 364.298 354.236 360.987C356.589 359.354 359.04 357.902 361.316 356.829C363.618 355.743 365.638 355.094 367.159 354.966L366.908 351.977ZM341.185 369.5C339.363 372.78 338.33 375.245 337.665 378.932C337.016 382.527 336.717 387.292 336.281 395.137L339.276 395.303C339.716 387.389 340.009 382.837 340.617 379.465C341.209 376.186 342.097 374.035 343.807 370.956L341.185 369.5ZM336.281 395.137C335.411 410.801 333.676 432.524 333.676 440.456H336.676C336.676 432.629 338.396 411.158 339.276 395.303L336.281 395.137ZM333.676 440.456V464.095H336.676V440.456H333.676ZM333.676 464.095C333.676 470.193 334.679 475.732 336.211 480.095C337.712 484.37 339.821 487.795 342.24 489.3L343.824 486.752C342.303 485.807 340.483 483.207 339.042 479.101C337.63 475.08 336.676 469.879 336.676 464.095H333.676ZM342.24 489.3C344.405 490.647 346.368 490.617 347.815 490.165C348.513 489.946 349.065 489.639 349.445 489.385C349.637 489.257 349.789 489.14 349.898 489.049C349.953 489.004 349.998 488.965 350.032 488.934C350.049 488.919 350.063 488.905 350.075 488.894C350.081 488.889 350.086 488.884 350.091 488.879C350.093 488.877 350.095 488.875 350.097 488.873L350.1 488.87L350.101 488.869C350.101 488.869 350.103 488.868 349.056 487.793C348.01 486.718 348.011 486.717 348.011 486.717L348.013 486.716L348.015 486.714C348.016 486.712 348.018 486.71 348.018 486.71C348.02 486.708 348.023 486.706 348.023 486.706C348.025 486.704 348.025 486.704 348.023 486.706C348.019 486.709 348.007 486.72 347.986 486.737C347.946 486.771 347.875 486.826 347.777 486.891C347.58 487.024 347.287 487.187 346.92 487.301C346.237 487.515 345.188 487.601 343.824 486.752L342.24 489.3ZM350.161 483.003C350.161 483.012 350.167 482.902 350.303 482.714C350.432 482.535 350.616 482.377 350.803 482.282C350.991 482.187 351.104 482.192 351.14 482.199C351.14 482.199 351.234 482.205 351.382 482.423L353.867 480.742C353.326 479.943 352.58 479.422 351.71 479.254C350.873 479.092 350.081 479.286 349.45 479.605C348.819 479.924 348.27 480.404 347.871 480.957C347.479 481.499 347.161 482.212 347.161 483.003H350.161ZM354.046 491.656C354.113 492.432 354.113 493.586 353.986 494.647C353.922 495.176 353.832 495.642 353.719 496.007C353.663 496.188 353.607 496.326 353.557 496.425C353.505 496.526 353.474 496.559 353.479 496.554L355.658 498.616C356.134 498.113 356.41 497.458 356.585 496.894C356.768 496.3 356.888 495.643 356.965 495.004C357.118 493.73 357.118 492.369 357.035 491.4L354.046 491.656ZM354.664 496.088C354.668 496.088 354.553 496.08 354.313 495.881C354.079 495.689 353.821 495.394 353.558 495.019C353.033 494.27 352.635 493.414 352.457 493.011L349.713 494.224C349.911 494.672 350.404 495.746 351.101 496.741C351.45 497.238 351.886 497.769 352.406 498.197C352.919 498.62 353.618 499.028 354.473 499.082L354.664 496.088ZM352.457 493.01L352.425 492.939L349.683 494.155L349.714 494.225L352.457 493.01ZM353.276 498.346C353.994 499.567 355.278 501.045 356.558 502.343C357.851 503.655 359.258 504.903 360.303 505.652L362.051 503.214C361.194 502.6 359.919 501.48 358.694 500.237C357.456 498.981 356.386 497.716 355.861 496.825L353.276 498.346ZM360.303 505.652C364.684 508.793 371.197 508.472 376.43 505.765L375.052 503.1C370.463 505.474 365.228 505.492 362.051 503.214L360.303 505.652ZM377.205 504.107L375.681 497.259L372.752 497.911L374.277 504.758L377.205 504.107ZM375.653 497.153C375.596 496.963 375.607 496.73 375.722 496.473C375.84 496.208 376.042 495.98 376.258 495.844C376.473 495.709 376.617 495.71 376.679 495.724C376.713 495.731 376.906 495.778 377.148 496.201L379.753 494.713C379.182 493.713 378.351 493.022 377.328 492.795C376.334 492.574 375.388 492.846 374.659 493.305C373.28 494.174 372.19 496.058 372.78 498.018L375.653 497.153ZM381.818 504.128C382.005 504.528 382.237 505.126 382.421 505.735C382.615 506.377 382.708 506.88 382.708 507.142H385.708C385.708 506.421 385.505 505.57 385.293 504.868C385.071 504.132 384.788 503.397 384.535 502.856L381.818 504.128ZM384.42 504.33C384.529 504.169 384.636 503.998 384.73 503.848C384.829 503.69 384.918 503.548 385.011 503.408C385.199 503.126 385.365 502.913 385.53 502.757C385.687 502.609 385.82 502.533 385.943 502.496C386.061 502.461 386.256 502.433 386.582 502.508L387.253 499.584C386.48 499.406 385.749 499.42 385.074 499.625C384.405 499.827 383.879 500.189 383.468 500.578C382.739 501.268 382.168 502.305 381.932 502.655L384.42 504.33ZM388.469 507.054C388.367 508.776 387.919 511.881 387.56 514.13L390.523 514.603C390.878 512.373 391.352 509.124 391.463 507.23L388.469 507.054ZM382.708 507.142V510.021H385.708V507.142H382.708ZM382.708 510.021V511.541H385.708V510.021H382.708ZM389.275 513.743C387.976 511.688 386.231 509.932 385.37 509.062L383.238 511.173C384.115 512.059 385.637 513.603 386.739 515.346L389.275 513.743ZM385.37 509.062L385.274 508.966L383.142 511.076L383.238 511.173L385.37 509.062ZM351.382 482.423C351.713 482.912 352.09 483.789 352.467 484.95L355.32 484.024C354.927 482.811 354.446 481.598 353.867 480.742L351.382 482.423ZM352.467 484.95C353.214 487.252 353.799 490.155 354.06 491.767L357.021 491.289C356.748 489.597 356.133 486.529 355.32 484.024L352.467 484.95ZM355.308 484.986C356.233 482.368 357.843 475.567 357.03 468.796L354.051 469.154C354.794 475.339 353.3 481.663 352.479 483.987L355.308 484.986ZM377.148 496.201C377.793 497.33 378.606 498.596 379.378 499.833L381.923 498.244C381.118 496.954 380.359 495.774 379.753 494.713L377.148 496.201ZM379.378 499.833C380.302 501.311 381.184 502.775 381.818 504.128L384.535 502.856C383.816 501.322 382.846 499.722 381.923 498.244L379.378 499.833ZM382.136 499.245C382.51 496.563 382.955 492.133 383.085 487.508C383.214 482.918 383.039 477.985 382.103 474.374L379.199 475.127C380.023 478.307 380.214 482.885 380.086 487.424C379.96 491.928 379.525 496.247 379.165 498.831L382.136 499.245ZM392.219 466.412C393.263 469.458 395.248 476.67 395.099 481.537L398.097 481.628C398.264 476.185 396.118 468.535 395.057 465.439L392.219 466.412ZM386.582 502.508C386.764 502.549 387.006 502.686 387.307 503.115C387.616 503.555 387.892 504.172 388.163 504.935L390.99 503.931C390.692 503.093 390.308 502.17 389.764 501.393C389.212 500.606 388.409 499.849 387.253 499.584L386.582 502.508ZM388.163 504.935C388.392 505.58 388.513 506.296 388.469 507.054L391.463 507.23C391.534 506.039 391.342 504.922 390.99 503.931L388.163 504.935ZM392.342 500.29C390.925 502.722 389.556 502.933 389.576 502.933V505.933C390.989 505.933 393.194 504.788 394.934 501.801L392.342 500.29ZM395.099 481.537C395.085 481.99 395.068 482.459 395.048 482.941L398.045 483.066C398.066 482.573 398.083 482.092 398.097 481.628L395.099 481.537ZM395.048 482.941C394.917 486.093 394.651 489.765 394.195 493.023C393.967 494.652 393.694 496.155 393.374 497.428C393.048 498.721 392.695 499.685 392.342 500.29L394.934 501.801C395.498 500.833 395.933 499.55 396.283 498.16C396.639 496.749 396.929 495.131 397.166 493.439C397.64 490.052 397.912 486.276 398.045 483.066L395.048 482.941ZM395.089 483.357C395.401 484.641 395.91 486.641 396.427 488.471C396.685 489.386 396.948 490.271 397.193 491.009C397.423 491.702 397.677 492.395 397.929 492.835L400.533 491.346C400.451 491.203 400.28 490.787 400.041 490.065C399.816 489.387 399.566 488.55 399.314 487.656C398.81 485.87 398.31 483.909 398.004 482.65L395.089 483.357ZM397.929 492.835C398.385 493.633 399.204 494.846 399.985 495.738C400.346 496.15 400.83 496.649 401.35 496.934C401.588 497.065 402.126 497.316 402.775 497.159C403.57 496.965 403.934 496.332 404.068 495.892L401.196 495.022C401.243 494.869 401.462 494.39 402.066 494.243C402.308 494.185 402.505 494.212 402.613 494.239C402.72 494.264 402.782 494.298 402.793 494.304C402.808 494.312 402.758 494.285 402.638 494.175C402.528 494.074 402.394 493.935 402.242 493.761C401.617 493.047 400.909 492.005 400.533 491.346L397.929 492.835ZM404.068 495.892C404.286 495.171 404.453 494.051 404.55 493.027C404.647 492.007 404.697 490.868 404.608 490.11L401.628 490.461C401.678 490.884 401.658 491.757 401.564 492.742C401.471 493.722 401.325 494.598 401.196 495.022L404.068 495.892ZM404.608 490.11C404.534 489.487 404.303 487.834 403.971 486.216C403.806 485.409 403.609 484.577 403.386 483.874C403.274 483.523 403.146 483.175 402.999 482.866C402.866 482.586 402.658 482.205 402.335 481.905L400.292 484.102C400.194 484.011 400.207 483.979 400.289 484.152C400.357 484.295 400.438 484.505 400.527 484.785C400.704 485.341 400.876 486.056 401.032 486.817C401.343 488.336 401.563 489.904 401.628 490.461L404.608 490.11ZM402.335 481.905C402.183 481.764 401.79 481.369 401.404 481.048C401.001 480.712 400.441 480.309 399.766 480.076C399.052 479.829 398.186 479.77 397.303 480.181C396.461 480.572 395.792 481.305 395.246 482.257L397.848 483.75C398.216 483.108 398.486 482.939 398.568 482.901C398.609 482.882 398.651 482.864 398.788 482.911C398.963 482.972 399.196 483.114 399.485 483.354C399.792 483.61 399.992 483.823 400.292 484.102L402.335 481.905ZM402.688 483.602C404.699 478.984 407.655 472.916 408.565 465.053L405.584 464.708C404.737 472.04 401.999 477.671 399.938 482.404L402.688 483.602ZM408.565 465.053C408.78 463.192 408.704 460.106 408.472 456.434C408.238 452.723 407.834 448.296 407.358 443.689C406.406 434.475 405.155 424.484 404.359 417.97L401.381 418.334C402.178 424.863 403.425 434.818 404.374 443.998C404.849 448.587 405.247 452.97 405.478 456.623C405.711 460.316 405.765 463.15 405.584 464.708L408.565 465.053ZM404.359 417.97C402.802 405.22 403.555 411.397 402.803 401.239L399.811 401.46C400.558 411.539 399.812 405.489 401.381 418.334L404.359 417.97ZM402.803 401.239C402.312 394.611 401.785 390.987 401.025 387.848C400.284 384.791 399.289 382.107 397.986 377.673L395.108 378.52C396.488 383.216 397.385 385.564 398.109 388.554C398.814 391.462 399.325 394.9 399.811 401.46L402.803 401.239ZM397.957 377.585C397.02 375.006 394.374 368.252 389.459 362.325C384.528 356.379 377.174 351.117 366.908 351.977L367.159 354.966C376.102 354.217 382.586 358.737 387.15 364.24C391.73 369.764 394.236 376.127 395.137 378.608L397.957 377.585ZM316.587 154.141H346.395V151.141H316.587V154.141ZM160.683 502.162C159.193 501.989 159.193 501.99 159.193 501.99L159.193 501.993C159.193 501.995 159.192 501.999 159.192 502.004C159.191 502.014 159.189 502.028 159.187 502.047C159.182 502.086 159.176 502.143 159.167 502.219C159.149 502.37 159.123 502.596 159.089 502.893C159.021 503.486 158.921 504.363 158.791 505.496C158.532 507.763 158.158 511.059 157.695 515.173C156.77 523.4 155.494 534.9 154.086 547.993C151.273 574.174 147.936 606.736 145.848 632.223L148.838 632.468C150.922 607.02 154.256 574.49 157.069 548.313C158.476 535.227 159.752 523.731 160.676 515.508C161.139 511.396 161.513 508.102 161.772 505.837C161.901 504.704 162.002 503.828 162.07 503.235C162.104 502.939 162.13 502.714 162.147 502.562C162.156 502.487 162.162 502.43 162.167 502.391C162.169 502.372 162.171 502.358 162.172 502.348C162.172 502.344 162.173 502.34 162.173 502.338C162.173 502.336 162.173 502.335 162.173 502.335C162.173 502.335 162.174 502.334 160.683 502.162ZM145.848 632.223C142.542 672.582 140.889 713.651 140.063 744.624C139.65 760.112 139.443 773.078 139.34 782.174C139.288 786.722 139.263 790.302 139.25 792.746C139.243 793.968 139.24 794.906 139.238 795.538C139.238 795.855 139.237 796.095 139.237 796.256C139.237 796.337 139.237 796.397 139.237 796.438C139.237 796.458 139.237 796.474 139.237 796.484C139.237 796.489 139.237 796.493 139.237 796.496V796.499C139.237 796.499 139.237 796.5 140.737 796.5C142.237 796.5 142.237 796.499 142.237 796.499C142.237 796.499 142.237 796.498 142.237 796.496C142.237 796.494 142.237 796.49 142.237 796.485C142.237 796.475 142.237 796.46 142.237 796.44C142.237 796.4 142.237 796.34 142.237 796.26C142.237 796.1 142.238 795.861 142.238 795.546C142.24 794.916 142.243 793.981 142.25 792.762C142.263 790.324 142.288 786.75 142.34 782.208C142.443 773.125 142.649 760.174 143.062 744.704C143.887 713.76 145.538 672.752 148.838 632.468L145.848 632.223ZM156.376 362.206C150.445 357.585 134.899 353.418 118.117 370.086L120.231 372.214C135.975 356.578 149.829 360.908 154.533 364.572L156.376 362.206ZM118.144 370.059C116.442 371.665 114.037 374.488 112.049 377.841C110.072 381.174 108.407 385.198 108.407 389.168H111.407C111.407 385.974 112.773 382.501 114.629 379.371C116.473 376.262 118.702 373.658 120.203 372.241L118.144 370.059ZM352.684 179.009C352.229 179.13 348.102 180.223 345.012 180.836L345.595 183.778C348.793 183.144 353.008 182.028 353.455 181.909L352.684 179.009ZM345.012 180.836C344.441 180.949 343.547 181.099 342.777 181.224C342.397 181.286 342.053 181.34 341.804 181.379C341.68 181.398 341.579 181.414 341.51 181.425C341.476 181.43 341.449 181.434 341.431 181.437C341.422 181.438 341.415 181.439 341.41 181.44C341.408 181.44 341.407 181.441 341.405 181.441H341.404C341.404 181.441 341.404 181.441 341.631 182.924C341.858 184.406 341.858 184.406 341.858 184.406H341.86C341.862 184.406 341.863 184.406 341.866 184.405C341.871 184.405 341.878 184.403 341.887 184.402C341.906 184.399 341.934 184.395 341.969 184.389C342.04 184.378 342.142 184.363 342.268 184.343C342.521 184.303 342.87 184.248 343.257 184.185C344.024 184.061 344.966 183.903 345.595 183.778L345.012 180.836ZM348.414 178.347C348.419 178.299 348.417 178.395 348.264 178.632C348.123 178.851 347.897 179.121 347.578 179.407C346.94 179.979 346.013 180.541 344.887 180.866L345.72 183.748C347.292 183.294 348.617 182.505 349.581 181.641C350.063 181.208 350.476 180.739 350.786 180.257C351.084 179.794 351.346 179.229 351.402 178.619L348.414 178.347ZM336.838 183.459C338.054 183.853 339.409 184.424 341.631 184.424V181.424C339.983 181.424 339.121 181.045 337.765 180.605L336.838 183.459ZM231.035 172.045C228.523 172.045 227.731 171.814 226.32 171.618L225.908 174.59C227.189 174.767 228.258 175.045 231.035 175.045V172.045ZM255.36 162.366C254.081 161.582 254.081 161.582 254.081 161.582C254.081 161.582 254.079 161.585 254.078 161.587C254.076 161.591 254.071 161.598 254.066 161.607C254.054 161.625 254.037 161.653 254.014 161.69C253.969 161.762 253.902 161.868 253.818 161.999C253.649 162.262 253.413 162.621 253.145 163.008C252.578 163.829 251.971 164.618 251.568 164.976L253.558 167.22C254.268 166.59 255.061 165.513 255.613 164.715C255.905 164.293 256.16 163.904 256.341 163.621C256.432 163.479 256.506 163.363 256.557 163.282C256.582 163.241 256.602 163.209 256.616 163.187C256.623 163.176 256.628 163.167 256.632 163.161C256.634 163.158 256.635 163.156 256.636 163.154L256.638 163.152V163.15C256.638 163.15 256.638 163.15 255.36 162.366ZM231.035 175.045C235.49 175.045 239.214 174.823 242.793 173.71C246.4 172.588 249.752 170.596 253.558 167.22L251.568 164.976C247.991 168.148 245.002 169.881 241.902 170.845C238.774 171.818 235.426 172.045 231.035 172.045V175.045ZM347.162 482.966C347.12 484.614 347.249 486.34 347.583 488.076L350.529 487.51C350.238 485.993 350.124 484.482 350.161 483.041L347.162 482.966ZM347.583 488.076C347.983 490.152 348.676 492.248 349.726 494.245L352.381 492.849C351.48 491.136 350.878 489.322 350.529 487.51L347.583 488.076ZM387.56 514.13C387.645 513.6 388.074 513.358 388.349 513.313C388.613 513.269 389.026 513.349 389.275 513.743L386.74 515.346C387.251 516.154 388.143 516.388 388.839 516.272C389.546 516.155 390.361 515.617 390.523 514.603L387.56 514.13ZM382.308 512.969C383.574 514.209 385.708 513.313 385.708 511.541H382.708C382.708 510.654 383.775 510.206 384.408 510.826L382.308 512.969ZM392.355 632.468C395.655 672.752 397.305 713.76 398.131 744.704C398.543 760.174 398.749 773.125 398.853 782.208C398.904 786.75 398.93 790.324 398.943 792.762C398.949 793.981 398.953 794.916 398.954 795.546C398.955 795.861 398.955 796.1 398.956 796.26C398.956 796.34 398.956 796.4 398.956 796.44C398.956 796.46 398.956 796.475 398.956 796.485C398.956 796.49 398.956 796.494 398.956 796.496C398.956 796.498 398.956 796.499 398.956 796.499C398.956 796.499 398.956 796.5 400.456 796.5C401.956 796.5 401.956 796.499 401.956 796.499V796.496C401.956 796.493 401.956 796.489 401.956 796.484C401.956 796.474 401.956 796.459 401.956 796.438C401.956 796.397 401.956 796.337 401.956 796.256C401.955 796.095 401.955 795.855 401.954 795.539C401.953 794.906 401.949 793.968 401.943 792.746C401.93 790.302 401.904 786.722 401.852 782.174C401.749 773.079 401.543 760.112 401.129 744.624C400.303 713.651 398.651 672.583 395.345 632.223L392.355 632.468ZM379.911 510.149C382.317 531.376 388.976 591.22 392.355 632.468L395.345 632.223C391.961 590.922 385.297 531.034 382.892 509.812L379.911 510.149ZM384.408 510.826L382.452 508.909L380.352 511.052L382.308 512.969L384.408 510.826ZM382.452 508.909L376.791 503.361L374.691 505.504L380.352 511.052L382.452 508.909ZM149.212 494.606C148.665 495.855 148.592 495.961 148.046 497.613L150.895 498.553C151.397 497.033 151.427 497.026 151.96 495.81L149.212 494.606ZM147.585 499.324C147.631 499.725 147.629 500.123 147.599 500.631L150.594 500.806C150.628 500.219 150.639 499.629 150.566 498.985L147.585 499.324ZM147.599 500.631C147.55 501.475 147.415 502.678 147.415 504.382H150.415C150.415 502.791 150.535 501.822 150.594 500.806L147.599 500.631ZM148.046 497.613C147.822 498.291 147.615 499.509 147.597 500.695L150.596 500.742C150.611 499.793 150.785 498.886 150.895 498.553L148.046 497.613Z" fill="black"/>
</g>
<defs>
<clipPath id="clip0_79_3407">
<rect width="500" height="796" fill="white" transform="translate(0 0.5)"/>
</clipPath>
</defs>
</svg>
