<svg width="500" height="798" viewBox="0 0 500 798" fill="none" xmlns="http://www.w3.org/2000/svg">
<mask id="mask0_90_6218" style="mask-type:luminance" maskUnits="userSpaceOnUse" x="0" y="1" width="500" height="796">
<path d="M500 1H0V797H500V1Z" fill="white"/>
</mask>
<g mask="url(#mask0_90_6218)">
<path d="M392.355 632.968C395.655 673.252 397.305 714.26 398.131 745.204C398.543 760.674 398.749 773.625 398.853 782.708C398.904 787.25 398.93 790.824 398.943 793.262C398.949 794.481 398.955 796.371 398.956 797.001C398.956 797.001 398.956 797 400.456 797C401.956 797 401.956 796.999 401.956 796.999C401.955 796.838 401.955 796.355 401.954 796.039C401.953 795.406 401.949 794.468 401.943 793.246C401.93 790.802 401.904 787.222 401.852 782.674C401.749 773.579 401.543 760.612 401.129 745.124C400.303 714.151 398.651 673.083 395.345 632.723L392.355 632.968Z" fill="black"/>
<path d="M315.112 295.285C314.94 294.475 315.459 293.679 316.269 293.508C316.916 293.371 318.182 292.88 319.841 292.025C321.463 291.189 323.357 290.059 325.234 288.726C329.06 286.008 332.536 282.643 333.774 279.391C335.225 275.576 336.06 270.272 336.486 266.054C334.763 267.903 332.121 270.421 327.928 274.102C318.905 282.025 304.427 291.295 290.25 295.689C283.737 297.707 275.315 299.431 267.781 300.848C265.449 301.286 263.211 301.694 261.137 302.071C256.445 302.925 252.6 303.625 250.439 304.178C247.965 304.81 244.791 305.554 241.317 306.368C237.78 307.197 233.931 308.099 230.193 309.03C222.646 310.91 215.365 312.95 210.948 314.949C204.48 317.875 199.368 320.443 197.018 321.675C196.868 323.937 196.43 327.062 195.926 329.953C195.359 333.205 194.67 336.383 194.144 337.78C194.101 337.896 194.058 338.01 194.016 338.122C193.648 339.103 193.321 339.974 192.849 340.871L195.484 340.731L195.523 340.729H195.563C196.037 340.729 196.524 340.708 197.023 340.669C200.772 337.547 208.857 332.036 212.593 329.496C215.033 327.838 218.139 326.405 220.977 325.212C222.185 324.704 223.324 324.246 224.36 323.831C225.834 323.239 227.097 322.732 228.047 322.283C228.796 321.929 229.69 322.25 230.043 322.999C230.397 323.748 230.077 324.642 229.327 324.996C228.316 325.473 226.898 326.043 225.335 326.672C224.308 327.085 223.219 327.523 222.14 327.977C219.329 329.159 216.457 330.497 214.279 331.977C211.744 333.7 207.386 336.672 203.696 339.348C205.678 338.78 207.657 338.098 209.533 337.425C210.076 337.23 210.613 337.035 211.138 336.844C212.452 336.367 213.695 335.915 214.786 335.556C216.264 335.07 217.709 334.665 218.807 334.665C219.636 334.665 220.307 335.337 220.307 336.165C220.307 336.994 219.636 337.665 218.807 337.665C218.259 337.665 217.253 337.903 215.724 338.406C214.679 338.75 213.504 339.177 212.211 339.647C211.676 339.841 211.121 340.043 210.546 340.249C206.689 341.633 202.058 343.185 197.777 343.613C197.047 343.686 196.321 343.727 195.605 343.729L190.508 343.999C189.407 344.98 188.367 345.789 187.027 346.509C185.543 347.307 183.756 347.964 181.204 348.684C180.458 348.894 179.788 349.091 179.145 349.28C177.136 349.871 175.389 350.385 172.399 350.988C171.149 351.568 169.19 352.552 167.213 353.693C165.125 354.898 163.125 356.219 161.895 357.384C159.839 359.332 158.26 361.887 157.326 363.572C163.736 369.546 165.815 373.395 167.553 376.757C168.737 379.047 169.985 383.227 170.989 387.904C172.002 392.622 172.802 398.006 173.035 402.785C173.29 408.001 175.158 414.963 177.47 422.123C178.62 425.683 179.866 429.253 181.054 432.637L181.34 433.452C182.421 436.529 183.443 439.443 184.276 442.009L184.286 442.04L184.295 442.071C184.539 442.95 185.042 444.399 185.635 446.109L185.81 446.614C186.464 448.505 187.188 450.619 187.702 452.413C189.296 457.982 189.976 466.957 189.976 470.777C189.976 472.924 189.339 475.271 188.415 477.385C187.489 479.505 186.223 481.512 184.854 482.971C183.799 484.096 182.34 485.255 181.031 486.155C180.37 486.61 179.724 487.014 179.159 487.328C178.948 487.445 178.726 487.562 178.505 487.667C178.456 487.939 178.412 488.245 178.359 488.607L178.353 488.649C178.254 489.335 178.132 490.159 177.882 491.081C177.372 492.967 176.364 495.149 174.094 497.768C172.584 499.51 170.278 500.96 167.932 502.03C165.986 502.918 163.908 503.592 162.045 503.957C162.035 504.039 162.025 504.126 162.015 504.216C161.952 504.768 161.87 505.479 161.772 506.337C161.513 508.602 161.139 511.896 160.676 516.008C159.752 524.231 158.476 535.727 157.069 548.813C154.256 574.99 150.922 607.52 148.838 632.968C145.538 673.252 143.887 714.26 143.062 745.204C142.649 760.674 142.443 773.625 142.34 782.708C142.288 787.25 142.263 790.824 142.25 793.262C142.243 794.481 142.24 795.416 142.238 796.046C142.238 796.23 142.238 796.388 142.238 796.52C142.237 796.613 142.237 796.693 142.237 796.76V796.999L398.956 797.001C398.955 796.371 398.949 794.481 398.943 793.262C398.93 790.824 398.904 787.25 398.853 782.708C398.749 773.625 398.543 760.674 398.131 745.204C397.305 714.26 395.655 673.252 392.355 632.968C389.004 592.058 382.426 532.856 379.971 511.179L375.443 506.741C370.398 508.999 364.413 509.098 360.303 506.152C359.258 505.403 357.851 504.155 356.558 502.843C355.47 501.739 354.378 500.505 353.635 499.41C353.152 499.241 352.74 498.972 352.406 498.697C351.886 498.269 351.45 497.738 351.101 497.241C350.404 496.246 349.911 495.172 349.713 494.724L349.706 494.706C349.004 493.364 348.462 491.977 348.062 490.582C347.982 490.611 347.9 490.638 347.815 490.665C346.368 491.117 344.405 491.147 342.24 489.8C339.821 488.295 337.712 484.87 336.211 480.595C334.679 476.232 333.676 470.693 333.676 464.595V440.956C333.676 435.886 334.385 425.18 335.124 414.024C335.541 407.728 335.967 401.288 336.281 395.637C336.717 387.792 337.016 383.027 337.665 379.432C338.33 375.745 339.363 373.28 341.185 370C343.076 366.595 347.668 362.394 352.526 359.022C354.987 357.314 357.581 355.773 360.037 354.615C361.284 354.027 362.523 353.524 363.709 353.151C363.386 352.817 363.063 352.463 362.743 352.096C361.517 350.691 360.226 348.971 359.003 347.164C356.573 343.575 354.304 339.488 353.317 336.66C350.37 328.218 349.317 323.58 348.605 319.561C348.445 318.656 348.303 317.792 348.161 316.931C347.678 313.985 347.197 311.061 345.988 306.591C343.842 298.653 338.602 288.663 335.281 283.002C333.291 286.135 330.069 288.971 326.972 291.171C324.977 292.588 322.962 293.792 321.216 294.692C319.507 295.572 317.947 296.22 316.889 296.443C316.078 296.614 315.283 296.096 315.112 295.285Z" fill="#F2EBE5"/>
<path fill-rule="evenodd" clip-rule="evenodd" d="M283.854 152.114C284.422 151.51 285.371 151.481 285.974 152.048C286.04 152.11 286.102 152.17 286.163 152.229C286.556 152.61 286.887 152.931 287.778 153.246C288.907 153.645 290.946 154.014 294.835 154.014C296.498 154.014 298.26 153.942 300.043 153.821C300.049 153.821 300.055 153.82 300.061 153.82C300.231 153.808 300.401 153.796 300.571 153.784C302.033 153.606 305.096 152.819 308.092 151.96C309.7 151.499 311.22 151.037 312.385 150.667C311.836 150.201 311.099 149.76 310.147 149.248C309.87 149.098 309.571 148.942 309.258 148.777C308.52 148.39 307.703 147.96 306.898 147.489C299.436 143.112 289.31 137.191 284.203 134.273C277.885 130.663 268.756 129.4 257.503 128.845C254.749 128.709 251.883 128.616 248.917 128.538C234.016 128.146 224.776 129.56 215.216 134.314C203.558 140.11 199.452 143.517 191.846 150.674C187.68 154.595 179.652 162.48 176.565 166.339C174.757 168.654 171.931 172.679 169.37 177.189C166.787 181.735 164.551 186.637 163.816 190.724C161.895 201.392 162.325 218.799 163.814 226.885C164.569 230.983 166.294 239.316 168.212 247.243C169.171 251.207 170.174 255.052 171.124 258.207C172.04 261.25 172.863 263.493 173.498 264.622C174.952 265.902 177.161 267.987 179.327 270.314C181.566 272.719 183.847 275.475 185.158 277.91C186.695 280.765 189.647 286.615 192.219 292.635C193.505 295.645 194.706 298.72 195.588 301.497C196.089 303.073 196.502 304.599 196.762 305.988C197.98 305.207 199.431 304.448 200.98 303.722C203.726 302.436 206.962 301.174 210.178 300.029C216.612 297.739 223.065 295.883 225.568 295.198C226.384 294.975 227.334 294.714 228.398 294.422C238.703 291.594 259.7 285.832 272.524 282.807C280.231 280.989 290.743 278.175 297.895 275.073C298.802 274.68 299.675 274.305 300.52 273.943C307.187 271.082 312.089 268.978 318.035 264.403C320.905 262.195 323.649 259.478 325.705 257.182C326.163 256.671 326.583 256.183 326.961 255.73C320.829 257.005 313.985 258.087 308.019 258.96C305.481 259.332 303.119 259.664 301.036 259.957C297.113 260.508 294.184 260.92 292.954 261.193C292.714 261.247 292.45 261.305 292.166 261.367C290.12 261.818 287.021 262.502 283.943 263.371C282.192 263.866 280.473 264.414 278.979 265.003C277.464 265.6 276.274 266.205 275.516 266.784C274.858 267.287 273.917 267.161 273.414 266.503C272.911 265.845 273.036 264.904 273.694 264.401C274.783 263.568 276.279 262.843 277.879 262.212C279.5 261.573 281.323 260.994 283.128 260.484C286.322 259.582 289.537 258.874 291.576 258.426C291.839 258.368 292.082 258.314 292.303 258.265C293.651 257.966 296.808 257.522 300.873 256.95C302.919 256.662 305.194 256.342 307.584 255.992C314.81 254.934 323.223 253.585 330.069 251.972C332.357 251.433 334.43 250.811 336.327 250.116C341.09 248.372 344.177 246.981 347.033 244.938C349.902 242.887 352.615 240.124 356.539 235.521C359.338 232.237 361.405 227.52 362.872 222.755C364.159 218.578 364.953 214.47 365.389 211.476C364.81 211.298 364.075 211.126 363.256 210.975C361.946 210.732 360.614 210.574 359.799 210.503L359.755 210.499L359.711 210.493C357.851 210.22 352.744 210.487 348.375 213.995C347.066 215.047 345.667 216.348 344.109 217.798C338.916 222.632 331.944 229.121 320.532 233.55C306.045 239.171 298.34 241.179 289.19 242.502C284.693 244.857 275.157 249.771 271.505 251.336C270.345 251.833 269.207 252.164 268.246 251.971C267.683 251.857 267.141 251.554 266.784 251.007C266.454 250.502 266.39 249.955 266.401 249.536C266.424 248.731 266.744 247.863 267.075 247.137C267.427 246.366 267.882 245.561 268.333 244.828C269.024 243.706 270.235 242.997 271.496 242.499C272.793 241.987 274.385 241.607 276.127 241.289C278.275 240.897 280.821 240.573 283.512 240.231C285.143 240.023 286.827 239.809 288.508 239.569C297.485 238.287 304.971 236.37 319.447 230.753C330.257 226.558 336.645 220.621 341.814 215.818C343.465 214.284 344.991 212.865 346.497 211.656C351.06 207.991 356.289 207.289 359.162 207.431C359.411 206.919 359.655 206.181 359.864 205.204C360.167 203.792 360.357 202.089 360.46 200.309C360.629 197.424 360.566 194.446 360.437 192.387C357.163 192.179 353.127 191.707 350.257 190.823C347.83 190.076 345.391 188.45 343.629 187.097C342.731 186.408 341.975 185.763 341.443 185.29C341.282 185.147 341.14 185.019 341.021 184.909C339.423 184.83 338.304 184.452 337.324 184.121C337.159 184.065 336.997 184.011 336.838 183.959C332.249 182.469 328.004 178.959 326.979 173.593C326.37 170.405 326.311 167.779 327.491 165.22C328.639 162.73 330.865 160.518 334.256 157.888C335.766 156.717 337.28 155.598 338.763 154.641H316.735C314.266 155.129 309.741 155.885 304.81 156.411C303.51 156.549 302.179 156.673 300.849 156.772C300.634 156.796 300.418 156.814 300.215 156.817C298.39 156.94 296.57 157.014 294.835 157.014C290.813 157.014 288.379 156.64 286.778 156.074C285.257 155.537 284.532 154.829 284.074 154.382C284.019 154.329 283.968 154.279 283.92 154.234C283.316 153.667 283.287 152.717 283.854 152.114ZM224.628 173.398C224.742 172.577 225.499 172.004 226.32 172.118C226.615 172.159 226.883 172.201 227.146 172.243C228.138 172.4 229.048 172.545 231.035 172.545C235.426 172.545 238.774 172.318 241.902 171.345C245.002 170.381 247.991 168.648 251.568 165.476C251.971 165.118 252.578 164.329 253.145 163.508C253.413 163.121 253.649 162.762 253.818 162.499C253.902 162.368 253.969 162.262 254.014 162.19L254.031 162.162C254.046 162.139 254.057 162.12 254.066 162.107C254.068 162.103 254.071 162.099 254.073 162.096C254.075 162.092 254.077 162.089 254.078 162.087C254.079 162.085 254.081 162.082 254.081 162.082C254.515 161.375 255.438 161.154 256.144 161.587C256.85 162.021 257.072 162.944 256.638 163.65V163.652L256.636 163.654C256.635 163.656 256.634 163.658 256.632 163.661C256.63 163.664 256.627 163.669 256.624 163.674C256.622 163.678 256.619 163.682 256.616 163.687C256.602 163.709 256.582 163.741 256.557 163.782C256.506 163.863 256.432 163.979 256.341 164.121C256.16 164.404 255.905 164.793 255.613 165.215C255.061 166.013 254.268 167.09 253.558 167.72C249.752 171.096 246.4 173.088 242.793 174.21C239.214 175.323 235.49 175.545 231.035 175.545C228.805 175.545 227.676 175.366 226.655 175.203C226.404 175.164 226.16 175.125 225.908 175.09C225.087 174.976 224.514 174.219 224.628 173.398Z" fill="#F2EBE5"/>
<path d="M347.359 154.641H346.432C345.187 154.697 343.664 155.248 341.86 156.269C340.065 157.283 338.131 158.68 336.095 160.259C332.762 162.843 331.041 164.684 330.215 166.476C329.421 168.199 329.363 170.084 329.925 173.03C330.688 177.021 333.889 179.847 337.765 181.105C337.955 181.167 338.135 181.227 338.309 181.285C339.35 181.634 340.17 181.909 341.52 181.923C341.589 181.912 341.686 181.897 341.804 181.879C342.053 181.84 342.397 181.786 342.777 181.724C343.517 181.604 344.372 181.461 344.944 181.349C346.044 181.022 346.951 180.469 347.578 179.907C347.897 179.621 348.123 179.351 348.264 179.132C348.377 178.957 348.408 178.859 348.414 178.839L348.415 178.835C348.435 178.608 348.429 178.2 348.421 177.577C348.42 177.477 348.419 177.372 348.417 177.261C348.407 176.506 348.4 175.582 348.455 174.664C348.509 173.761 348.626 172.775 348.899 171.918C349.156 171.111 349.66 170.071 350.736 169.582C352.421 168.816 354.102 169.614 355.203 170.439C356.374 171.318 357.401 172.584 358.067 173.771C359.18 175.759 359.18 177.626 359.18 178.189V178.193C359.18 179.091 358.75 179.787 358.268 180.269C357.802 180.737 357.219 181.078 356.684 181.332C355.63 181.832 354.384 182.162 353.589 182.373L353.558 182.381L353.455 182.409C353.008 182.528 348.793 183.644 345.595 184.278C345.426 184.312 345.234 184.348 345.029 184.385C345.167 184.494 345.31 184.605 345.456 184.718C347.146 186.015 349.24 187.371 351.14 187.956C354.031 188.846 358.502 189.308 361.899 189.463C363.273 189.526 364.344 189.352 365.002 189.145C365.848 188.878 366.496 188.535 367.021 188.076C367.545 187.618 368.015 186.984 368.424 186.043C368.96 184.812 368.831 183.241 368.454 182.478C367.956 181.467 367.39 180.689 366.865 179.967L366.785 179.858C366.525 179.499 366.241 179.105 366.022 178.718C365.804 178.333 365.573 177.825 365.536 177.231C365.488 176.449 365.468 176.201 365.459 176.082C365.446 175.918 365.445 175.888 365.436 175.609C365.386 174.016 365.446 172.126 365.491 170.69C365.514 169.973 365.533 169.368 365.533 168.971C365.533 168.34 365.714 167.383 366.611 166.883C367.481 166.398 368.346 166.724 368.792 166.991C369.53 167.433 370.164 168.27 370.405 169.279C370.406 169.221 370.407 169.162 370.407 169.102C370.407 169.059 370.407 169.015 370.407 168.971C370.407 167.776 369.556 162.291 364.58 158.731C364.446 158.635 364.318 158.543 364.195 158.455C362.645 157.342 361.911 156.814 360.102 156.34C357.996 155.789 354.548 155.354 347.359 154.641Z" fill="#F2EBE5"/>
<path d="M351.416 177.221C351.417 177.316 351.419 177.413 351.42 177.51C351.429 178.111 351.438 178.719 351.402 179.119C351.378 179.386 351.314 179.644 351.225 179.889C351.994 179.692 352.535 179.549 352.684 179.509L352.787 179.482C353.634 179.257 354.623 178.99 355.398 178.622C355.785 178.438 356.022 178.273 356.145 178.15C356.16 178.135 356.171 178.123 356.18 178.113C356.178 177.623 356.136 176.463 355.449 175.237C354.954 174.353 354.188 173.428 353.403 172.84C352.601 172.238 352.165 172.25 352.007 172.302C351.98 172.331 351.876 172.457 351.758 172.827C351.597 173.333 351.498 174.029 351.45 174.843C351.402 175.643 351.406 176.471 351.416 177.221Z" fill="#F2EBE5"/>
<path d="M327.94 259.182C325.8 261.572 322.922 264.429 319.865 266.781C313.604 271.598 308.363 273.845 301.702 276.701C300.856 277.064 299.986 277.437 299.088 277.826C291.671 281.042 280.932 283.906 273.212 285.727C260.472 288.733 239.59 294.462 229.252 297.298C228.164 297.597 227.193 297.863 226.36 298.091C223.898 298.765 217.523 300.6 211.184 302.856C208.013 303.984 204.877 305.209 202.253 306.439C199.928 307.528 198.138 308.561 197.063 309.464V318.274C199.806 316.874 204.292 314.666 209.711 312.215C214.413 310.088 221.952 307.991 229.468 306.119C233.341 305.154 237.165 304.259 240.66 303.441C244.073 302.642 247.173 301.916 249.696 301.271C251.958 300.693 255.969 299.962 260.723 299.097C262.779 298.722 264.975 298.323 267.227 297.899C274.762 296.483 283.031 294.785 289.362 292.823C303.049 288.581 317.165 279.56 325.948 271.848C334.827 264.053 336.303 261.834 336.97 260.419C336.974 260.403 336.989 260.34 336.999 260.211C337.014 260.019 337.014 259.756 336.992 259.423C336.948 258.756 336.825 257.921 336.651 257.01C336.423 255.815 336.119 254.551 335.83 253.466C334.452 253.922 332.996 254.342 331.452 254.724C331.425 254.769 331.399 254.811 331.375 254.85C331.166 255.186 330.89 255.581 330.564 256.017C329.911 256.89 329.011 257.986 327.94 259.182Z" fill="#F2EBE5"/>
<path d="M171.335 266.716L171.328 266.71C170.564 266.026 169.829 265.374 169.121 264.746C162.236 258.637 157.913 254.802 154.229 246.205C152.186 241.44 150.592 233.221 149.508 225.492C148.821 220.595 148.325 215.798 148.053 212.052C144.134 219.816 143.155 226.178 142.342 231.467C142.059 233.306 141.796 235.015 141.436 236.608C140.591 240.348 138.207 243.627 135.735 246.669C135.172 247.363 134.603 248.045 134.04 248.721C132.059 251.099 130.137 253.406 128.675 255.922C124.983 262.282 124.101 271.046 124.101 279.924C124.101 288.306 128.823 295.781 132.493 300.747C134.457 303.405 136.027 306.68 137.878 311.28C138.984 314.029 140.214 317.311 141.699 321.275C142.694 323.93 143.803 326.891 145.066 330.202C147.249 335.924 148.947 339.207 151.064 341.502C153.154 343.768 155.761 345.192 160.078 346.935C164.204 348.601 167.37 348.932 171.638 348.081C174.592 347.492 176.225 347.012 178.239 346.419C178.896 346.226 179.593 346.021 180.39 345.796C182.853 345.101 184.401 344.515 185.605 343.867C186.769 343.241 187.672 342.527 188.814 341.487C190.141 339.906 190.537 338.851 191.219 337.033C191.257 336.931 191.296 336.828 191.336 336.722C191.747 335.631 192.397 332.729 192.971 329.437C193.537 326.194 193.991 322.792 194.063 320.727V308.805C194.063 307.311 193.582 305.094 192.729 302.405C191.887 299.754 190.726 296.775 189.461 293.814C186.93 287.891 184.019 282.123 182.516 279.332C181.395 277.25 179.333 274.723 177.131 272.358C174.949 270.014 172.718 267.922 171.342 266.723L171.335 266.716Z" fill="#F2EBE5"/>
<path d="M166.761 175.707C167.838 173.811 168.959 171.999 170.038 170.354C166.821 172.528 163.231 175.354 160.663 178.397C157.92 181.647 155.441 187.071 153.642 192.631C151.844 198.184 150.81 203.605 150.81 206.745C150.81 210.01 151.397 217.369 152.478 225.075C153.565 232.819 155.12 240.669 156.986 245.024C159.958 251.957 163.258 255.443 168.624 260.28C168.5 259.886 168.376 259.483 168.252 259.072C167.279 255.842 166.261 251.938 165.296 247.949C163.366 239.97 161.629 231.583 160.864 227.429C159.313 219.011 158.875 201.24 160.863 190.193C161.691 185.595 164.132 180.335 166.761 175.707Z" fill="#F2EBE5"/>
<path d="M142.973 501.494L142.962 501.417C142.878 500.788 142.778 499.802 142.748 498.867C142.733 498.401 142.735 497.916 142.772 497.479C142.803 497.107 142.875 496.54 143.132 496.069C143.937 494.588 145.57 493.951 146.99 494.237C147.69 494.378 148.25 494.749 148.693 495.193C148.641 495.056 148.592 494.917 148.544 494.778C148.303 494.075 148.057 493.219 147.813 492.263C147.324 490.348 146.829 487.963 146.399 485.469C145.55 480.533 144.922 474.946 145.199 471.673C145.269 470.848 145.995 470.235 146.821 470.305C147.646 470.375 148.258 471.101 148.188 471.926C147.947 474.78 148.508 480.031 149.356 484.96C149.775 487.397 150.255 489.702 150.72 491.521C150.755 491.659 150.79 491.795 150.825 491.926C150.918 491.773 151.012 491.624 151.107 491.48C152.104 489.968 153.555 489.309 155.008 489.483C156.348 489.643 157.514 490.497 158.095 491.612C158.475 492.341 158.488 493.17 158.43 493.811C158.368 494.494 158.2 495.212 158.005 495.872C157.614 497.196 157.054 498.496 156.754 499.184C156.579 499.584 156.364 500.088 156.074 500.766C157.159 501.143 158.623 501.417 160.489 501.174C162.278 500.941 164.548 500.277 166.687 499.301C168.844 498.317 170.715 497.085 171.827 495.803C173.819 493.505 174.601 491.722 174.986 490.298C175.177 489.591 175.279 488.946 175.374 488.291C174.072 488.32 172.983 488.091 172.137 487.745C171.961 488.024 171.769 488.322 171.576 488.609C171.29 489.035 170.96 489.5 170.655 489.838C170.525 489.981 170.283 490.237 169.964 490.41C169.808 490.495 169.452 490.662 168.986 490.613C168.408 490.553 167.99 490.203 167.768 489.819C167.392 489.166 167.19 488.328 167.066 487.536C166.936 486.708 166.869 485.768 166.842 484.812C166.79 482.897 166.898 480.798 167.051 479.155C167.111 478.518 167.325 477.492 167.482 476.742C166.512 474.978 165.384 471.744 164.987 467.33C164.766 464.871 164.768 461.861 164.821 459.5C164.848 458.312 164.889 457.275 164.922 456.534C164.939 456.163 164.954 455.866 164.965 455.661C164.971 455.559 164.975 455.479 164.979 455.425C164.98 455.398 164.981 455.377 164.982 455.363C164.983 455.356 164.983 455.35 164.983 455.346V455.342V455.341V455.34C165.034 454.513 165.745 453.883 166.572 453.934C167.399 453.984 168.028 454.695 167.978 455.522V455.523V455.526L167.978 455.53C167.978 455.533 167.977 455.536 167.977 455.54C167.976 455.552 167.975 455.571 167.974 455.597C167.972 455.633 167.969 455.682 167.966 455.743C167.964 455.767 167.963 455.794 167.961 455.822C167.95 456.02 167.936 456.308 167.919 456.67C167.886 457.394 167.847 458.408 167.821 459.568C167.768 461.903 167.769 464.776 167.975 467.062C168.157 469.082 168.501 470.786 168.889 472.152L168.897 472.133L168.938 472.064C169.263 471.51 169.638 470.994 170.093 470.638C170.583 470.254 171.353 469.936 172.202 470.275C172.903 470.556 173.278 471.155 173.469 471.534C173.684 471.961 173.835 472.456 173.948 472.938C174.391 474.837 174.489 477.686 174.46 479.665C174.459 480.58 174.38 481.813 174.164 483.027C174.046 483.69 173.877 484.41 173.626 485.09C173.689 485.109 173.756 485.127 173.825 485.144C174.516 485.314 175.531 485.389 176.879 485.098C176.879 485.098 176.952 485.078 177.12 485.003C177.275 484.933 177.471 484.834 177.704 484.705C178.167 484.447 178.731 484.096 179.331 483.683C180.543 482.85 181.813 481.829 182.666 480.919C183.757 479.756 184.849 478.054 185.666 476.184C186.486 474.307 186.976 472.38 186.976 470.777C186.976 467.094 186.304 458.43 184.818 453.239C184.33 451.536 183.633 449.497 182.975 447.596C182.909 447.404 182.842 447.212 182.776 447.022C182.208 445.383 181.681 443.862 181.409 442.892C180.58 440.342 179.561 437.44 178.469 434.33L178.468 434.328L178.223 433.631C177.036 430.247 175.778 426.645 174.616 423.045C172.304 415.887 170.315 408.585 170.039 402.931C169.815 398.351 169.043 393.131 168.056 388.534C167.06 383.895 165.877 380.048 164.888 378.134C163.202 374.872 161.223 371.153 154.488 365.037C149.74 361.38 135.925 357.128 120.231 372.714L120.217 372.728L120.203 372.741C118.702 374.158 116.473 376.762 114.629 379.871C112.773 383.001 111.407 386.474 111.407 389.668C111.407 395.346 112.54 407.166 113.123 413.257C113.228 414.347 113.315 415.253 113.374 415.908C113.471 416.974 113.601 418.546 113.76 420.468C114.446 428.79 115.675 443.684 117.157 452.58C117.245 453.107 117.332 453.631 117.419 454.154C118.687 461.796 119.921 469.225 123.02 480.972C123.481 482.72 124.652 484.738 125.963 486.538C126.286 486.982 126.61 487.403 126.925 487.792C126.96 487.694 126.999 487.597 127.039 487.502C127.536 486.338 128.362 485.515 129.266 485.008C129.928 484.637 130.649 484.423 131.343 484.373C131.238 482.794 131.151 480.728 131.115 478.587C131.054 474.989 131.135 470.946 131.576 468.468C131.721 467.652 132.5 467.109 133.315 467.254C134.131 467.399 134.675 468.178 134.53 468.993C134.145 471.153 134.054 474.929 134.114 478.537C134.172 482.001 134.365 485.094 134.517 486.202C134.847 487.164 135.429 489.291 135.955 491.317C136.517 493.477 137.06 495.687 137.217 496.501C137.372 497.303 137.511 498.257 137.61 498.995C137.654 499.323 137.691 499.612 137.718 499.835L137.729 499.921L137.73 499.926C137.867 500.141 137.99 500.357 138.095 500.541C138.122 500.589 138.148 500.634 138.172 500.677C138.364 501.01 138.54 501.296 138.762 501.571C139.174 502.079 139.837 502.661 141.227 503.142C141.888 503.37 142.72 503.562 143.508 503.711L142.991 501.57L142.973 501.494Z" fill="#F2EBE5"/>
<path d="M357.03 491.844L357.035 491.9C357.118 492.869 357.118 494.23 356.965 495.504C356.888 496.143 356.768 496.8 356.585 497.394C356.52 497.603 356.441 497.825 356.344 498.047C356.924 498.84 357.762 499.791 358.694 500.737C359.919 501.98 361.194 503.1 362.051 503.714C364.992 505.822 369.695 505.964 374.017 504.091L372.763 498.459C372.212 496.52 373.294 494.665 374.659 493.805C375.388 493.346 376.334 493.074 377.328 493.295C378.292 493.509 379.085 494.135 379.651 495.042C379.848 492.909 380.016 490.445 380.086 487.924C380.214 483.385 380.023 478.807 379.199 475.627C378.991 474.825 379.472 474.006 380.274 473.798C381.076 473.591 381.895 474.072 382.103 474.874C383.039 478.485 383.214 483.418 383.085 488.008C382.964 492.334 382.566 496.49 382.209 499.204C382.605 499.843 383.004 500.5 383.382 501.162C383.411 501.133 383.439 501.105 383.468 501.078C383.879 500.689 384.405 500.327 385.074 500.125C385.749 499.92 386.48 499.906 387.253 500.084C388.409 500.349 389.212 501.106 389.764 501.893C390.013 502.248 390.228 502.633 390.416 503.026C390.934 502.67 391.632 502.009 392.342 500.79C392.695 500.185 393.048 499.221 393.374 497.928C393.694 496.655 393.967 495.152 394.195 493.523C394.651 490.265 394.917 486.593 395.048 483.441C395.068 482.959 395.085 482.49 395.099 482.037C395.248 477.17 393.263 469.958 392.219 466.912C391.951 466.128 392.368 465.275 393.152 465.006C393.935 464.738 394.788 465.156 395.057 465.939C396.012 468.725 397.845 475.197 398.081 480.432C398.687 480.322 399.264 480.402 399.766 480.576C400.129 480.701 400.458 480.875 400.748 481.062C402.662 476.718 404.844 471.612 405.584 465.208C405.765 463.65 405.711 460.816 405.478 457.123C405.247 453.47 404.849 449.087 404.374 444.498C403.547 436.492 402.492 427.898 401.708 421.499C401.593 420.561 401.483 419.669 401.381 418.834C400.32 410.149 400.318 410.102 400.197 407.867C400.138 406.797 400.053 405.224 399.811 401.96C399.325 395.4 398.814 391.962 398.109 389.054C397.681 387.286 397.193 385.743 396.58 383.807C396.159 382.477 395.68 380.963 395.121 379.063C394.206 376.551 391.703 370.231 387.15 364.74C382.586 359.237 376.102 354.717 367.159 355.466C365.638 355.594 363.618 356.243 361.316 357.329C359.04 358.402 356.589 359.854 354.236 361.487C349.465 364.798 345.351 368.677 343.807 371.456C342.097 374.535 341.209 376.686 340.617 379.965C340.009 383.337 339.716 387.889 339.276 395.803C338.956 401.581 338.523 408.105 338.103 414.443C337.371 425.496 336.676 435.981 336.676 440.956V464.595C336.676 470.379 337.63 475.58 339.042 479.601C340.483 483.707 342.303 486.307 343.824 487.252C345.188 488.101 346.237 488.015 346.92 487.801C347.106 487.743 347.272 487.673 347.417 487.601C347.209 486.208 347.129 484.831 347.161 483.503C347.161 482.712 347.479 481.999 347.871 481.457C348.27 480.904 348.819 480.424 349.45 480.105C350.081 479.786 350.873 479.592 351.71 479.754C352.382 479.884 352.98 480.224 353.467 480.74C354.073 477.741 354.533 473.668 354.051 469.654C353.953 468.831 354.539 468.084 355.362 467.985C356.184 467.887 356.931 468.473 357.03 469.296C357.797 475.684 356.408 482.099 355.471 485.003C356.209 487.409 356.765 490.203 357.021 491.789L357.03 491.844Z" fill="#F2EBE5"/>
<path d="M295.723 41.722C296.168 42.4208 295.962 43.348 295.264 43.7929C292.281 45.6925 288.047 50.1049 284.828 56.4332C277.365 71.1014 275.718 84.6499 276.103 92.4084C276.552 101.43 278.342 106.923 280.643 113.985C281.336 116.109 282.074 118.376 282.836 120.923C285.982 122.335 291.599 122.569 297.376 116.136C301.918 111.079 305.222 106.706 307.297 101.165C309.373 95.6215 310.265 88.7777 309.734 78.7346C309.69 77.9073 310.325 77.2012 311.152 77.1575C311.98 77.1137 312.686 77.7488 312.729 78.5761C313.273 88.8549 312.378 96.1503 310.107 102.217C307.834 108.286 304.231 112.994 299.608 118.141C294.033 124.349 288.186 125.403 283.877 124.417C284.723 127.231 285.522 129.814 286.201 131.96C290.75 134.567 298.636 139.17 305.353 143.105C304.937 140.284 304.924 136.469 306.233 132.501C307.48 128.718 310.642 122.645 314.72 115.532C318.822 108.377 323.926 100.043 329.14 91.6888C334.265 83.4771 339.094 72.0836 342.644 61.317C346.209 50.5081 348.408 40.5617 348.408 35.2186C348.408 26.5436 345.72 16.3607 337.442 10.174C333.227 7.02418 329.439 5.30919 325.445 4.74631C321.435 4.1812 317.074 4.75674 311.68 6.42869C307.715 7.65767 303.053 10.4603 298.476 14.127C293.917 17.7791 289.538 22.2116 286.132 26.5952C284.716 28.4173 283.052 31.4793 281.289 35.2947C279.539 39.0813 277.735 43.5106 276.025 47.9978C272.604 56.9709 269.578 66.1111 268.126 70.6693C265.285 79.5879 264.619 92.89 264.219 101.698C263.923 108.209 261.198 119.653 259.514 125.948C268.362 126.458 276.247 127.494 282.473 130.094C281.757 127.783 280.962 125.164 280.146 122.402C279.364 119.752 278.588 117.372 277.851 115.114C275.514 107.948 273.577 102.01 273.107 92.5574C272.696 84.2931 274.446 70.2223 282.154 55.0728C285.564 48.3704 290.128 43.5069 293.652 41.2625C294.351 40.8175 295.278 41.0232 295.723 41.722Z" fill="#F2EBE5"/>
<path d="M365.903 192.006C365.233 192.218 364.401 192.377 363.446 192.443C363.571 194.604 363.624 197.584 363.455 200.483C363.347 202.345 363.144 204.215 362.797 205.833C362.656 206.493 362.482 207.153 362.262 207.773C362.759 207.844 363.281 207.928 363.802 208.025C364.723 208.195 365.736 208.421 366.611 208.719C367.548 207.511 368.183 206.128 368.34 205.466C368.996 202.688 369.622 199.589 368.728 190.559C367.882 191.23 366.931 191.682 365.903 192.006Z" fill="#F2EBE5"/>
<path d="M129.797 488.681C129.58 489.19 129.451 489.967 129.679 491.109C129.811 491.768 130.319 492.994 131.177 494.577C132.009 496.114 133.097 497.855 134.273 499.502C134.433 499.726 134.586 499.934 134.732 500.128C134.707 499.925 134.675 499.674 134.637 499.393C134.54 498.672 134.41 497.786 134.271 497.07C134.135 496.367 133.619 494.252 133.052 492.072C132.546 490.126 132.032 488.257 131.743 487.364C131.498 487.346 131.118 487.409 130.735 487.623C130.361 487.833 130.015 488.172 129.797 488.681Z" fill="#F2EBE5"/>
<path d="M171.46 479.632V479.621C171.483 478.009 171.414 475.988 171.187 474.478C170.951 475.137 170.703 475.951 170.539 476.771C170.494 476.997 170.443 477.241 170.391 477.489C170.24 478.217 170.081 478.978 170.038 479.433C169.893 480.992 169.793 482.965 169.841 484.729C169.851 485.062 169.865 485.383 169.885 485.69C169.915 485.642 169.945 485.593 169.975 485.545C170.152 485.26 170.323 484.985 170.425 484.839C170.738 484.393 171.02 483.568 171.21 482.501C171.392 481.478 171.46 480.414 171.46 479.643V479.632Z" fill="#F2EBE5"/>
<path d="M146.947 505.173L146.949 505.183C147.04 505.57 147.244 506.146 147.501 506.776C147.442 506.186 147.415 505.546 147.415 504.882C147.415 503.61 147.49 502.618 147.549 501.845C147.568 501.591 147.586 501.361 147.598 501.153C147.601 500.977 147.609 500.8 147.62 500.625C147.625 500.339 147.615 500.082 147.585 499.824C147.524 499.289 147.32 498.55 147.007 497.949C146.687 497.334 146.435 497.199 146.401 497.18C146.398 497.178 146.398 497.178 146.398 497.178C146.215 497.142 145.951 497.223 145.799 497.451C145.792 497.486 145.775 497.573 145.761 497.733C145.738 498.008 145.733 498.365 145.746 498.772C145.771 499.546 145.855 500.387 145.927 500.946L146.947 505.173Z" fill="#F2EBE5"/>
<path d="M152.708 500.998L152.729 500.949C153 500.321 153.229 499.786 153.425 499.329C153.664 498.772 153.852 498.332 154.005 497.982C154.303 497.3 154.795 496.151 155.127 495.024C155.294 494.458 155.405 493.95 155.442 493.541C155.483 493.089 155.414 492.96 155.435 492.999C155.297 492.735 154.977 492.5 154.652 492.462C154.511 492.445 154.367 492.464 154.217 492.538C154.065 492.613 153.847 492.775 153.613 493.131C153.052 493.982 152.478 495.127 151.96 496.31C151.887 496.477 151.824 496.62 151.767 496.748C151.41 497.556 151.328 497.741 150.895 499.053C150.805 499.328 150.67 499.992 150.618 500.749C150.613 500.936 150.605 501.121 150.594 501.306C150.578 501.589 150.557 501.869 150.535 502.159C150.478 502.91 150.415 503.734 150.415 504.882C150.415 505.42 150.436 505.909 150.473 506.337C150.543 506.236 150.611 506.134 150.676 506.03C151.118 505.329 151.398 504.661 151.512 504.356C152.034 502.962 152.051 502.909 152.195 502.486C152.277 502.242 152.402 501.873 152.691 501.048L152.708 500.998Z" fill="#F2EBE5"/>
<path d="M350.161 483.503V483.541C350.124 484.982 350.238 486.493 350.529 488.01C350.878 489.822 351.48 491.636 352.381 493.349L352.405 493.393L352.425 493.439L352.457 493.511C352.635 493.914 353.033 494.77 353.558 495.519C353.611 495.595 353.664 495.667 353.717 495.736C353.767 495.802 353.816 495.863 353.864 495.922C353.912 495.685 353.953 495.425 353.986 495.147C354.11 494.109 354.113 492.982 354.051 492.207C353.785 490.584 353.205 487.724 352.467 485.45C352.09 484.289 351.713 483.412 351.382 482.923C351.234 482.705 351.14 482.699 351.14 482.699C351.104 482.692 350.991 482.687 350.803 482.782C350.616 482.877 350.432 483.035 350.303 483.214C350.167 483.402 350.161 483.512 350.161 483.503Z" fill="#F2EBE5"/>
<path d="M375.669 497.705L375.681 497.759L377.108 504.172L382.452 509.409L382.708 509.66V507.642C382.708 507.38 382.615 506.877 382.421 506.235C382.237 505.626 382.005 505.028 381.818 504.628C381.184 503.275 380.302 501.811 379.378 500.333C379.21 500.064 379.041 499.794 378.871 499.524C378.261 498.552 377.653 497.585 377.148 496.701C376.906 496.278 376.713 496.231 376.679 496.224C376.617 496.21 376.473 496.209 376.258 496.344C376.042 496.48 375.84 496.708 375.722 496.973C375.607 497.23 375.596 497.463 375.653 497.653L375.669 497.705Z" fill="#F2EBE5"/>
<path d="M385.293 505.368C385.505 506.07 385.708 506.921 385.708 507.642V509.904C386.293 510.5 387.102 511.348 387.908 512.348C388.165 510.582 388.399 508.74 388.469 507.554C388.513 506.796 388.392 506.08 388.163 505.435C387.892 504.672 387.616 504.055 387.307 503.615C387.006 503.186 386.764 503.049 386.582 503.008C386.256 502.933 386.061 502.961 385.943 502.996C385.82 503.033 385.687 503.109 385.53 503.257C385.365 503.413 385.199 503.626 385.011 503.908C384.982 503.951 384.954 503.995 384.925 504.039C384.906 504.07 384.886 504.101 384.866 504.133C385.017 504.519 385.165 504.944 385.293 505.368Z" fill="#F2EBE5"/>
<path d="M400.041 490.565C400.28 491.287 400.451 491.703 400.533 491.846C400.773 492.266 401.148 492.842 401.55 493.389C401.555 493.341 401.56 493.291 401.564 493.242C401.658 492.257 401.678 491.384 401.628 490.961C401.563 490.404 401.343 488.836 401.032 487.317C400.876 486.556 400.704 485.841 400.527 485.285C400.438 485.005 400.357 484.795 400.289 484.652C400.266 484.602 400.248 484.569 400.236 484.55C400.158 484.476 400.086 484.406 400.016 484.339C399.846 484.175 399.689 484.024 399.485 483.854C399.196 483.614 398.963 483.472 398.788 483.411C398.651 483.364 398.609 483.382 398.568 483.401C398.512 483.427 398.365 483.516 398.159 483.78C398.465 485.01 398.888 486.646 399.314 488.156C399.566 489.05 399.816 489.887 400.041 490.565Z" fill="#F2EBE5"/>
<path fill-rule="evenodd" clip-rule="evenodd" d="M283.854 152.114C284.422 151.51 285.371 151.481 285.974 152.048C286.04 152.11 286.102 152.17 286.163 152.229C286.556 152.61 286.887 152.931 287.778 153.246C288.907 153.645 290.946 154.014 294.835 154.014C296.498 154.014 298.26 153.942 300.043 153.821L300.061 153.82C300.231 153.808 300.401 153.796 300.571 153.784C302.033 153.606 305.096 152.819 308.092 151.96C309.7 151.499 311.22 151.037 312.385 150.667C311.836 150.201 311.099 149.76 310.147 149.248C309.87 149.098 309.571 148.942 309.258 148.777C308.52 148.39 307.703 147.96 306.898 147.489C299.436 143.112 289.31 137.191 284.203 134.273C277.885 130.663 268.756 129.4 257.503 128.845C254.749 128.709 251.883 128.616 248.917 128.538C234.016 128.146 224.776 129.56 215.216 134.314C203.558 140.11 199.452 143.517 191.846 150.674C187.68 154.595 179.652 162.48 176.565 166.339C174.757 168.654 171.931 172.679 169.37 177.189C166.787 181.735 164.551 186.637 163.816 190.724C161.895 201.392 162.325 218.799 163.814 226.885C164.569 230.983 166.294 239.316 168.212 247.243C169.171 251.207 170.174 255.052 171.124 258.207C172.04 261.25 172.863 263.493 173.498 264.622C174.952 265.902 177.161 267.987 179.327 270.314C181.566 272.719 183.847 275.475 185.158 277.91C186.695 280.765 189.647 286.615 192.219 292.635C193.505 295.645 194.706 298.72 195.588 301.497C196.089 303.073 196.502 304.599 196.762 305.988C197.98 305.207 199.431 304.448 200.98 303.722C203.726 302.436 206.962 301.174 210.178 300.029C216.612 297.739 223.065 295.883 225.568 295.198C226.384 294.975 227.334 294.714 228.398 294.422C238.703 291.594 259.7 285.832 272.524 282.807C280.231 280.989 290.743 278.175 297.895 275.073C298.802 274.68 299.675 274.305 300.52 273.943C307.187 271.082 312.089 268.978 318.035 264.403C320.905 262.195 323.649 259.478 325.705 257.182C326.163 256.671 326.583 256.183 326.961 255.73C320.829 257.005 313.985 258.087 308.019 258.96C305.481 259.332 303.119 259.664 301.036 259.957C297.113 260.508 294.184 260.92 292.954 261.193C292.714 261.247 292.45 261.305 292.166 261.367C290.12 261.818 287.021 262.502 283.943 263.371C282.192 263.866 280.473 264.414 278.979 265.003C277.464 265.6 276.274 266.205 275.516 266.784C274.858 267.287 273.917 267.161 273.414 266.503C272.911 265.845 273.036 264.904 273.694 264.401C274.783 263.568 276.279 262.843 277.879 262.212C279.5 261.573 281.323 260.994 283.128 260.484C286.322 259.582 289.537 258.874 291.576 258.426C291.839 258.368 292.082 258.314 292.303 258.265C293.651 257.966 296.808 257.522 300.873 256.95C302.919 256.662 305.194 256.342 307.584 255.992C314.81 254.934 323.223 253.585 330.069 251.972C332.357 251.433 334.43 250.811 336.327 250.116C341.09 248.372 344.177 246.981 347.033 244.938C349.902 242.887 352.615 240.124 356.539 235.521C359.338 232.237 361.405 227.52 362.872 222.755C364.159 218.578 364.953 214.47 365.389 211.476C364.81 211.298 364.075 211.126 363.256 210.975C361.946 210.732 360.614 210.574 359.799 210.503L359.755 210.499L359.711 210.493C357.851 210.22 352.744 210.487 348.375 213.995C347.066 215.047 345.667 216.348 344.109 217.798C338.916 222.632 331.944 229.121 320.532 233.55C306.045 239.171 298.34 241.179 289.19 242.502C284.693 244.857 275.157 249.771 271.505 251.336C270.345 251.833 269.207 252.164 268.246 251.971C267.683 251.857 267.141 251.554 266.784 251.007C266.454 250.502 266.39 249.955 266.401 249.536C266.424 248.731 266.744 247.863 267.075 247.137C267.427 246.366 267.882 245.561 268.333 244.828C269.024 243.706 270.235 242.997 271.496 242.499C272.793 241.987 274.385 241.607 276.127 241.289C278.275 240.897 280.821 240.573 283.512 240.231C285.143 240.023 286.827 239.809 288.508 239.569C297.485 238.287 304.971 236.37 319.447 230.753C330.257 226.558 336.645 220.621 341.814 215.818C343.465 214.284 344.991 212.865 346.497 211.656C351.06 207.991 356.289 207.289 359.162 207.431C359.411 206.919 359.655 206.181 359.864 205.204C360.167 203.792 360.357 202.089 360.46 200.309C360.629 197.424 360.566 194.446 360.437 192.387C357.163 192.179 353.127 191.707 350.257 190.823C347.83 190.076 345.391 188.45 343.629 187.097C342.731 186.408 341.975 185.763 341.443 185.29C341.282 185.147 341.14 185.019 341.021 184.909C339.423 184.83 338.304 184.452 337.324 184.121C337.159 184.065 336.997 184.011 336.838 183.959C332.249 182.469 328.004 178.959 326.979 173.593C326.37 170.405 326.311 167.779 327.491 165.22C328.639 162.73 330.865 160.518 334.256 157.888C335.766 156.717 337.28 155.598 338.763 154.641H316.735C314.266 155.129 309.741 155.885 304.81 156.411C303.51 156.549 302.179 156.673 300.849 156.772C300.634 156.796 300.418 156.814 300.215 156.817C298.39 156.94 296.57 157.014 294.835 157.014C290.813 157.014 288.379 156.64 286.778 156.074C285.257 155.537 284.532 154.829 284.074 154.382C284.019 154.329 283.968 154.279 283.92 154.234C283.316 153.667 283.287 152.717 283.854 152.114ZM317.26 151.641H346.362C346.773 151.626 347.157 151.627 347.504 151.643L347.544 151.645L347.584 151.649C354.737 152.358 358.47 152.811 360.862 153.438C363.218 154.055 364.347 154.868 365.921 156C366.052 156.095 366.187 156.192 366.325 156.291C372.339 160.594 373.407 167.163 373.407 168.971C373.407 170.517 373.283 171.878 372.866 173.021C372.423 174.234 371.67 175.151 370.555 175.8C369.912 176.175 369.258 176.49 368.662 176.71C368.614 176.728 368.564 176.746 368.513 176.764C368.518 176.843 368.523 176.929 368.529 177.023C368.53 177.031 368.53 177.038 368.53 177.046C368.529 177.02 368.525 177.011 368.529 177.023C368.535 177.041 368.559 177.109 368.633 177.241C368.755 177.456 368.937 177.716 369.213 178.095C369.248 178.143 369.283 178.191 369.32 178.241C369.837 178.952 370.533 179.91 371.145 181.15C371.871 182.621 372.034 184.897 371.334 186.839C372.774 198.761 372.092 202.627 371.259 206.155C370.961 207.421 369.923 209.537 368.458 211.19C368.032 214.347 367.187 218.94 365.74 223.638C364.225 228.554 362.011 233.726 358.822 237.467C354.865 242.11 351.958 245.105 348.778 247.379C345.882 249.45 342.82 250.878 338.664 252.448C338.986 253.642 339.337 255.079 339.598 256.447C339.783 257.415 339.93 258.385 339.986 259.226C340.013 259.646 340.02 260.064 339.989 260.45C339.968 260.715 339.926 261.021 339.831 261.325C339.691 265.179 338.931 273.745 336.834 279.754C340.037 284.987 346.392 296.593 348.884 305.807C350.137 310.436 350.644 313.531 351.131 316.5C351.27 317.345 351.407 318.181 351.559 319.038C352.241 322.884 353.251 327.366 356.149 335.671C357.012 338.142 359.117 341.981 361.487 345.482C362.663 347.219 363.879 348.836 365.003 350.124C365.968 351.23 366.791 352.007 367.411 352.44C377.415 351.79 384.609 356.977 389.459 362.825C394.374 368.752 397.02 375.506 397.957 378.085L397.973 378.129L397.986 378.173C398.503 379.932 398.972 381.416 399.395 382.757C400.039 384.796 400.578 386.504 401.025 388.348C401.785 391.487 402.312 395.111 402.803 401.739C403.151 406.44 403.177 407.642 403.258 408.841C403.353 410.233 403.523 411.62 404.359 418.47C404.456 419.264 404.56 420.11 404.669 421C405.456 427.409 406.522 436.098 407.358 444.189C407.834 448.796 408.238 453.223 408.472 456.934C408.704 460.606 408.78 463.692 408.565 465.553C407.743 472.655 405.252 478.292 403.296 482.719C403.198 482.942 403.101 483.162 403.005 483.379C403.15 483.685 403.276 484.028 403.386 484.374C403.609 485.077 403.806 485.909 403.971 486.716C404.303 488.334 404.534 489.987 404.608 490.61C404.697 491.368 404.647 492.507 404.55 493.527C404.453 494.551 404.286 495.671 404.068 496.392C403.934 496.832 403.57 497.465 402.775 497.659C402.126 497.816 401.588 497.565 401.35 497.434C400.83 497.149 400.346 496.65 399.985 496.238C399.204 495.346 398.385 494.133 397.929 493.335C397.751 493.023 397.571 492.584 397.399 492.108C397.328 492.727 397.25 493.339 397.166 493.939C396.929 495.631 396.639 497.249 396.283 498.66C395.933 500.05 395.498 501.333 394.934 502.301C393.828 504.199 392.535 505.354 391.376 505.943C391.466 506.514 391.5 507.112 391.463 507.73C391.352 509.624 390.878 512.873 390.523 515.103C390.361 516.117 389.546 516.655 388.839 516.772C388.143 516.888 387.25 516.654 386.739 515.846C386.22 515.024 385.607 514.246 385.012 513.561C384.549 513.952 383.916 514.128 383.31 514.006C385.995 537.834 392.141 593.612 395.345 632.723L392.355 632.968C389.004 592.058 382.426 532.856 379.971 511.179L375.443 506.741C370.398 508.999 364.413 509.098 360.303 506.152C359.258 505.403 357.851 504.155 356.558 502.843C355.47 501.739 354.378 500.505 353.635 499.41C353.152 499.241 352.74 498.972 352.406 498.697C351.886 498.269 351.45 497.738 351.101 497.241C350.404 496.246 349.911 495.172 349.713 494.724L349.706 494.706C349.004 493.364 348.462 491.977 348.062 490.582C347.982 490.611 347.9 490.638 347.815 490.665C346.368 491.117 344.405 491.147 342.24 489.8C339.821 488.295 337.712 484.87 336.211 480.595C334.679 476.232 333.676 470.693 333.676 464.595V440.956C333.676 435.886 334.385 425.18 335.124 414.024C335.541 407.728 335.967 401.288 336.281 395.637C336.717 387.792 337.016 383.027 337.665 379.432C338.33 375.745 339.363 373.28 341.185 370C343.076 366.595 347.668 362.394 352.526 359.022C354.987 357.314 357.581 355.773 360.037 354.615C361.284 354.027 362.523 353.524 363.709 353.151C363.386 352.817 363.063 352.463 362.743 352.096C361.517 350.691 360.226 348.971 359.003 347.164C356.573 343.575 354.304 339.488 353.317 336.66C350.37 328.218 349.317 323.58 348.605 319.561C348.445 318.656 348.303 317.792 348.161 316.931C347.678 313.985 347.197 311.061 345.988 306.591C343.842 298.653 338.602 288.663 335.281 283.002C333.291 286.135 330.069 288.971 326.972 291.171C324.977 292.588 322.962 293.792 321.216 294.692C319.507 295.572 317.947 296.22 316.889 296.443C316.078 296.614 315.283 296.096 315.112 295.285C314.94 294.475 315.459 293.679 316.269 293.508C316.916 293.371 318.182 292.88 319.841 292.025C321.463 291.189 323.357 290.059 325.234 288.726C329.06 286.008 332.536 282.643 333.774 279.391C335.225 275.576 336.06 270.272 336.486 266.054C334.763 267.903 332.121 270.421 327.928 274.102C318.905 282.025 304.427 291.295 290.25 295.689C283.737 297.707 275.315 299.431 267.781 300.848C265.449 301.286 263.211 301.694 261.137 302.071C256.445 302.925 252.6 303.625 250.439 304.178C247.965 304.81 244.791 305.554 241.317 306.368C237.78 307.197 233.931 308.099 230.193 309.03C222.646 310.91 215.365 312.95 210.948 314.949C204.48 317.875 199.368 320.443 197.018 321.675C196.868 323.937 196.43 327.062 195.926 329.953C195.359 333.205 194.67 336.383 194.144 337.78C194.101 337.896 194.058 338.01 194.016 338.122C193.648 339.103 193.321 339.974 192.849 340.871L195.484 340.731L195.523 340.729H195.563C196.037 340.729 196.524 340.708 197.023 340.669C200.772 337.547 208.857 332.036 212.593 329.496C215.033 327.838 218.139 326.405 220.977 325.212C222.185 324.704 223.324 324.246 224.36 323.831C225.834 323.239 227.097 322.732 228.047 322.283C228.796 321.929 229.69 322.25 230.043 322.999C230.397 323.748 230.077 324.642 229.327 324.996C228.316 325.473 226.898 326.043 225.335 326.672C224.308 327.085 223.219 327.523 222.14 327.977C219.329 329.159 216.457 330.497 214.279 331.977C211.744 333.7 207.386 336.672 203.696 339.348C205.678 338.78 207.657 338.098 209.533 337.425C210.076 337.23 210.613 337.035 211.138 336.844C212.452 336.367 213.695 335.915 214.786 335.556C216.264 335.07 217.709 334.665 218.807 334.665C219.636 334.665 220.307 335.337 220.307 336.165C220.307 336.994 219.636 337.665 218.807 337.665C218.259 337.665 217.253 337.903 215.724 338.406C214.679 338.75 213.504 339.177 212.211 339.647C211.676 339.841 211.121 340.043 210.546 340.249C206.689 341.633 202.058 343.185 197.777 343.613C197.047 343.686 196.321 343.727 195.605 343.729L190.508 343.999C189.407 344.98 188.367 345.789 187.027 346.509C185.543 347.307 183.756 347.964 181.204 348.684C180.458 348.894 179.788 349.091 179.145 349.28C177.136 349.871 175.389 350.385 172.399 350.988C171.149 351.568 169.19 352.552 167.213 353.693C165.125 354.898 163.125 356.219 161.895 357.384C159.839 359.332 158.26 361.887 157.326 363.572C163.736 369.546 165.815 373.395 167.553 376.757C168.737 379.047 169.985 383.227 170.989 387.904C172.002 392.622 172.802 398.006 173.035 402.785C173.29 408.001 175.158 414.963 177.47 422.123C178.62 425.683 179.866 429.253 181.054 432.637L181.34 433.452C182.421 436.529 183.443 439.443 184.276 442.009L184.286 442.04L184.295 442.071C184.539 442.95 185.042 444.399 185.635 446.109L185.81 446.614C186.464 448.505 187.188 450.619 187.702 452.413C189.296 457.982 189.976 466.957 189.976 470.777C189.976 472.924 189.339 475.271 188.415 477.385C187.489 479.505 186.223 481.512 184.854 482.971C183.799 484.096 182.34 485.255 181.031 486.155C180.37 486.61 179.724 487.014 179.159 487.328C178.948 487.445 178.726 487.562 178.505 487.667C178.456 487.939 178.412 488.245 178.359 488.607L178.353 488.649C178.254 489.335 178.132 490.159 177.882 491.081C177.372 492.967 176.364 495.149 174.094 497.768C172.584 499.51 170.278 500.96 167.932 502.03C165.986 502.918 163.908 503.592 162.045 503.957L162.015 504.216C161.952 504.768 161.87 505.479 161.772 506.337C161.513 508.602 161.139 511.896 160.676 516.008C159.752 524.231 158.476 535.727 157.069 548.813C154.256 574.99 150.922 607.52 148.838 632.968C145.538 673.252 143.887 714.26 143.062 745.204C142.649 760.674 142.443 773.625 142.34 782.708C142.288 787.25 142.263 790.824 142.25 793.262C142.243 794.481 142.24 795.416 142.238 796.046C142.238 796.23 142.238 796.388 142.238 796.52C142.237 796.613 142.237 796.693 142.237 796.76V796.999C142.237 796.999 142.237 797 140.737 797C139.237 797 139.237 796.999 139.237 796.999C139.237 796.838 139.238 796.355 139.238 796.038C139.24 795.406 139.243 794.468 139.25 793.246C139.263 790.802 139.288 787.222 139.34 782.674C139.443 773.578 139.65 760.612 140.063 745.124C140.889 714.151 142.542 673.082 145.848 632.723C147.936 607.236 151.273 574.674 154.086 548.493C155.494 535.4 156.77 523.9 157.695 515.673C158.158 511.559 158.532 508.263 158.791 505.996C158.868 505.329 158.934 504.75 158.989 504.266C157.385 504.252 156.053 503.943 154.996 503.566C154.876 503.919 154.804 504.119 154.322 505.407C154.16 505.838 153.797 506.706 153.213 507.631C152.703 508.44 151.97 509.379 150.981 510.079C150.698 510.625 150.438 511.079 150.19 511.43C150.039 511.644 149.859 511.866 149.646 512.057C149.437 512.244 149.119 512.468 148.69 512.559C147.66 512.779 146.993 512.095 146.759 511.815C146.517 511.525 146.297 511.144 146.136 510.865L146.109 510.82L146.046 510.712C145.777 510.249 145.362 509.4 144.982 508.526C144.758 508.008 144.525 507.434 144.335 506.889C143.171 506.72 141.517 506.417 140.246 505.977C139.384 505.679 138.677 505.329 138.088 504.945C137.863 505.3 137.49 505.559 137.042 505.626C136.719 505.674 136.405 505.615 136.136 505.477C136.098 505.462 136.053 505.444 136.005 505.423C135.741 505.309 135.419 505.13 135.028 504.832C134.263 504.248 133.227 503.198 131.832 501.246C130.589 499.506 129.434 497.659 128.539 496.005C127.791 494.624 127.166 493.273 126.86 492.2C126.009 491.382 124.745 489.963 123.537 488.304C122.153 486.403 120.723 484.025 120.119 481.738C116.98 469.84 115.728 462.292 114.456 454.623C114.37 454.107 114.285 453.591 114.198 453.073C112.69 444.029 111.444 428.903 110.762 420.615C110.607 418.734 110.481 417.206 110.387 416.18C110.331 415.559 110.247 414.688 110.146 413.633C109.566 407.594 108.407 395.521 108.407 389.668C108.407 385.698 110.072 381.674 112.049 378.341C114.037 374.988 116.442 372.165 118.144 370.559C133.693 355.135 148.178 357.591 154.93 361.711C155.96 359.901 157.636 357.288 159.832 355.206C161.207 353.904 163.221 352.563 165.187 351.402C163.166 351.166 161.16 350.607 158.955 349.717C154.542 347.935 151.416 346.31 148.858 343.536C146.327 340.791 144.464 337.041 142.263 331.271C140.982 327.913 139.867 324.938 138.873 322.284C137.4 318.351 136.191 315.124 135.095 312.4C133.263 307.847 131.808 304.867 130.081 302.53C126.368 297.507 121.101 289.348 121.101 279.924C121.101 270.996 121.956 261.519 126.081 254.416C127.684 251.656 129.827 249.087 131.835 246.679C132.373 246.034 132.901 245.4 133.407 244.777C135.876 241.739 137.834 238.938 138.51 235.947C138.824 234.558 139.063 232.991 139.329 231.253C140.281 225.018 141.568 216.588 147.815 206.314C147.9 202.702 149.02 197.169 150.788 191.707C152.625 186.029 155.249 180.161 158.37 176.463C163.118 170.836 170.872 166.059 174.427 164.212C177.796 160.088 185.733 152.307 189.79 148.49C197.563 141.175 201.906 137.581 213.88 131.628C224.05 126.571 233.839 125.14 248.996 125.539C251.547 125.606 254.035 125.684 256.449 125.792C258.11 119.672 260.933 107.937 261.222 101.562C261.617 92.872 262.282 79.1328 265.268 69.7586C266.73 65.1705 269.774 55.973 273.222 46.9291C274.945 42.4079 276.776 37.9088 278.566 34.0362C280.342 30.1924 282.123 26.8643 283.763 24.7544C287.319 20.1785 291.865 15.5793 296.6 11.7857C301.317 8.00681 306.319 4.94974 310.792 3.56319C316.421 1.8184 321.255 1.1263 325.863 1.77566C330.487 2.42726 334.739 4.40889 339.237 7.77091C348.581 14.7539 351.408 26.0623 351.408 35.2186C351.408 41.0736 349.071 51.4083 345.493 62.2565C341.902 73.147 336.984 84.7866 331.685 93.277C326.476 101.625 321.395 109.919 317.322 117.024C313.225 124.171 310.22 129.991 309.082 133.441C307.443 138.409 308.213 143.107 308.883 145.169C309.462 145.496 310.027 145.792 310.59 146.088C310.916 146.259 311.241 146.43 311.568 146.606C312.566 147.143 313.581 147.729 314.409 148.452C315.16 149.106 315.631 149.625 315.928 150.018C316.074 150.21 316.18 150.374 316.257 150.512L317.26 151.641ZM305.353 143.105C304.937 140.284 304.924 136.469 306.233 132.501C307.48 128.718 310.642 122.645 314.72 115.532C318.822 108.377 323.926 100.043 329.14 91.6888C334.265 83.4771 339.094 72.0836 342.644 61.317C346.209 50.5081 348.408 40.5617 348.408 35.2186C348.408 26.5436 345.72 16.3607 337.442 10.174C333.227 7.02418 329.439 5.30919 325.445 4.74631C321.435 4.1812 317.074 4.75674 311.68 6.42869C307.715 7.65767 303.053 10.4603 298.476 14.127C293.917 17.7791 289.538 22.2116 286.132 26.5952C284.716 28.4173 283.052 31.4793 281.289 35.2947C279.539 39.0813 277.735 43.5106 276.025 47.9978C272.604 56.9709 269.578 66.1111 268.126 70.6693C265.285 79.5879 264.619 92.89 264.219 101.698C263.923 108.209 261.198 119.653 259.514 125.948C268.362 126.458 276.247 127.494 282.473 130.094C281.757 127.783 280.962 125.164 280.146 122.402C279.364 119.752 278.588 117.372 277.851 115.114C275.514 107.948 273.577 102.01 273.107 92.5574C272.696 84.2931 274.446 70.2223 282.154 55.0728C285.564 48.3704 290.128 43.5069 293.652 41.2625C294.351 40.8175 295.278 41.0232 295.723 41.722C296.168 42.4208 295.962 43.348 295.264 43.7929C292.281 45.6925 288.047 50.1049 284.828 56.4332C277.365 71.1014 275.718 84.6499 276.103 92.4084C276.552 101.43 278.342 106.923 280.643 113.985C281.336 116.109 282.074 118.376 282.836 120.923C285.982 122.335 291.599 122.569 297.376 116.136C301.918 111.079 305.222 106.706 307.297 101.165C309.373 95.6215 310.265 88.7777 309.734 78.7346C309.69 77.9073 310.325 77.2012 311.152 77.1575C311.98 77.1137 312.686 77.7488 312.729 78.5761C313.273 88.8549 312.378 96.1503 310.107 102.217C307.834 108.286 304.231 112.994 299.608 118.141C294.033 124.349 288.186 125.403 283.877 124.417C284.723 127.231 285.522 129.814 286.201 131.96C290.75 134.567 298.636 139.17 305.353 143.105ZM170.038 170.354C166.821 172.528 163.231 175.354 160.663 178.397C157.92 181.647 155.441 187.071 153.642 192.631C151.844 198.184 150.81 203.605 150.81 206.745C150.81 210.01 151.397 217.369 152.478 225.075C153.565 232.819 155.12 240.669 156.986 245.024C159.958 251.957 163.258 255.443 168.624 260.28C168.5 259.886 168.376 259.483 168.252 259.072C167.279 255.842 166.261 251.938 165.296 247.949C163.366 239.97 161.629 231.583 160.864 227.429C159.313 219.011 158.875 201.24 160.863 190.193C161.691 185.595 164.132 180.335 166.761 175.707C167.838 173.811 168.959 171.999 170.038 170.354ZM149.31 206.745H147.81C147.81 208.026 147.893 209.858 148.053 212.052C144.134 219.816 143.155 226.178 142.342 231.467C142.059 233.306 141.796 235.015 141.436 236.608C140.591 240.348 138.207 243.627 135.735 246.669C135.172 247.363 134.603 248.045 134.04 248.721C132.059 251.099 130.137 253.406 128.675 255.922C124.983 262.282 124.101 271.046 124.101 279.924C124.101 288.306 128.823 295.781 132.493 300.747C134.457 303.405 136.027 306.68 137.878 311.28C138.984 314.029 140.214 317.311 141.699 321.275C142.694 323.93 143.803 326.891 145.066 330.202C147.249 335.924 148.947 339.207 151.064 341.502C153.154 343.768 155.761 345.192 160.078 346.935C164.204 348.601 167.37 348.932 171.638 348.081C174.592 347.492 176.225 347.012 178.239 346.419C178.896 346.226 179.593 346.021 180.39 345.796C182.853 345.101 184.401 344.515 185.605 343.867C186.769 343.241 187.672 342.527 188.814 341.487C190.141 339.906 190.537 338.851 191.219 337.033C191.257 336.931 191.296 336.828 191.336 336.722C191.747 335.631 192.397 332.729 192.971 329.437C193.537 326.194 193.991 322.792 194.063 320.727V308.805C194.063 307.311 193.582 305.094 192.729 302.405C191.887 299.754 190.726 296.775 189.461 293.814C186.93 287.891 184.019 282.123 182.516 279.332C181.395 277.25 179.333 274.723 177.131 272.358C174.949 270.014 172.718 267.922 171.342 266.723L171.335 266.716L171.328 266.71C170.564 266.026 169.829 265.374 169.121 264.746C162.236 258.637 157.913 254.802 154.229 246.205C152.186 241.44 150.592 233.221 149.508 225.492C148.821 220.595 148.325 215.798 148.053 212.052C148.788 210.596 149.627 209.09 150.587 207.532L149.31 206.745ZM154.488 365.037C149.74 361.38 135.925 357.128 120.231 372.714L120.217 372.728L120.203 372.741C118.702 374.158 116.473 376.762 114.629 379.871C112.773 383.001 111.407 386.474 111.407 389.668C111.407 395.346 112.54 407.166 113.123 413.257C113.228 414.347 113.315 415.253 113.374 415.908C113.471 416.974 113.601 418.546 113.76 420.468C114.446 428.79 115.675 443.684 117.157 452.58C117.245 453.107 117.332 453.631 117.419 454.154C118.687 461.796 119.921 469.225 123.02 480.972C123.481 482.72 124.652 484.738 125.963 486.538C126.286 486.982 126.61 487.403 126.925 487.792C126.96 487.694 126.999 487.597 127.039 487.502C127.536 486.338 128.362 485.515 129.266 485.008C129.928 484.637 130.649 484.423 131.343 484.373C131.238 482.794 131.151 480.728 131.115 478.587C131.054 474.989 131.135 470.946 131.576 468.468C131.721 467.652 132.5 467.109 133.315 467.254C134.131 467.399 134.675 468.178 134.53 468.993C134.145 471.153 134.054 474.929 134.114 478.537C134.172 482.001 134.365 485.094 134.517 486.202C134.847 487.164 135.429 489.291 135.955 491.317C136.517 493.477 137.06 495.687 137.217 496.501C137.372 497.303 137.511 498.257 137.61 498.995C137.654 499.323 137.691 499.612 137.718 499.835L137.729 499.921L137.73 499.926C137.867 500.141 137.99 500.357 138.095 500.541C138.122 500.589 138.148 500.634 138.172 500.677C138.364 501.01 138.54 501.296 138.762 501.571C139.174 502.079 139.837 502.661 141.227 503.142C141.888 503.37 142.72 503.562 143.508 503.711L142.991 501.57L142.973 501.494L142.962 501.417C142.878 500.788 142.778 499.802 142.748 498.867C142.733 498.401 142.735 497.916 142.772 497.479C142.803 497.107 142.875 496.54 143.132 496.069C143.937 494.588 145.57 493.951 146.99 494.237C147.69 494.378 148.25 494.749 148.693 495.193C148.641 495.056 148.592 494.917 148.544 494.778C148.303 494.075 148.057 493.219 147.813 492.263C147.324 490.348 146.829 487.963 146.399 485.469C145.55 480.533 144.922 474.946 145.199 471.673C145.269 470.848 145.995 470.235 146.821 470.305C147.646 470.375 148.258 471.101 148.188 471.926C147.947 474.78 148.508 480.031 149.356 484.96C149.775 487.397 150.255 489.702 150.72 491.521C150.755 491.659 150.79 491.795 150.825 491.926C150.918 491.773 151.012 491.624 151.107 491.48C152.104 489.968 153.555 489.309 155.008 489.483C156.348 489.643 157.514 490.497 158.095 491.612C158.475 492.341 158.488 493.17 158.43 493.811C158.368 494.494 158.2 495.212 158.005 495.872C157.614 497.196 157.054 498.496 156.754 499.184C156.579 499.584 156.364 500.088 156.074 500.766C157.159 501.143 158.623 501.417 160.489 501.174C162.278 500.941 164.548 500.277 166.687 499.301C168.844 498.317 170.715 497.085 171.827 495.803C173.819 493.505 174.601 491.722 174.986 490.298C175.177 489.591 175.279 488.946 175.374 488.291C174.072 488.32 172.983 488.091 172.137 487.745C171.961 488.024 171.769 488.322 171.576 488.609C171.29 489.035 170.96 489.5 170.655 489.838C170.525 489.981 170.283 490.237 169.964 490.41C169.808 490.495 169.452 490.662 168.986 490.613C168.408 490.553 167.99 490.203 167.768 489.819C167.392 489.166 167.19 488.328 167.066 487.536C166.936 486.708 166.869 485.768 166.842 484.812C166.79 482.897 166.898 480.798 167.051 479.155C167.111 478.518 167.325 477.492 167.482 476.742C166.512 474.978 165.384 471.744 164.987 467.33C164.766 464.871 164.768 461.861 164.821 459.5C164.848 458.312 164.889 457.275 164.922 456.534C164.939 456.163 164.954 455.866 164.965 455.661C164.971 455.559 164.975 455.479 164.979 455.425C164.98 455.398 164.981 455.377 164.982 455.363C164.983 455.356 164.983 455.35 164.983 455.346V455.342V455.341V455.34C165.034 454.513 165.745 453.883 166.572 453.934C167.399 453.984 168.028 454.695 167.978 455.522V455.523V455.526L167.978 455.53C167.978 455.533 167.977 455.536 167.977 455.54C167.976 455.552 167.975 455.571 167.974 455.597C167.972 455.633 167.969 455.682 167.966 455.743C167.964 455.767 167.963 455.794 167.961 455.822C167.95 456.02 167.936 456.308 167.919 456.67C167.886 457.394 167.847 458.408 167.821 459.568C167.768 461.903 167.769 464.776 167.975 467.062C168.157 469.082 168.501 470.786 168.889 472.152L168.897 472.133L168.938 472.064C169.263 471.51 169.638 470.994 170.093 470.638C170.583 470.254 171.353 469.936 172.202 470.275C172.903 470.556 173.278 471.155 173.469 471.534C173.684 471.961 173.835 472.456 173.948 472.938C174.391 474.837 174.489 477.686 174.46 479.665C174.459 480.58 174.38 481.813 174.164 483.027C174.046 483.69 173.877 484.41 173.626 485.09C173.689 485.109 173.756 485.127 173.825 485.144C174.516 485.314 175.531 485.389 176.879 485.098C176.879 485.098 176.952 485.078 177.12 485.003C177.275 484.933 177.471 484.834 177.704 484.705C178.167 484.447 178.731 484.096 179.331 483.683C180.543 482.85 181.813 481.829 182.666 480.919C183.757 479.756 184.849 478.054 185.666 476.184C186.486 474.307 186.976 472.38 186.976 470.777C186.976 467.094 186.304 458.43 184.818 453.239C184.33 451.536 183.633 449.497 182.975 447.596C182.909 447.404 182.842 447.212 182.776 447.022C182.208 445.383 181.681 443.862 181.409 442.892C180.58 440.342 179.561 437.44 178.469 434.33L178.468 434.328L178.223 433.631C177.036 430.247 175.778 426.645 174.616 423.045C172.304 415.887 170.315 408.585 170.039 402.931C169.815 398.351 169.043 393.131 168.056 388.534C167.06 383.895 165.877 380.048 164.888 378.134C163.202 374.872 161.223 371.153 154.488 365.037ZM152.729 500.949C153 500.321 153.229 499.786 153.425 499.329C153.664 498.772 153.852 498.332 154.005 497.982C154.303 497.3 154.795 496.151 155.127 495.024C155.294 494.458 155.405 493.95 155.442 493.541C155.483 493.089 155.414 492.96 155.435 492.999C155.297 492.735 154.977 492.5 154.652 492.462C154.511 492.445 154.367 492.464 154.217 492.538C154.065 492.613 153.847 492.775 153.613 493.131C153.052 493.982 152.478 495.127 151.96 496.31C151.887 496.477 151.824 496.62 151.767 496.748C151.41 497.556 151.328 497.741 150.895 499.053C150.805 499.328 150.67 499.992 150.618 500.749C150.613 500.936 150.605 501.121 150.594 501.306C150.578 501.589 150.557 501.869 150.535 502.159C150.478 502.91 150.415 503.734 150.415 504.882C150.415 505.42 150.436 505.909 150.473 506.337C150.543 506.236 150.611 506.134 150.676 506.03C151.118 505.329 151.398 504.661 151.512 504.356C152.034 502.962 152.051 502.909 152.195 502.486C152.277 502.242 152.402 501.873 152.691 501.048L152.708 500.998L152.729 500.949ZM147.501 506.776C147.442 506.186 147.415 505.546 147.415 504.882C147.415 503.61 147.49 502.618 147.549 501.845C147.568 501.591 147.586 501.361 147.598 501.153C147.601 500.977 147.609 500.8 147.62 500.625C147.625 500.339 147.615 500.082 147.585 499.824C147.524 499.289 147.32 498.55 147.007 497.949C146.687 497.334 146.435 497.199 146.401 497.18C146.398 497.178 146.398 497.178 146.398 497.178C146.215 497.142 145.951 497.223 145.799 497.451C145.792 497.486 145.775 497.573 145.761 497.733C145.738 498.008 145.733 498.365 145.746 498.772C145.771 499.546 145.855 500.387 145.927 500.946L146.947 505.173L146.949 505.183C147.04 505.57 147.244 506.146 147.501 506.776ZM134.732 500.128C134.707 499.925 134.675 499.674 134.637 499.393C134.54 498.672 134.41 497.786 134.271 497.07C134.135 496.367 133.619 494.252 133.052 492.072C132.546 490.126 132.032 488.257 131.743 487.364C131.498 487.346 131.118 487.409 130.735 487.623C130.361 487.833 130.015 488.172 129.797 488.681C129.58 489.19 129.451 489.967 129.679 491.109C129.811 491.768 130.319 492.994 131.177 494.577C132.009 496.114 133.097 497.855 134.273 499.502C134.433 499.726 134.586 499.934 134.732 500.128ZM131.911 487.395C131.911 487.395 131.899 487.393 131.882 487.384C131.904 487.389 131.911 487.395 131.911 487.395ZM136.826 504.138L136.821 504.139L137.028 504.108L136.826 504.138ZM197.063 318.274C199.806 316.874 204.292 314.666 209.711 312.215C214.413 310.088 221.952 307.991 229.468 306.119C233.341 305.154 237.165 304.259 240.66 303.441C244.073 302.642 247.173 301.916 249.696 301.271C251.958 300.693 255.969 299.962 260.723 299.097C262.779 298.722 264.975 298.323 267.227 297.899C274.762 296.483 283.031 294.785 289.362 292.823C303.049 288.581 317.165 279.56 325.948 271.848C334.827 264.053 336.303 261.834 336.97 260.419C336.974 260.403 336.989 260.34 336.999 260.211C337.014 260.019 337.014 259.756 336.992 259.423C336.948 258.756 336.825 257.921 336.651 257.01C336.423 255.815 336.119 254.551 335.83 253.466C334.452 253.922 332.996 254.342 331.452 254.724C331.425 254.769 331.399 254.811 331.375 254.85C331.166 255.186 330.89 255.581 330.564 256.017C329.911 256.89 329.011 257.986 327.94 259.182C325.8 261.572 322.922 264.429 319.865 266.781C313.604 271.598 308.363 273.845 301.702 276.701C300.856 277.064 299.986 277.437 299.088 277.826C291.671 281.042 280.932 283.906 273.212 285.727C260.472 288.733 239.59 294.462 229.252 297.298C228.164 297.597 227.193 297.863 226.36 298.091C223.898 298.765 217.523 300.6 211.184 302.856C208.013 303.984 204.877 305.209 202.253 306.439C199.928 307.528 198.138 308.561 197.063 309.464V318.274ZM352.457 493.511L352.425 493.439L352.405 493.393L352.381 493.349C351.48 491.636 350.878 489.822 350.529 488.01C350.238 486.493 350.124 484.982 350.161 483.541V483.503C350.161 483.512 350.167 483.402 350.303 483.214C350.432 483.035 350.616 482.877 350.803 482.782C350.991 482.687 351.104 482.692 351.14 482.699C351.14 482.699 351.234 482.705 351.382 482.923C351.713 483.412 352.09 484.289 352.467 485.45C353.205 487.724 353.785 490.584 354.051 492.207C354.113 492.982 354.11 494.109 353.986 495.147C353.953 495.425 353.912 495.685 353.864 495.922C353.816 495.863 353.767 495.802 353.717 495.736C353.664 495.667 353.611 495.595 353.558 495.519C353.033 494.77 352.635 493.914 352.457 493.511ZM356.344 498.047C356.924 498.84 357.762 499.791 358.694 500.737C359.919 501.98 361.194 503.1 362.051 503.714C364.992 505.822 369.695 505.964 374.017 504.091L372.763 498.459C372.212 496.52 373.294 494.665 374.659 493.805C375.388 493.346 376.334 493.074 377.328 493.295C378.292 493.509 379.085 494.135 379.651 495.042C379.848 492.909 380.016 490.445 380.086 487.924C380.214 483.385 380.023 478.807 379.199 475.627C378.991 474.825 379.472 474.006 380.274 473.798C381.076 473.591 381.895 474.072 382.103 474.874C383.039 478.485 383.214 483.418 383.085 488.008C382.964 492.334 382.566 496.49 382.209 499.204C382.605 499.843 383.004 500.5 383.382 501.162C383.411 501.133 383.439 501.105 383.468 501.078C383.879 500.689 384.405 500.327 385.074 500.125C385.749 499.92 386.48 499.906 387.253 500.084C388.409 500.349 389.212 501.106 389.764 501.893C390.013 502.248 390.228 502.633 390.416 503.026C390.934 502.67 391.632 502.009 392.342 500.79C392.695 500.185 393.048 499.221 393.374 497.928C393.694 496.655 393.967 495.152 394.195 493.523C394.651 490.265 394.917 486.593 395.048 483.441C395.068 482.959 395.085 482.49 395.099 482.037C395.248 477.17 393.263 469.958 392.219 466.912C391.951 466.128 392.368 465.275 393.152 465.006C393.935 464.738 394.788 465.156 395.057 465.939C396.012 468.725 397.845 475.197 398.081 480.432C398.687 480.322 399.264 480.402 399.766 480.576C400.129 480.701 400.458 480.875 400.748 481.062C402.662 476.718 404.844 471.612 405.584 465.208C405.765 463.65 405.711 460.816 405.478 457.123C405.247 453.47 404.849 449.087 404.374 444.498C403.547 436.492 402.492 427.898 401.708 421.499C401.593 420.561 401.483 419.669 401.381 418.834C400.32 410.149 400.318 410.102 400.197 407.867C400.138 406.797 400.053 405.224 399.811 401.96C399.325 395.4 398.814 391.962 398.109 389.054C397.681 387.286 397.193 385.743 396.58 383.807C396.159 382.477 395.68 380.963 395.121 379.063C394.206 376.551 391.703 370.231 387.15 364.74C382.586 359.237 376.102 354.717 367.159 355.466C365.638 355.594 363.618 356.243 361.316 357.329C359.04 358.402 356.589 359.854 354.236 361.487C349.465 364.798 345.351 368.677 343.807 371.456C342.097 374.535 341.209 376.686 340.617 379.965C340.009 383.337 339.716 387.889 339.276 395.803C338.956 401.581 338.523 408.105 338.103 414.443C337.371 425.496 336.676 435.981 336.676 440.956V464.595C336.676 470.379 337.63 475.58 339.042 479.601C340.483 483.707 342.303 486.307 343.824 487.252C345.188 488.101 346.237 488.015 346.92 487.801C347.106 487.743 347.272 487.673 347.417 487.601C347.209 486.208 347.129 484.831 347.161 483.503C347.161 482.712 347.479 481.999 347.871 481.457C348.27 480.904 348.819 480.424 349.45 480.105C350.081 479.786 350.873 479.592 351.71 479.754C352.382 479.884 352.98 480.224 353.467 480.74C354.073 477.741 354.533 473.668 354.051 469.654C353.953 468.831 354.539 468.084 355.362 467.985C356.184 467.887 356.931 468.473 357.03 469.296C357.797 475.684 356.408 482.099 355.471 485.003C356.209 487.409 356.765 490.203 357.021 491.789L357.03 491.844L357.035 491.9C357.118 492.869 357.118 494.23 356.965 495.504C356.888 496.143 356.768 496.8 356.585 497.394C356.52 497.603 356.441 497.825 356.344 498.047ZM384.866 504.133C385.017 504.519 385.165 504.944 385.293 505.368C385.505 506.07 385.708 506.921 385.708 507.642V509.904C386.293 510.5 387.102 511.348 387.908 512.348C388.165 510.582 388.399 508.74 388.469 507.554C388.513 506.796 388.392 506.08 388.163 505.435C387.892 504.672 387.616 504.055 387.307 503.615C387.006 503.186 386.764 503.049 386.582 503.008C386.256 502.933 386.061 502.961 385.943 502.996C385.82 503.033 385.687 503.109 385.53 503.257C385.365 503.413 385.199 503.626 385.011 503.908C384.982 503.951 384.954 503.995 384.925 504.039C384.906 504.07 384.886 504.101 384.866 504.133ZM382.708 509.66V507.642C382.708 507.38 382.615 506.877 382.421 506.235C382.237 505.626 382.005 505.028 381.818 504.628C381.184 503.275 380.302 501.811 379.378 500.333C379.21 500.064 379.041 499.794 378.871 499.524C378.261 498.552 377.653 497.585 377.148 496.701C376.906 496.278 376.713 496.231 376.679 496.224C376.617 496.21 376.473 496.209 376.258 496.344C376.042 496.48 375.84 496.708 375.722 496.973C375.607 497.23 375.596 497.463 375.653 497.653L375.669 497.705L375.681 497.759L377.108 504.172L382.452 509.409L382.708 509.66ZM348.642 483.503H348.661L350.161 483.541L348.642 483.503ZM366.611 208.719C367.548 207.511 368.183 206.128 368.34 205.466C368.996 202.688 369.622 199.589 368.728 190.559C367.882 191.23 366.931 191.682 365.903 192.006C365.233 192.218 364.401 192.377 363.446 192.443C363.571 194.604 363.624 197.584 363.455 200.483C363.347 202.345 363.144 204.215 362.797 205.833C362.656 206.493 362.482 207.153 362.262 207.773C362.759 207.844 363.281 207.928 363.802 208.025C364.723 208.195 365.736 208.421 366.611 208.719ZM370.405 169.279C370.406 169.221 370.407 169.162 370.407 169.102C370.407 169.059 370.407 169.015 370.407 168.971C370.407 167.776 369.556 162.291 364.58 158.731C364.446 158.635 364.318 158.543 364.195 158.455C362.645 157.342 361.911 156.814 360.102 156.34C357.996 155.789 354.548 155.354 347.359 154.641H346.432C345.187 154.697 343.664 155.248 341.86 156.269C340.065 157.283 338.131 158.68 336.095 160.259C332.762 162.843 331.041 164.684 330.215 166.476C329.421 168.199 329.363 170.084 329.925 173.03C330.688 177.021 333.889 179.847 337.765 181.105C337.955 181.167 338.135 181.227 338.309 181.285C339.35 181.634 340.17 181.909 341.52 181.923C341.589 181.912 341.686 181.897 341.804 181.879C342.053 181.84 342.397 181.786 342.777 181.724C343.517 181.604 344.372 181.461 344.944 181.349C346.044 181.022 346.951 180.469 347.578 179.907C347.897 179.621 348.123 179.351 348.264 179.132C348.377 178.957 348.408 178.859 348.414 178.839L348.415 178.835C348.435 178.608 348.429 178.2 348.421 177.577C348.42 177.477 348.419 177.372 348.417 177.261C348.407 176.506 348.4 175.582 348.455 174.664C348.509 173.761 348.626 172.775 348.899 171.918C349.156 171.111 349.66 170.071 350.736 169.582C352.421 168.816 354.102 169.614 355.203 170.439C356.374 171.318 357.401 172.584 358.067 173.771C359.18 175.759 359.18 177.626 359.18 178.189V178.193C359.18 179.091 358.75 179.787 358.268 180.269C357.802 180.737 357.219 181.078 356.684 181.332C355.63 181.832 354.384 182.162 353.589 182.373L353.558 182.381L353.455 182.409C353.008 182.528 348.793 183.644 345.595 184.278C345.426 184.312 345.234 184.348 345.029 184.385C345.167 184.494 345.31 184.605 345.456 184.718C347.146 186.015 349.24 187.371 351.14 187.956C354.031 188.846 358.502 189.308 361.899 189.463C363.273 189.526 364.344 189.352 365.002 189.145C365.848 188.878 366.496 188.535 367.021 188.076C367.545 187.618 368.015 186.984 368.424 186.043C368.96 184.812 368.831 183.241 368.454 182.478C367.956 181.467 367.39 180.689 366.865 179.967L366.785 179.858C366.525 179.499 366.241 179.105 366.022 178.718C365.804 178.333 365.573 177.825 365.536 177.231C365.488 176.449 365.468 176.201 365.459 176.082C365.446 175.918 365.445 175.888 365.436 175.609C365.386 174.016 365.446 172.126 365.491 170.69C365.514 169.973 365.533 169.368 365.533 168.971C365.533 168.34 365.714 167.383 366.611 166.883C367.481 166.398 368.346 166.724 368.792 166.991C369.53 167.433 370.164 168.27 370.405 169.279ZM351.225 179.889C351.994 179.692 352.535 179.549 352.684 179.509L352.787 179.482C353.634 179.257 354.623 178.99 355.398 178.622C355.785 178.438 356.022 178.273 356.145 178.15C356.16 178.135 356.171 178.123 356.18 178.113C356.178 177.623 356.136 176.463 355.449 175.237C354.954 174.353 354.188 173.428 353.403 172.84C352.601 172.238 352.165 172.25 352.007 172.302C351.98 172.331 351.876 172.457 351.758 172.827C351.597 173.333 351.498 174.029 351.45 174.843C351.402 175.643 351.406 176.471 351.416 177.221C351.417 177.316 351.419 177.413 351.42 177.51C351.429 178.111 351.438 178.719 351.402 179.119C351.378 179.386 351.314 179.644 351.225 179.889ZM280.409 243.66C279.076 243.841 277.823 244.029 276.666 244.24C274.989 244.546 273.622 244.885 272.598 245.29C271.538 245.708 271.066 246.111 270.888 246.401C270.471 247.079 270.085 247.767 269.805 248.381C269.725 248.557 269.659 248.715 269.606 248.855C269.809 248.787 270.047 248.697 270.323 248.579C272.385 247.695 276.468 245.666 280.409 243.66ZM171.46 479.632V479.621C171.483 478.009 171.414 475.988 171.187 474.478C170.951 475.137 170.703 475.951 170.539 476.771C170.494 476.997 170.443 477.241 170.391 477.489C170.24 478.217 170.081 478.978 170.038 479.433C169.893 480.992 169.793 482.965 169.841 484.729C169.851 485.062 169.865 485.383 169.885 485.69L169.975 485.545C170.152 485.26 170.323 484.985 170.425 484.839C170.738 484.393 171.02 483.568 171.21 482.501C171.392 481.478 171.46 480.414 171.46 479.643V479.632ZM170.752 472.817C170.752 472.817 170.757 472.823 170.766 472.838C170.756 472.825 170.752 472.817 170.752 472.817ZM224.628 173.398C224.742 172.577 225.499 172.004 226.32 172.118C226.615 172.159 226.883 172.201 227.146 172.243C228.138 172.4 229.048 172.545 231.035 172.545C235.426 172.545 238.774 172.318 241.902 171.345C245.002 170.381 247.991 168.648 251.568 165.476C251.971 165.118 252.578 164.329 253.145 163.508C253.413 163.121 253.649 162.762 253.818 162.499C253.902 162.368 253.969 162.262 254.014 162.19L254.031 162.162C254.046 162.139 254.057 162.12 254.066 162.107C254.068 162.103 254.071 162.099 254.073 162.096C254.075 162.092 254.077 162.089 254.078 162.087C254.079 162.085 254.081 162.082 254.081 162.082C254.515 161.375 255.438 161.154 256.144 161.587C256.85 162.021 257.072 162.944 256.638 163.65V163.652L256.636 163.654C256.635 163.656 256.634 163.658 256.632 163.661C256.63 163.664 256.627 163.669 256.624 163.674C256.622 163.678 256.619 163.682 256.616 163.687C256.602 163.709 256.582 163.741 256.557 163.782C256.506 163.863 256.432 163.979 256.341 164.121C256.16 164.404 255.905 164.793 255.613 165.215C255.061 166.013 254.268 167.09 253.558 167.72C249.752 171.096 246.4 173.088 242.793 174.21C239.214 175.323 235.49 175.545 231.035 175.545C228.805 175.545 227.676 175.366 226.655 175.203C226.404 175.164 226.16 175.125 225.908 175.09C225.087 174.976 224.514 174.219 224.628 173.398ZM400.041 490.565C400.28 491.287 400.451 491.703 400.533 491.846C400.773 492.266 401.148 492.842 401.55 493.389C401.555 493.341 401.56 493.291 401.564 493.242C401.658 492.257 401.678 491.384 401.628 490.961C401.563 490.404 401.343 488.836 401.032 487.317C400.876 486.556 400.704 485.841 400.527 485.285C400.438 485.005 400.357 484.795 400.289 484.652C400.266 484.602 400.248 484.569 400.236 484.55C400.158 484.476 400.086 484.406 400.016 484.339C399.846 484.175 399.689 484.024 399.485 483.854C399.196 483.614 398.963 483.472 398.788 483.411C398.651 483.364 398.609 483.382 398.568 483.401C398.512 483.427 398.365 483.516 398.159 483.78C398.465 485.01 398.888 486.646 399.314 488.156C399.566 489.05 399.816 489.887 400.041 490.565Z" fill="black"/>
<path d="M148.053 212.052C148.788 210.596 149.627 209.09 150.587 207.532L149.31 206.745H147.81C147.81 208.026 147.893 209.858 148.053 212.052Z" fill="black"/>
<path d="M272.598 245.29C271.538 245.708 271.066 246.111 270.888 246.401C270.471 247.079 270.085 247.767 269.805 248.381C269.725 248.557 269.659 248.715 269.606 248.855C269.809 248.787 270.047 248.697 270.323 248.579C272.385 247.695 276.468 245.666 280.409 243.66C279.076 243.841 277.823 244.029 276.666 244.24C274.989 244.546 273.622 244.885 272.598 245.29Z" fill="#F2EBE5"/>
</g>
</svg>
