<svg width="500" height="464" viewBox="0 0 500 464" fill="none" xmlns="http://www.w3.org/2000/svg">
<mask id="mask0_90_6212" style="mask-type:luminance" maskUnits="userSpaceOnUse" x="0" y="0" width="500" height="464">
<path d="M500 0.5H0V463.5H500V0.5Z" fill="white"/>
</mask>
<g mask="url(#mask0_90_6212)">
<path d="M98.1701 289.177L97.7784 289.862C95.4178 293.993 88.5225 304.625 79.6349 314.448C68.4919 326.764 51.5542 339.02 38.1415 346.601C35.1852 348.272 32.2423 349.52 29.4807 350.646C29.0886 350.806 28.7012 350.963 28.3184 351.118C25.9774 352.066 23.8084 352.945 21.8049 353.974L21.801 353.976C18.0669 355.881 15.0353 359.216 14.0257 360.602L13.9827 360.661L13.9342 360.715C12.7663 362.028 11.5632 364.701 10.595 367.488C10.252 368.475 9.95294 369.432 9.70557 370.291C9.81591 370.264 9.9263 370.24 10.0367 370.22C11.2819 369.991 12.4243 370.224 13.347 370.697C14.0219 371.042 14.5986 371.525 15.0242 372.076C16.2814 371.116 17.955 369.901 19.7191 368.687C22.6841 366.647 26.0969 364.479 28.4058 363.476C29.1657 363.146 30.0492 363.495 30.3792 364.254C30.7093 365.014 30.3608 365.898 29.601 366.228C27.5892 367.102 24.3925 369.113 21.4193 371.158C18.5684 373.12 16.1 374.988 15.2586 375.728C14.6402 376.534 13.1874 378.197 11.7883 379.759C10.2993 381.422 8.75789 383.095 8.16625 383.677C7.5836 384.249 6.86593 384.892 6.30591 385.383C6.02342 385.63 5.77618 385.843 5.59931 385.994C5.59829 385.995 5.59728 385.996 5.59627 385.997C5.49412 386.226 5.38428 386.444 5.29003 386.632C5.26355 386.684 5.2383 386.735 5.21479 386.782C5.04367 387.125 4.90238 387.43 4.79656 387.767C4.60091 388.391 4.48251 389.266 4.85024 390.69C5.02482 391.366 5.32504 392.166 5.63706 392.905L7.13501 391.291L7.18814 391.233L7.24694 391.182C7.3962 391.052 7.55897 390.894 7.7688 390.691C7.82617 390.636 7.88707 390.577 7.95217 390.514C8.2351 390.242 8.5726 389.924 8.94018 389.626C9.6201 389.073 10.6682 388.36 11.9281 388.36C12.7589 388.36 14.5476 388.684 15.4174 390.481C15.7239 391.115 15.8086 391.731 15.7535 392.309C15.7905 392.26 15.8278 392.211 15.8653 392.162C16.3172 391.573 16.8944 390.894 17.5563 390.162C18.8818 388.696 20.5948 386.965 22.4361 385.228C26.0794 381.791 30.3874 378.178 33.2676 376.6C33.9941 376.202 34.9057 376.468 35.3039 377.195C35.702 377.921 35.4358 378.833 34.7093 379.231C32.1978 380.607 28.1325 383.978 24.4947 387.41C22.6955 389.107 21.0411 390.781 19.7814 392.174C19.7404 392.219 19.7 392.264 19.66 392.309C19.6065 392.369 19.5538 392.428 19.502 392.486C19.6811 392.479 19.8574 392.475 20.03 392.474H20.035C21.5939 392.474 23.2045 392.919 24.0817 394.163C25.0692 395.564 24.6545 397.224 23.6736 398.541L23.6134 398.622L23.5429 398.694C22.649 399.608 21.2108 400.212 20.0331 400.606C18.7858 401.023 17.5224 401.3 16.7332 401.438C16.3765 401.501 15.9442 401.58 15.3925 401.681C15.2797 401.702 15.1619 401.724 15.0388 401.746C15.3245 402.859 15.9049 404.231 17.1402 405.652C18.3238 407.014 20.132 408.538 22.1277 409.78C24.14 411.033 26.2011 411.912 27.884 412.129C30.901 412.518 32.8189 412.184 34.218 411.718C34.9125 411.486 35.5067 411.214 36.1047 410.931C35.3613 409.862 34.9494 408.827 34.77 407.932C34.4405 407.939 34.0854 407.944 33.7399 407.942C33.2273 407.94 32.6568 407.922 32.2068 407.854C32.0159 407.825 31.6685 407.765 31.348 407.595C31.1913 407.512 30.8551 407.308 30.6375 406.892C30.368 406.377 30.4285 405.835 30.6264 405.438C30.9626 404.764 31.5485 404.132 32.1399 403.591C32.7583 403.025 33.5042 402.449 34.2868 401.898C35.8534 400.796 37.6617 399.726 39.1157 398.945C39.6791 398.642 40.6518 398.253 41.3638 397.97C42.2978 396.187 44.3682 393.457 47.827 390.686C49.754 389.143 52.2627 387.48 54.26 386.219C55.2646 385.585 56.1513 385.045 56.7874 384.663C57.1055 384.472 57.3613 384.321 57.5382 384.217C57.6266 384.165 57.6954 384.124 57.7423 384.097C57.7625 384.085 57.7786 384.076 57.7906 384.069L57.7962 384.066L57.8104 384.057L57.8142 384.055H57.8153L57.8158 384.054C58.5326 383.639 59.4504 383.883 59.8658 384.6C60.2812 385.317 60.0368 386.234 59.3201 386.65L59.3167 386.652C59.3141 386.653 59.31 386.656 59.3046 386.659C59.2937 386.665 59.2771 386.675 59.2551 386.688C59.2111 386.713 59.1455 386.752 59.0603 386.802C58.8899 386.902 58.6412 387.05 58.3308 387.236C57.7098 387.608 56.8429 388.136 55.8616 388.756C53.8868 390.003 51.494 391.593 49.7027 393.028C48.1195 394.296 46.8897 395.526 45.966 396.604L45.9872 396.601L46.0671 396.596C46.7087 396.56 47.3461 396.588 47.8943 396.77C48.4846 396.966 49.1757 397.432 49.3621 398.327C49.5162 399.067 49.2248 399.71 49.014 400.079C48.7769 400.494 48.4486 400.893 48.1092 401.253C46.7729 402.672 44.4544 404.328 42.7903 405.398C42.0269 405.903 40.9545 406.52 39.8218 407.012C39.2042 407.28 38.5106 407.537 37.8049 407.705C37.8242 407.768 37.8458 407.833 37.8701 407.9C38.1117 408.572 38.6124 409.462 39.6054 410.427C39.6262 410.444 39.6878 410.491 39.8101 410.568C39.9544 410.659 40.1454 410.767 40.3811 410.889C40.852 411.133 41.4561 411.409 42.1317 411.68C43.4966 412.229 45.0492 412.723 46.2797 412.931C47.852 413.197 49.8734 413.166 51.8836 412.813C53.9007 412.458 55.7773 411.801 57.1136 410.915C60.1823 408.878 67.0296 403.528 70.533 399.419C73.8919 395.48 74.9712 393.784 77.0777 390.474C77.5075 389.798 77.9801 389.056 78.5236 388.213C83.8131 380.013 88.6968 371.434 92.7698 364.091C93.8495 362.145 94.8754 360.279 95.8382 358.528C98.4865 353.713 100.658 349.765 102.158 347.39L102.17 347.371C105.645 341.868 111.43 332.707 118.139 323.899C124.819 315.129 132.561 306.51 139.975 302.293C146.933 298.335 157.652 289.202 166.73 280.947C171.245 276.84 175.318 272.985 178.262 270.157C179.734 268.742 180.923 267.585 181.744 266.782C181.885 266.644 182.015 266.517 182.134 266.4C169.229 246.909 145.535 198.755 158.015 120.022C158.144 119.204 158.913 118.645 159.731 118.775C160.549 118.905 161.107 119.673 160.978 120.491C148.436 199.618 172.838 247.289 185.231 265.635C188.769 269.157 192.366 270.931 198.317 272.023C203.688 273.008 210.845 273.417 221.458 274.023C222.96 274.109 224.532 274.199 226.178 274.295C227.422 274.368 228.671 274.443 229.927 274.518C242.128 275.25 255.053 276.025 272.038 275.182C276.359 274.967 280.099 274.811 283.389 274.674C292.204 274.307 297.782 274.074 302.62 273.207C309.097 272.045 314.207 269.743 324.037 264.176C336.485 253.176 346.781 243.606 353.405 223.795C360.089 203.805 363.058 173.291 360.312 120.334C360.269 119.507 360.905 118.802 361.732 118.759C362.56 118.716 363.265 119.352 363.308 120.179C366.058 173.219 363.12 204.2 356.25 224.746C349.529 244.848 339.071 254.865 326.922 265.629C329.822 269.624 330.89 270.764 334.416 274.527C335.492 275.676 336.798 277.07 338.455 278.864C344.327 285.222 350.73 294.582 356.223 303.841C361.717 313.102 366.366 322.371 368.701 328.584V328.586L368.711 328.611C369.699 331.241 371.027 335.55 372.646 340.806C373.234 342.714 373.86 344.746 374.522 346.868C377.024 354.883 380.069 364.273 383.588 373.375C383.951 374.312 384.264 375.137 384.548 375.887C385.94 379.551 386.654 381.431 389.144 385.967L389.155 385.988L389.166 386.009C391.811 391.216 394.868 395.779 397.795 399.066C399.26 400.711 400.666 402.005 401.944 402.901C403.243 403.812 404.299 404.232 405.081 404.3C406.682 404.438 407.578 403.886 408.09 403.387C408.168 403.311 408.239 403.234 408.304 403.158C408.354 403.099 408.4 403.04 408.442 402.983C407.619 401.826 406.919 400.623 406.343 399.414C405.999 398.716 405.963 397.951 406.065 397.3C406.17 396.627 406.442 395.95 406.86 395.379C407.279 394.809 407.897 394.277 408.716 394.043C409.374 393.855 410.062 393.887 410.729 394.127C409.912 391.178 408.477 387.338 406.229 383.977C405.769 383.289 405.954 382.357 406.642 381.897C407.331 381.436 408.263 381.621 408.723 382.31C412.299 387.657 413.966 394.005 414.446 397.018C416.195 398.83 417.956 401.07 418.902 402.367L418.935 402.413L418.965 402.46C419.478 403.287 420.093 404.5 420.534 405.706C420.755 406.31 420.946 406.949 421.051 407.562C421.088 407.778 421.118 408.012 421.132 408.254C422.008 408.698 423.185 409.167 424.446 409.588C426.101 410.141 427.745 410.562 428.787 410.721C432.363 411.269 436.621 409.266 439.627 405.639L435.963 401.191C434.588 399.712 434.711 397.565 435.541 396.177C435.983 395.438 436.703 394.767 437.689 394.514C438.645 394.268 439.637 394.467 440.552 395.021C439.761 393.029 438.795 390.756 437.716 388.476C435.774 384.371 433.53 380.376 431.355 377.914C430.807 377.293 430.865 376.345 431.486 375.797C432.107 375.248 433.055 375.307 433.604 375.928C436.073 378.723 438.464 383.042 440.428 387.193C442.279 391.106 443.807 394.99 444.717 397.572C445.36 397.962 446.013 398.367 446.649 398.786C446.662 398.748 446.675 398.71 446.688 398.673C446.878 398.14 447.184 397.578 447.688 397.095C448.198 396.607 448.842 396.263 449.613 396.071C450.764 395.784 451.822 396.096 452.671 396.548C453.053 396.752 453.419 396.997 453.765 397.262C454.065 396.711 454.389 395.806 454.47 394.397C454.51 393.697 454.389 392.678 454.093 391.377C453.803 390.098 453.365 388.634 452.83 387.078C451.763 383.97 450.338 380.579 449.028 377.711L448.434 376.428C446.363 372.022 441.327 366.49 439.017 364.247C438.423 363.67 438.409 362.721 438.986 362.126C439.563 361.532 440.512 361.518 441.107 362.095C443.22 364.146 447.785 369.087 450.366 373.647C450.857 373.274 451.408 373.084 451.934 373.012C452.314 372.959 452.687 372.966 453.03 373.001C452.769 368.262 452.401 362.721 450.162 356.677C449.099 354.042 446.984 352.009 446.118 351.371L446.091 351.352L446.065 351.331C444.31 349.916 442.363 348.615 440.261 347.211C439.919 346.983 439.573 346.752 439.223 346.517C436.746 344.855 434.117 343.037 431.56 340.802C419.961 330.662 405.856 315.23 397.438 300.913C390.724 289.494 386.124 277.686 384.649 273.162L384.404 272.412L384.884 271.785C388.673 266.84 398.082 255.04 405.371 247.482C409.546 243.152 411.739 236.927 412.196 228.429C412.654 219.92 411.363 209.298 408.73 196.373C406.057 183.253 404.456 150.174 403.287 116.668C402.841 103.896 402.458 91.0446 402.104 79.1655C401.526 59.7795 401.026 42.9827 400.456 33.3445C399.669 20.0481 399.264 9.59027 399.076 0.286224L142.216 0.271357C142.14 7.69338 140.35 28.4266 133.832 52.6379C132.101 59.0645 129.604 68.6943 126.636 80.1386C122.608 95.6685 117.713 114.54 112.693 133.282C104.02 165.664 95.0121 197.501 89.7468 209.787C84.5507 221.911 81.1354 232.052 79.8611 240.477C78.5883 248.892 79.4747 255.432 82.6867 260.518C88.2935 269.396 95.1187 282.856 97.8269 288.466L98.1701 289.177Z" fill="#F2EBE5"/>
<path d="M222.925 339.565C223.297 364.256 221.6 397.825 205.909 457.053C205.68 457.915 206.077 458.502 206.584 458.754C207.066 458.993 207.672 458.952 208.14 458.255C231.496 423.525 240.092 388.062 246.363 356.199C247.126 352.322 247.855 348.493 248.573 344.723C250.8 333.033 252.919 321.907 255.596 311.662C258.853 299.196 262.964 287.906 269.191 278.312C253.493 278.938 241.238 278.202 229.756 277.513C228.892 277.461 228.031 277.41 227.174 277.359C221.565 295.671 222.007 309.134 222.577 326.464C222.712 330.574 222.855 334.903 222.925 339.565Z" fill="#F2EBE5"/>
<path d="M10.5799 373.17C10.0352 373.271 9.31676 373.593 8.49172 374.414C8.01536 374.888 7.27503 375.99 6.43 377.58C5.60963 379.123 4.75986 380.993 4.03803 382.883C3.94019 383.139 3.85114 383.382 3.77013 383.611C3.92491 383.478 4.1169 383.312 4.32956 383.126C4.87749 382.646 5.54344 382.048 6.06352 381.537C6.57461 381.035 8.05099 379.435 9.55361 377.758C10.8952 376.26 12.1692 374.798 12.753 374.063C12.6319 373.849 12.3704 373.567 11.9797 373.367C11.5981 373.172 11.1242 373.07 10.5799 373.17Z" fill="#F2EBE5"/>
<path d="M6.32045 396.579L6.31359 396.586C6.04044 396.876 5.67381 397.364 5.29045 397.927C5.7497 397.552 6.26818 397.175 6.82188 396.808C7.88155 396.105 8.75019 395.618 9.42635 395.24C9.64846 395.115 9.84979 395.003 10.0303 394.898C10.6142 394.528 11.514 393.878 12.143 393.148C12.8471 392.33 12.7918 391.943 12.7169 391.788C12.6368 391.622 12.5251 391.529 12.3843 391.463C12.2208 391.386 12.0382 391.36 11.9281 391.36C11.7661 391.36 11.4178 391.478 10.8317 391.954C10.5662 392.17 10.3032 392.415 10.0313 392.677C9.98305 392.723 9.93313 392.772 9.88212 392.821C9.68736 393.009 9.47668 393.213 9.28235 393.387L6.32045 396.579Z" fill="#F2EBE5"/>
<path d="M11.5816 397.466L11.5593 397.479C11.3143 397.622 11.0699 397.759 10.816 397.901C10.158 398.269 9.43691 398.673 8.48061 399.307C8.03172 399.605 7.63576 399.892 7.29955 400.16C7.42209 400.163 7.5453 400.163 7.66864 400.16C8.4968 400.141 9.20832 400.004 9.52468 399.931C10.9804 399.593 11.0289 399.58 11.4648 399.464C11.7145 399.398 12.0915 399.298 12.9332 399.084L12.9845 399.071L13.0366 399.061C13.7635 398.93 14.3736 398.818 14.8872 398.724C15.4293 398.625 15.8638 398.546 16.2146 398.484C16.8978 398.364 18.0103 398.119 19.0819 397.761C20.1568 397.401 20.9501 397.004 21.332 396.659C21.5621 396.329 21.6265 396.107 21.6405 395.999C21.6521 395.909 21.6334 395.897 21.6298 395.892C21.581 395.822 21.1983 395.475 20.04 395.474C19.0212 395.478 17.7499 395.633 16.4771 395.855C16.3291 395.881 16.2104 395.901 16.1145 395.918C15.742 395.983 15.7131 395.988 15.6453 396.006C15.6013 396.018 15.5639 396.029 15.4758 396.054C15.4742 396.055 15.4725 396.055 15.4709 396.056L15.3242 396.098C15.139 396.151 14.8723 396.226 14.4522 396.337C14.1385 396.42 13.5076 396.643 12.8596 396.9C12.5457 397.025 12.2488 397.149 12.0089 397.257C11.8888 397.31 11.7893 397.357 11.7125 397.395C11.6571 397.423 11.6253 397.44 11.6114 397.448C11.6042 397.452 11.6018 397.453 11.6035 397.452L11.5816 397.466Z" fill="#F2EBE5"/>
<path d="M41.1556 402.882L41.1648 402.876C42.5212 402.004 44.1672 400.828 45.2996 399.804C44.6197 399.973 43.8045 400.216 43.0302 400.533C42.818 400.62 42.5886 400.712 42.3555 400.805C41.6636 401.081 40.9392 401.371 40.5352 401.588C39.1566 402.328 37.4568 403.336 36.0135 404.352C35.7413 404.543 35.4815 404.733 35.2372 404.919L35.3607 404.915C35.7131 404.904 36.059 404.894 36.2449 404.899C36.7895 404.913 37.6327 404.692 38.6271 404.26C39.5797 403.846 40.5039 403.315 41.1466 402.888L41.1556 402.882Z" fill="#F2EBE5"/>
<path d="M409.042 398.104L409.05 398.121C409.671 399.423 410.456 400.718 411.403 401.938C412.534 403.396 413.893 404.74 415.472 405.86C415.487 405.871 415.502 405.882 415.516 405.893C415.537 405.908 415.557 405.925 415.577 405.941C415.589 405.951 415.601 405.96 415.613 405.97C415.954 406.249 416.697 406.832 417.504 407.262C417.663 407.346 417.815 407.42 417.96 407.483C417.895 407.249 417.813 406.999 417.717 406.736C417.358 405.755 416.849 404.748 416.443 404.085C415.48 402.772 413.695 400.517 412.022 398.83L409.76 396.968C409.604 396.9 409.542 396.927 409.542 396.927C409.507 396.937 409.404 396.984 409.279 397.153C409.155 397.323 409.063 397.547 409.028 397.765C408.993 397.989 409.035 398.09 409.033 398.087L409.042 398.104Z" fill="#F2EBE5"/>
<path d="M438.207 399.197L438.242 399.24L442.419 404.312L449.897 406.667L448.983 404.869C448.865 404.635 448.554 404.228 448.09 403.744C447.651 403.284 447.172 402.856 446.825 402.585C445.647 401.665 444.197 400.76 442.704 399.86C442.431 399.695 442.156 399.53 441.881 399.366C440.898 398.777 439.92 398.19 439.071 397.632C438.664 397.365 438.471 397.41 438.437 397.419C438.375 397.435 438.246 397.499 438.116 397.716C437.985 397.936 437.908 398.231 437.923 398.52C437.937 398.801 438.032 399.014 438.169 399.157L438.207 399.197Z" fill="#F2EBE5"/>
<path d="M450.258 401.67C450.765 402.2 451.332 402.867 451.658 403.51L452.682 405.527C453.473 405.793 454.58 406.183 455.751 406.709C455.203 405.087 454.605 403.412 454.138 402.317L452.741 400.33C452.197 399.822 451.706 399.433 451.26 399.196C450.797 398.949 450.519 398.937 450.338 398.982C450.013 399.063 449.852 399.176 449.764 399.261C449.671 399.35 449.586 399.478 449.514 399.681C449.437 399.895 449.386 400.159 449.346 400.496C449.335 400.584 449.326 400.672 449.318 400.763C449.628 401.039 449.952 401.35 450.258 401.67Z" fill="#F2EBE5"/>
<path d="M456.702 381.793C457.243 382.328 457.584 382.622 457.721 382.713C458.126 382.978 458.72 383.322 459.327 383.628C459.309 383.583 459.291 383.537 459.273 383.491C458.911 382.57 458.533 381.782 458.297 381.428C457.987 380.961 457.081 379.662 456.116 378.449C455.632 377.841 455.155 377.281 454.745 376.865C454.634 376.753 454.535 376.658 454.447 376.579C454.371 376.51 454.304 376.454 454.246 376.409C454.202 376.375 454.171 376.354 454.152 376.342C454.046 376.311 453.949 376.281 453.854 376.252C453.631 376.184 453.424 376.121 453.168 376.062C452.802 375.978 452.53 375.958 452.346 375.983C452.203 376.003 452.173 376.038 452.146 376.073C452.107 376.123 452.016 376.268 451.952 376.596C452.781 377.555 453.899 378.821 454.964 379.975C455.593 380.658 456.195 381.291 456.702 381.793Z" fill="#F2EBE5"/>
<path fill-rule="evenodd" clip-rule="evenodd" d="M98.1701 289.177L97.7784 289.862C95.4178 293.993 88.5225 304.625 79.6349 314.448C68.4919 326.764 51.5542 339.02 38.1415 346.601C35.1852 348.272 32.2423 349.52 29.4807 350.646C29.0886 350.806 28.7012 350.963 28.3184 351.118C25.9774 352.066 23.8084 352.945 21.8049 353.974L21.801 353.976C18.0669 355.881 15.0353 359.216 14.0257 360.602L13.9827 360.661L13.9342 360.715C12.7663 362.028 11.5632 364.701 10.595 367.488C10.252 368.475 9.95294 369.432 9.70557 370.291C9.81591 370.264 9.9263 370.24 10.0367 370.22C11.2819 369.991 12.4243 370.224 13.347 370.697C14.0219 371.042 14.5986 371.525 15.0242 372.076C16.2814 371.116 17.955 369.901 19.7191 368.687C22.6841 366.647 26.0969 364.479 28.4058 363.476C29.1657 363.146 30.0492 363.495 30.3792 364.254C30.7093 365.014 30.3608 365.898 29.601 366.228C27.5892 367.102 24.3925 369.113 21.4193 371.158C18.5684 373.12 16.1 374.988 15.2586 375.728C14.6402 376.534 13.1874 378.197 11.7883 379.759C10.2993 381.422 8.75789 383.095 8.16625 383.677C7.5836 384.249 6.86593 384.892 6.30591 385.383C6.02342 385.63 5.77618 385.843 5.59931 385.994L5.59627 385.997C5.49412 386.226 5.38428 386.444 5.29003 386.632C5.26355 386.684 5.2383 386.735 5.21479 386.782C5.04367 387.125 4.90238 387.43 4.79656 387.767C4.60091 388.391 4.48251 389.266 4.85024 390.69C5.02482 391.366 5.32504 392.166 5.63706 392.905L7.13501 391.291L7.18814 391.233L7.24694 391.182C7.3962 391.052 7.55897 390.894 7.7688 390.691C7.82617 390.636 7.88707 390.577 7.95217 390.514C8.2351 390.242 8.5726 389.924 8.94018 389.626C9.6201 389.073 10.6682 388.36 11.9281 388.36C12.7589 388.36 14.5476 388.684 15.4174 390.481C15.7239 391.115 15.8086 391.731 15.7535 392.309C15.7905 392.26 15.8278 392.211 15.8653 392.162C16.3172 391.573 16.8944 390.894 17.5563 390.162C18.8818 388.696 20.5948 386.965 22.4361 385.228C26.0794 381.791 30.3874 378.178 33.2676 376.6C33.9941 376.202 34.9057 376.468 35.3039 377.195C35.702 377.921 35.4358 378.833 34.7093 379.231C32.1978 380.607 28.1325 383.978 24.4947 387.41C22.6955 389.107 21.0411 390.781 19.7814 392.174C19.7404 392.219 19.7 392.264 19.66 392.309C19.6065 392.369 19.5538 392.428 19.502 392.486C19.6811 392.479 19.8574 392.475 20.03 392.474H20.035C21.5939 392.474 23.2045 392.919 24.0817 394.163C25.0692 395.564 24.6545 397.224 23.6736 398.541L23.6134 398.622L23.5429 398.694C22.649 399.608 21.2108 400.212 20.0331 400.606C18.7858 401.023 17.5224 401.3 16.7332 401.438C16.3765 401.501 15.9442 401.58 15.3925 401.681L15.0388 401.746C15.3245 402.859 15.9049 404.231 17.1402 405.652C18.3238 407.014 20.132 408.538 22.1277 409.78C24.14 411.033 26.2011 411.912 27.884 412.129C30.901 412.518 32.8189 412.184 34.218 411.718C34.9125 411.486 35.5067 411.214 36.1047 410.931C35.3613 409.862 34.9494 408.827 34.77 407.932C34.4405 407.939 34.0854 407.944 33.7399 407.942C33.2273 407.94 32.6568 407.922 32.2068 407.854C32.0159 407.825 31.6685 407.765 31.348 407.595C31.1913 407.512 30.8551 407.308 30.6375 406.892C30.368 406.377 30.4285 405.835 30.6264 405.438C30.9626 404.764 31.5485 404.132 32.1399 403.591C32.7583 403.025 33.5042 402.449 34.2868 401.898C35.8534 400.796 37.6617 399.726 39.1157 398.945C39.6791 398.642 40.6518 398.253 41.3638 397.97C42.2978 396.187 44.3682 393.457 47.827 390.686C49.754 389.143 52.2627 387.48 54.26 386.219C55.2646 385.585 56.1513 385.045 56.7874 384.663C57.1055 384.472 57.3613 384.321 57.5382 384.217C57.6266 384.165 57.6954 384.124 57.7423 384.097C57.7625 384.085 57.7786 384.076 57.7906 384.069L57.7962 384.066L57.8104 384.057L57.8142 384.055H57.8153L57.8158 384.054C58.5326 383.639 59.4504 383.883 59.8658 384.6C60.2812 385.317 60.0368 386.234 59.3201 386.65L59.3167 386.652C59.3141 386.653 59.31 386.656 59.3046 386.659C59.2937 386.665 59.2771 386.675 59.2551 386.688C59.2111 386.713 59.1455 386.752 59.0603 386.802C58.8899 386.902 58.6412 387.05 58.3308 387.236C57.7098 387.608 56.8429 388.136 55.8616 388.756C53.8868 390.003 51.494 391.593 49.7027 393.028C48.1195 394.296 46.8897 395.526 45.966 396.604L45.9872 396.601L46.0671 396.596C46.7087 396.56 47.3461 396.588 47.8943 396.77C48.4846 396.966 49.1757 397.432 49.3621 398.327C49.5162 399.067 49.2248 399.71 49.014 400.079C48.7769 400.494 48.4486 400.893 48.1092 401.253C46.7729 402.672 44.4544 404.328 42.7903 405.398C42.0269 405.903 40.9545 406.52 39.8218 407.012C39.2042 407.28 38.5106 407.537 37.8049 407.705C37.8242 407.768 37.8458 407.833 37.8701 407.9C38.1117 408.572 38.6124 409.462 39.6054 410.427C39.6262 410.444 39.6878 410.491 39.8101 410.568C39.9544 410.659 40.1454 410.767 40.3811 410.889C40.852 411.133 41.4561 411.409 42.1317 411.68C43.4966 412.229 45.0492 412.723 46.2797 412.931C47.852 413.197 49.8734 413.166 51.8836 412.813C53.9007 412.458 55.7773 411.801 57.1136 410.915C60.1823 408.878 67.0296 403.528 70.533 399.419C73.8919 395.48 74.9712 393.784 77.0777 390.474C77.5075 389.798 77.9801 389.056 78.5236 388.213C83.8131 380.013 88.6968 371.434 92.7698 364.091C93.8495 362.145 94.8754 360.279 95.8382 358.528C98.4865 353.713 100.658 349.765 102.158 347.39L102.17 347.371C105.645 341.868 111.43 332.707 118.139 323.899C124.819 315.129 132.561 306.51 139.975 302.293C146.933 298.335 157.652 289.202 166.73 280.947C171.245 276.84 175.318 272.985 178.262 270.157C179.734 268.742 180.923 267.585 181.744 266.782L182.134 266.4C169.229 246.909 145.535 198.755 158.015 120.022C158.144 119.204 158.913 118.645 159.731 118.775C160.549 118.905 161.107 119.673 160.978 120.491C148.436 199.618 172.838 247.289 185.231 265.635C188.769 269.157 192.366 270.931 198.317 272.023C203.688 273.008 210.845 273.417 221.458 274.023C222.96 274.109 224.532 274.199 226.178 274.295C227.422 274.368 228.671 274.443 229.927 274.518C242.128 275.25 255.053 276.025 272.038 275.182C276.359 274.967 280.099 274.811 283.389 274.674C292.204 274.307 297.782 274.074 302.62 273.207C309.097 272.045 314.207 269.743 324.037 264.176C336.485 253.176 346.781 243.606 353.405 223.795C360.089 203.805 363.058 173.291 360.312 120.334C360.269 119.507 360.905 118.802 361.732 118.759C362.56 118.716 363.265 119.352 363.308 120.179C366.058 173.219 363.12 204.2 356.25 224.746C349.529 244.848 339.071 254.865 326.922 265.629C329.822 269.624 330.89 270.764 334.416 274.527C335.492 275.676 336.798 277.07 338.455 278.864C344.327 285.222 350.73 294.582 356.223 303.841C361.717 313.102 366.366 322.371 368.701 328.584V328.586L368.711 328.611C369.699 331.241 371.027 335.55 372.646 340.806C373.234 342.714 373.86 344.746 374.522 346.868C377.024 354.883 380.069 364.273 383.588 373.375C383.951 374.312 384.264 375.137 384.548 375.887C385.94 379.551 386.654 381.431 389.144 385.967L389.155 385.988L389.166 386.009C391.811 391.216 394.868 395.779 397.795 399.066C399.26 400.711 400.666 402.005 401.944 402.901C403.243 403.812 404.299 404.232 405.081 404.3C406.682 404.438 407.578 403.886 408.09 403.387C408.168 403.311 408.239 403.234 408.304 403.158C408.354 403.099 408.4 403.04 408.442 402.983C407.619 401.826 406.919 400.623 406.343 399.414C405.999 398.716 405.963 397.951 406.065 397.3C406.17 396.627 406.442 395.95 406.86 395.379C407.279 394.809 407.897 394.277 408.716 394.043C409.374 393.855 410.062 393.887 410.729 394.127C409.912 391.178 408.477 387.338 406.229 383.977C405.769 383.289 405.954 382.357 406.642 381.897C407.331 381.436 408.263 381.621 408.723 382.31C412.299 387.657 413.966 394.005 414.446 397.018C416.195 398.83 417.956 401.07 418.902 402.367L418.935 402.413L418.965 402.46C419.478 403.287 420.093 404.5 420.534 405.706C420.755 406.31 420.946 406.949 421.051 407.562C421.088 407.778 421.118 408.012 421.132 408.254C422.008 408.698 423.185 409.167 424.446 409.588C426.101 410.141 427.745 410.562 428.787 410.721C432.363 411.269 436.621 409.266 439.627 405.639L435.963 401.191C434.588 399.712 434.711 397.565 435.541 396.177C435.983 395.438 436.703 394.767 437.689 394.514C438.645 394.268 439.637 394.467 440.552 395.021C439.761 393.029 438.795 390.756 437.716 388.476C435.774 384.371 433.53 380.376 431.355 377.914C430.807 377.293 430.865 376.345 431.486 375.797C432.107 375.248 433.055 375.307 433.604 375.928C436.073 378.723 438.464 383.042 440.428 387.193C442.279 391.106 443.807 394.99 444.717 397.572C445.36 397.962 446.013 398.367 446.649 398.786C446.662 398.748 446.675 398.71 446.688 398.673C446.878 398.14 447.184 397.578 447.688 397.095C448.198 396.607 448.842 396.263 449.613 396.071C450.764 395.784 451.822 396.096 452.671 396.548C453.053 396.752 453.419 396.997 453.765 397.262C454.065 396.711 454.389 395.806 454.47 394.397C454.51 393.697 454.389 392.678 454.093 391.377C453.803 390.098 453.365 388.634 452.83 387.078C451.763 383.97 450.338 380.579 449.028 377.711L448.434 376.428C446.363 372.022 441.327 366.49 439.017 364.247C438.423 363.67 438.409 362.721 438.986 362.126C439.563 361.532 440.512 361.518 441.107 362.095C443.22 364.146 447.785 369.087 450.366 373.647C450.857 373.274 451.408 373.084 451.934 373.012C452.314 372.959 452.687 372.966 453.03 373.001C452.769 368.262 452.401 362.721 450.162 356.677C449.099 354.042 446.984 352.009 446.118 351.371L446.091 351.352L446.065 351.331C444.31 349.916 442.363 348.615 440.261 347.211C439.919 346.983 439.573 346.752 439.223 346.517C436.746 344.855 434.117 343.037 431.56 340.802C419.961 330.662 405.856 315.23 397.438 300.913C390.724 289.494 386.124 277.686 384.649 273.162L384.404 272.412L384.884 271.785C388.673 266.84 398.082 255.04 405.371 247.482C409.546 243.152 411.739 236.927 412.196 228.429C412.654 219.92 411.363 209.298 408.73 196.373C406.057 183.253 404.456 150.174 403.287 116.668C402.841 103.896 402.458 91.0446 402.104 79.1655C401.526 59.7795 401.026 42.9827 400.456 33.3445C399.669 20.0481 399.264 9.59027 399.076 0.286224L402.075 0.225586C402.262 9.48552 402.666 19.9041 403.45 33.1673C404.023 42.8483 404.527 59.7372 405.106 79.1777C405.46 91.0419 405.842 103.856 406.285 116.563C407.459 150.2 409.06 182.962 411.67 195.774C414.319 208.78 415.671 219.698 415.192 228.59C414.712 237.492 412.389 244.526 407.53 249.565C400.654 256.695 391.79 267.745 387.751 272.979C389.402 277.807 393.785 288.781 400.024 299.393C408.231 313.352 422.095 328.543 433.535 338.543C435.939 340.645 438.434 342.375 440.894 344.026C441.234 344.254 441.575 344.482 441.915 344.709C443.993 346.097 446.051 347.471 447.909 348.964C449.094 349.842 451.645 352.297 452.961 355.598L452.968 355.616L452.974 355.633C455.46 362.34 455.792 368.496 456.052 373.33C456.065 373.571 456.078 373.809 456.091 374.044C456.358 374.251 456.627 374.501 456.881 374.759C457.399 375.284 457.951 375.937 458.464 376.582C459.492 377.874 460.447 379.243 460.795 379.766C461.217 380.4 461.689 381.439 462.065 382.392C462.441 383.349 462.8 384.423 462.932 385.165C463.012 385.618 462.974 386.347 462.353 386.88C461.845 387.314 461.252 387.334 460.981 387.325C460.388 387.306 459.73 387.08 459.222 386.876C458.122 386.435 456.842 385.725 456.074 385.22C455.774 385.022 455.415 384.713 455.047 384.366C455.263 384.95 455.471 385.53 455.668 386.103C456.223 387.72 456.697 389.293 457.019 390.713C457.336 392.111 457.529 393.452 457.465 394.569C457.334 396.845 456.66 398.498 455.855 399.544L456.681 400.719L456.769 400.843L456.829 400.982C457.588 402.721 458.637 405.832 459.329 407.981C459.644 408.958 459.162 409.808 458.584 410.232C458.016 410.65 457.115 410.846 456.293 410.357C455.457 409.86 454.559 409.444 453.718 409.102C453.344 409.989 452.344 410.584 451.266 410.245L442.097 407.355C438.621 411.653 433.331 414.452 428.332 413.687C427.062 413.492 425.242 413.017 423.495 412.433C422.025 411.941 420.493 411.336 419.334 410.696C418.827 410.764 418.337 410.711 417.915 410.617C417.258 410.471 416.629 410.195 416.093 409.909C415.021 409.338 414.095 408.604 413.716 408.294C413.711 408.29 413.705 408.285 413.7 408.28C412.466 407.402 411.355 406.411 410.368 405.349C410.309 405.411 410.248 405.473 410.185 405.535C409.1 406.593 407.363 407.509 404.822 407.289C403.293 407.156 401.726 406.412 400.222 405.358C398.698 404.29 397.121 402.819 395.555 401.062C392.43 397.553 389.244 392.778 386.512 387.407C383.919 382.685 383.142 380.637 381.735 376.93C381.452 376.185 381.144 375.372 380.79 374.457C377.234 365.26 374.165 355.794 371.658 347.761C370.976 345.576 370.337 343.503 369.743 341.573C368.14 336.369 366.856 332.204 365.903 329.666L365.902 329.664L365.892 329.638C363.643 323.654 359.09 314.553 353.643 305.372C348.194 296.188 341.916 287.032 336.252 280.899C334.63 279.143 333.34 277.767 332.267 276.622C328.68 272.795 327.513 271.549 324.479 267.371C315.237 272.563 309.901 274.949 303.15 276.16C298.094 277.066 292.221 277.311 283.275 277.683C280.213 277.811 276.791 277.953 272.919 278.142C266.266 287.711 261.932 299.279 258.499 312.42C255.852 322.552 253.76 333.531 251.539 345.187C250.816 348.981 250.08 352.847 249.306 356.778C243.018 388.731 234.333 424.683 210.63 459.929C209.262 461.963 206.983 462.301 205.25 461.441C203.542 460.594 202.394 458.604 203.009 456.285C218.631 397.317 220.293 364.022 219.925 339.61C219.856 335.053 219.715 330.788 219.58 326.71C219.01 309.529 218.55 295.66 224.093 277.179C223.13 277.124 222.192 277.07 221.277 277.018C210.723 276.416 203.346 275.995 197.776 274.973C191.854 273.887 187.84 272.1 184.086 268.687C184.009 268.763 183.927 268.843 183.842 268.927C183.016 269.735 181.82 270.899 180.341 272.32C177.383 275.162 173.29 279.036 168.748 283.166C159.712 291.384 148.753 300.751 141.458 304.9C134.619 308.791 127.19 316.967 120.526 325.717C113.908 334.404 108.188 343.461 104.709 348.968L104.694 348.992C103.246 351.285 101.145 355.106 98.5189 359.881C97.5466 361.649 96.5025 363.547 95.3932 365.547C91.3112 372.905 86.3891 381.554 81.0446 389.84C80.5133 390.664 80.047 391.397 79.6191 392.069C77.4895 395.416 76.3134 397.264 72.8157 401.366C69.0573 405.773 61.9547 411.303 58.7723 413.414C56.9829 414.602 54.6752 415.368 52.4032 415.767C50.1243 416.168 47.7518 416.223 45.7793 415.889C44.2587 415.632 42.4865 415.057 41.0121 414.464C40.268 414.164 39.5738 413.85 39.0002 413.553C38.7854 413.441 38.5655 413.321 38.3556 413.195C38.0938 413.308 37.8049 413.445 37.4609 413.608L37.4537 413.611C36.8276 413.908 36.0733 414.262 35.1665 414.564C33.3131 415.182 30.9378 415.548 27.5002 415.104C25.2145 414.809 22.7309 413.69 20.542 412.327C18.3365 410.954 16.287 409.243 14.876 407.62C13.2409 405.739 12.4789 403.888 12.1093 402.397C11.7493 402.492 11.5423 402.542 10.2029 402.853C9.75478 402.957 8.83059 403.134 7.73725 403.159C6.78038 403.181 5.59295 403.09 4.46222 402.653C3.85112 402.719 3.32895 402.753 2.89971 402.74C2.63784 402.733 2.35352 402.706 2.07713 402.634C1.80502 402.563 1.44253 402.422 1.12962 402.115C0.377156 401.378 0.578396 400.445 0.68224 400.094C0.788541 399.736 0.982724 399.344 1.12564 399.056L1.15241 399.002C1.16178 398.983 1.17151 398.964 1.18156 398.946C1.18974 398.928 1.19832 398.909 1.20731 398.891C1.44397 398.411 1.92183 397.595 2.44048 396.795C2.74776 396.321 3.09703 395.81 3.44569 395.351C2.9428 394.288 2.28147 392.742 1.94545 391.44C1.65337 390.309 1.57124 389.343 1.62856 388.498C1.51006 388.479 1.38977 388.448 1.26843 388.404C0.259777 388.039 -0.0677112 387.059 0.0112698 386.279C0.108372 385.321 0.434249 383.912 1.23533 381.813C1.99817 379.815 2.89842 377.832 3.78104 376.171C4.51949 374.782 5.30065 373.513 6.02696 372.665C6.27054 371.371 6.90478 368.967 7.76118 366.503C8.71593 363.755 10.0574 360.596 11.6404 358.781C12.8613 357.126 16.201 353.464 20.4379 351.304C22.5736 350.207 24.8859 349.271 27.2207 348.325C27.5962 348.173 27.9723 348.02 28.3483 347.867C31.0919 346.749 33.8854 345.56 36.6653 343.989C49.8932 336.512 66.5459 324.444 77.4103 312.436C85.6701 303.306 92.1833 293.448 94.7781 289.054C91.8826 283.111 85.4397 270.495 80.1502 262.12C76.4125 256.202 75.5615 248.843 76.8948 240.028C78.2266 231.224 81.7609 220.805 86.9894 208.605C92.1487 196.567 101.095 164.988 109.796 132.506C114.784 113.882 119.707 94.9049 123.753 79.3036C126.727 67.8395 129.228 58.198 130.935 51.858C137.389 27.8845 139.143 7.40284 139.217 0.240454L142.216 0.271357C142.14 7.69338 140.35 28.4266 133.832 52.6379C132.101 59.0645 129.604 68.6943 126.636 80.1386C122.608 95.6685 117.713 114.54 112.693 133.282C104.02 165.664 95.0121 197.501 89.7468 209.787C84.5507 221.911 81.1354 232.052 79.8611 240.477C78.5883 248.892 79.4747 255.432 82.6867 260.518C88.2935 269.396 95.1187 282.856 97.8269 288.466L98.1701 289.177ZM3.77013 383.611C3.92491 383.478 4.1169 383.312 4.32956 383.126C4.87749 382.646 5.54344 382.048 6.06352 381.537C6.57461 381.035 8.05099 379.435 9.55361 377.758C10.8952 376.26 12.1692 374.798 12.753 374.063C12.6319 373.849 12.3704 373.567 11.9797 373.367C11.5981 373.172 11.1242 373.07 10.5799 373.17C10.0352 373.271 9.31676 373.593 8.49172 374.414C8.01536 374.888 7.27503 375.99 6.43 377.58C5.60963 379.123 4.75986 380.993 4.03803 382.883C3.94019 383.139 3.85114 383.382 3.77013 383.611ZM12.8205 374.22C12.8192 374.219 12.8154 374.209 12.8131 374.189C12.8207 374.211 12.8219 374.22 12.8205 374.22ZM6.13637 401.329C6.13616 401.329 6.13806 401.324 6.14293 401.315C6.13914 401.324 6.1366 401.329 6.13637 401.329ZM5.29045 397.927C5.7497 397.552 6.26818 397.175 6.82188 396.808C7.88155 396.105 8.75019 395.618 9.42635 395.24C9.64846 395.115 9.84979 395.003 10.0303 394.898C10.6142 394.528 11.514 393.878 12.143 393.148C12.8471 392.33 12.7918 391.943 12.7169 391.788C12.6368 391.622 12.5251 391.529 12.3843 391.463C12.2208 391.386 12.0382 391.36 11.9281 391.36C11.7661 391.36 11.4178 391.478 10.8317 391.954C10.5662 392.17 10.3032 392.415 10.0313 392.677C9.98305 392.723 9.93313 392.772 9.88212 392.821C9.68736 393.009 9.47668 393.213 9.28235 393.387L6.32045 396.579L6.31359 396.586C6.04044 396.876 5.67381 397.364 5.29045 397.927ZM11.6035 397.452L11.5816 397.466L11.5593 397.479C11.3143 397.622 11.0699 397.759 10.816 397.901C10.158 398.269 9.43691 398.673 8.48061 399.307C8.03172 399.605 7.63576 399.892 7.29955 400.16C7.42209 400.163 7.5453 400.163 7.66864 400.16C8.4968 400.141 9.20832 400.004 9.52468 399.931C10.9804 399.593 11.0289 399.58 11.4648 399.464C11.7145 399.398 12.0915 399.298 12.9332 399.084L12.9845 399.071L13.0366 399.061C13.7635 398.93 14.3736 398.818 14.8872 398.724C15.4293 398.625 15.8638 398.546 16.2146 398.484C16.8978 398.364 18.0103 398.119 19.0819 397.761C20.1568 397.401 20.9501 397.004 21.332 396.659C21.5621 396.329 21.6265 396.107 21.6405 395.999C21.6521 395.909 21.6334 395.897 21.6298 395.892C21.581 395.822 21.1983 395.475 20.04 395.474C19.0212 395.478 17.7499 395.633 16.4771 395.855C16.3291 395.881 16.2104 395.901 16.1145 395.918C15.742 395.983 15.7131 395.988 15.6453 396.006C15.6013 396.018 15.5639 396.029 15.4758 396.054L15.4709 396.056L15.3242 396.098C15.139 396.151 14.8723 396.226 14.4522 396.337C14.1385 396.42 13.5076 396.643 12.8596 396.9C12.5457 397.025 12.2488 397.149 12.0089 397.257C11.8888 397.31 11.7893 397.357 11.7125 397.395C11.6571 397.423 11.6253 397.44 11.6114 397.448C11.6042 397.452 11.6018 397.453 11.6035 397.452ZM227.174 277.359C221.565 295.671 222.007 309.134 222.577 326.464C222.712 330.574 222.855 334.903 222.925 339.565C223.297 364.256 221.6 397.825 205.909 457.053C205.68 457.915 206.077 458.502 206.584 458.754C207.066 458.993 207.672 458.952 208.14 458.255C231.496 423.525 240.092 388.062 246.363 356.199C247.126 352.322 247.855 348.493 248.573 344.723C250.8 333.033 252.919 321.907 255.596 311.662C258.853 299.196 262.964 287.906 269.191 278.312C253.493 278.938 241.238 278.202 229.756 277.513C228.892 277.461 228.031 277.41 227.174 277.359ZM415.577 405.941C415.589 405.951 415.601 405.96 415.613 405.97C415.954 406.249 416.697 406.832 417.504 407.262C417.663 407.346 417.815 407.42 417.96 407.483C417.895 407.249 417.813 406.999 417.717 406.736C417.358 405.755 416.849 404.748 416.443 404.085C415.48 402.772 413.695 400.517 412.022 398.83L409.76 396.968C409.604 396.9 409.542 396.927 409.542 396.927C409.507 396.937 409.404 396.984 409.279 397.153C409.155 397.323 409.063 397.547 409.028 397.765C408.993 397.989 409.035 398.09 409.033 398.087L409.042 398.104L409.05 398.121C409.671 399.423 410.456 400.718 411.403 401.938C412.534 403.396 413.893 404.74 415.472 405.86C415.487 405.871 415.502 405.882 415.516 405.893C415.537 405.908 415.557 405.925 415.577 405.941ZM442.419 404.312L449.897 406.667L448.983 404.869C448.865 404.635 448.554 404.228 448.09 403.744C447.651 403.284 447.172 402.856 446.825 402.585C445.647 401.665 444.197 400.76 442.704 399.86C442.431 399.695 442.156 399.53 441.881 399.366C440.898 398.777 439.92 398.19 439.071 397.632C438.664 397.365 438.471 397.41 438.437 397.419C438.375 397.435 438.246 397.499 438.116 397.716C437.985 397.936 437.908 398.231 437.923 398.52C437.937 398.801 438.032 399.014 438.169 399.157L438.207 399.197L438.242 399.24L442.419 404.312ZM452.682 405.527C453.473 405.793 454.58 406.183 455.751 406.709C455.203 405.087 454.605 403.412 454.138 402.317L452.741 400.33C452.197 399.822 451.706 399.433 451.26 399.196C450.797 398.949 450.519 398.937 450.338 398.982C450.013 399.063 449.852 399.176 449.764 399.261C449.671 399.35 449.586 399.478 449.514 399.681C449.437 399.895 449.386 400.159 449.346 400.496C449.335 400.584 449.326 400.672 449.318 400.763C449.628 401.039 449.952 401.35 450.258 401.67C450.765 402.2 451.332 402.867 451.658 403.51L452.682 405.527ZM41.1556 402.882L41.1648 402.876C42.5212 402.004 44.1672 400.828 45.2996 399.804C44.6197 399.973 43.8045 400.216 43.0302 400.533C42.818 400.62 42.5886 400.712 42.3555 400.805C41.6636 401.081 40.9392 401.371 40.5352 401.588C39.1566 402.328 37.4568 403.336 36.0135 404.352C35.7413 404.543 35.4815 404.733 35.2372 404.919L35.3607 404.915C35.7131 404.904 36.059 404.894 36.2449 404.899C36.7895 404.913 37.6327 404.692 38.6271 404.26C39.5797 403.846 40.5039 403.315 41.1466 402.888L41.1556 402.882ZM32.5801 404.874C32.5803 404.874 32.5855 404.875 32.5951 404.878C32.5846 404.875 32.5798 404.874 32.5801 404.874ZM46.442 398.524C46.4428 398.523 46.4404 398.53 46.433 398.546C46.4378 398.532 46.4413 398.524 46.442 398.524ZM456.702 381.793C457.243 382.328 457.584 382.622 457.721 382.713C458.126 382.978 458.72 383.322 459.327 383.628C459.66 384.491 459.905 385.276 459.978 385.69C459.95 385.532 459.929 385.006 460.401 384.602C460.59 384.44 460.778 384.375 460.886 384.35C460.989 384.325 461.058 384.325 461.074 384.326C461.075 384.326 461.076 384.327 461.076 384.327C461.08 384.327 461.08 384.327 461.074 384.326C461.058 384.324 460.997 384.315 460.88 384.282C460.736 384.241 460.554 384.178 460.339 384.092C460.02 383.964 459.671 383.802 459.327 383.628C459.309 383.583 459.291 383.537 459.273 383.491C458.911 382.57 458.533 381.782 458.297 381.428C457.987 380.961 457.081 379.662 456.116 378.449C455.632 377.841 455.155 377.281 454.745 376.865C454.634 376.753 454.535 376.658 454.447 376.579C454.371 376.51 454.304 376.454 454.246 376.409C454.202 376.375 454.171 376.354 454.152 376.342C454.046 376.311 453.949 376.281 453.854 376.252C453.631 376.184 453.424 376.121 453.168 376.062C452.802 375.978 452.53 375.958 452.346 375.983C452.203 376.003 452.173 376.038 452.146 376.073C452.107 376.123 452.016 376.268 451.952 376.596C452.781 377.555 453.899 378.821 454.964 379.975C455.593 380.658 456.195 381.291 456.702 381.793Z" fill="black"/>
<path d="M459.978 385.69C459.95 385.532 459.929 385.006 460.401 384.602C460.59 384.44 460.778 384.375 460.886 384.35C460.989 384.325 461.058 384.325 461.074 384.326C461.058 384.324 460.997 384.315 460.88 384.282C460.736 384.241 460.554 384.178 460.339 384.092C460.02 383.964 459.671 383.802 459.327 383.628C459.66 384.491 459.905 385.276 459.978 385.69Z" fill="black"/>
</g>
</svg>
